<?xml version="1.0" encoding="UTF-8" standalone="no"?>
<!-- Created with Inkscape (http://www.inkscape.org/) -->

<svg
   width="97mm"
   height="24mm"
   viewBox="0 0 97 24"
   version="1.1"
   id="svg5"
   xml:space="preserve"
   sodipodi:docname="logo_nova_vetor.svg"
   inkscape:version="1.2.2 (732a01da63, 2022-12-09)"
   xmlns:inkscape="http://www.inkscape.org/namespaces/inkscape"
   xmlns:sodipodi="http://sodipodi.sourceforge.net/DTD/sodipodi-0.dtd"
   xmlns="http://www.w3.org/2000/svg"
   xmlns:svg="http://www.w3.org/2000/svg"><sodipodi:namedview
     id="namedview7"
     pagecolor="#ffffff"
     bordercolor="#000000"
     borderopacity="0.25"
     inkscape:showpageshadow="2"
     inkscape:pageopacity="0.0"
     inkscape:pagecheckerboard="0"
     inkscape:deskcolor="#d1d1d1"
     inkscape:document-units="mm"
     showgrid="false"
     inkscape:zoom="2.4"
     inkscape:cx="205.83333"
     inkscape:cy="50.208333"
     inkscape:window-width="1350"
     inkscape:window-height="728"
     inkscape:window-x="0"
     inkscape:window-y="0"
     inkscape:window-maximized="0"
     inkscape:current-layer="layer1" /><defs
     id="defs2" /><g
     inkscape:label="Camada 1"
     inkscape:groupmode="layer"
     id="layer1"><path
       style="fill:#d40000;fill-opacity:1;stroke:#000000;stroke-width:0.0393628;stroke-opacity:1"
       d="m 4.9825482,22.048242 c -1.75571,-0.25945 -3.26323,-1.66849 -3.82569,-3.57578 -0.23776998,-0.80627 -0.23037998,-0.58598 -0.23037998,-6.87034 0,-4.9345203 0.008,-5.7540303 0.0567,-6.0758203 0.31458998,-2.06349 1.65391998,-3.7182 3.43364998,-4.242166 0.58596,-0.17251 0.69791,-0.17542 6.1841398,-0.160851 5.81465,0.01544 5.40588,-0.0022 6.11534,0.265376 1.40034,0.528331 2.50307,1.790681 2.96027,3.388781 0.2202,0.76965 0.21044,0.45311 0.21044,6.8265703 0,6.37343 0.01,6.05704 -0.21042,6.82642 -0.2207,0.77119 -0.56775,1.42129 -1.08199,2.02676 -0.66019,0.77732 -1.42263,1.25784 -2.44421,1.54043 -0.23751,0.0657 -0.70041,0.0723 -5.58642,0.0799 -2.9753198,0.005 -5.4395898,-0.008 -5.5814398,-0.0293 z"
       id="path251-4-3-0" /><path
       style="fill:#d40000;fill-opacity:1;stroke:#000000;stroke-width:0.0393628;stroke-opacity:1"
       d="m 24.469908,22.048238 c -1.7557,-0.25945 -3.26322,-1.66849 -3.82568,-3.57578 -0.23777,-0.80627 -0.23038,-0.58598 -0.23038,-6.87034 0,-4.9345203 0.008,-5.7540303 0.0567,-6.0758203 0.31459,-2.06349 1.65393,-3.718195 3.43366,-4.242162 0.58595,-0.17251 0.69791,-0.17542 6.18414,-0.160851 5.81465,0.01544 5.40588,-0.0022 6.11534,0.265376 1.40035,0.528331 2.50307,1.790677 2.96028,3.388777 0.22019,0.76965 0.21043,0.45311 0.21043,6.8265703 0,6.37343 0.01,6.05704 -0.21042,6.82642 -0.2207,0.77119 -0.56774,1.42129 -1.08199,2.02676 -0.66019,0.77732 -1.42263,1.25784 -2.44421,1.54043 -0.23751,0.0657 -0.70041,0.0723 -5.58642,0.0799 -2.97532,0.005 -5.43959,-0.008 -5.58144,-0.0293 z"
       id="path251-4-4-7-6" /><path
       style="fill:#d40000;fill-opacity:1;stroke:#000000;stroke-width:0.0393628;stroke-opacity:1"
       d="m 43.881788,22.048233 c -1.75571,-0.25946 -3.26323,-1.66849 -3.82569,-3.57579 -0.23777,-0.80627 -0.23038,-0.58597 -0.23038,-6.87034 0,-4.9345103 0.008,-5.7540303 0.0567,-6.0758103 0.31459,-2.06349 1.65392,-3.718191 3.43366,-4.242157 0.58595,-0.17251 0.6979,-0.17542 6.18414,-0.160851 5.81465,0.01544 5.40587,-0.0022 6.11534,0.265375 1.40034,0.528332 2.50307,1.790673 2.96027,3.388773 0.22019,0.76965 0.21044,0.45311 0.21044,6.8265703 0,6.37342 0.01,6.05704 -0.21043,6.82642 -0.22069,0.77118 -0.56774,1.42128 -1.08198,2.02675 -0.66019,0.77732 -1.42264,1.25784 -2.44421,1.54043 -0.23751,0.0657 -0.70041,0.0723 -5.58643,0.0799 -2.97532,0.005 -5.43959,-0.008 -5.58144,-0.0293 z"
       id="path251-4-2-6-0" /><g
       aria-label="G"
       transform="matrix(0.90206822,0,0,1.1085636,-35.277778,-28.442708)"
       id="text1685-7-2"
       style="font-weight:bold;font-size:23.5676px;font-family:'Times New Roman';-inkscape-font-specification:'Times New Roman,  Bold';fill:#f2f2f2;stroke-width:0.354"><path
         d="m 50.313899,35.943458 h 6.467281 v 8.481114 h -1.44996 l -0.494828,-1.081716 q -1.898757,1.346391 -4.016158,1.346391 -3.486808,0 -5.420088,-2.082879 -1.921772,-2.094386 -1.921772,-5.8919 0,-3.693945 2.036848,-5.972453 2.048356,-2.290016 5.351042,-2.290016 4.34988,0 5.293504,4.44194 l -2.140417,0.978148 v -0.379751 l -0.03452,-0.851564 q -0.218645,-2.773336 -2.566199,-2.773336 -1.726143,0 -2.359062,1.472975 -0.632919,1.472975 -0.632919,5.489134 0,3.751483 0.506336,5.097874 0.517842,1.346391 1.956295,1.346391 1.691619,0 1.691619,-1.887249 v -3.866559 h -2.267 z"
         style="font-family:'Britannic Bold';-inkscape-font-specification:'Britannic Bold,  Bold'"
         id="path8175" /></g><g
       aria-label="W"
       transform="matrix(0.7487927,0,0,1.3354831,-35.277778,-28.442708)"
       id="text1685-1-6-6"
       style="font-weight:bold;font-size:20.2223px;font-family:'Copperplate Gothic Bold';-inkscape-font-specification:'Copperplate Gothic Bold,  Bold';fill:#af241d;stroke:#000000;stroke-width:0.303335"><path
         d="M 95.048341,23.617557 91.37515,37.095798 h -2.547536 l -1.876092,-7.356256 -1.905715,7.356256 H 82.498272 L 79.022564,23.617557 h 3.929919 l 2.043954,8.175812 2.043953,-8.175812 h 2.300681 l 2.014331,8.205435 2.152569,-8.205435 z"
         style="font-family:'Britannic Bold';-inkscape-font-specification:'Britannic Bold,  Bold';fill:#f2f2f2;stroke:none"
         id="path8178" /></g><g
       aria-label="I"
       transform="matrix(0.87521064,0,0,1.1425821,-35.277778,-28.442708)"
       id="text1685-2-7-9"
       style="font-weight:bold;font-size:23.6365px;font-family:'Times New Roman';-inkscape-font-specification:'Times New Roman,  Bold';fill:#af241d;stroke:#000000;stroke-width:0.354548"><path
         d="m 99.209419,27.604884 v 15.75382 h -4.570338 v -15.75382 z"
         style="font-family:'Britannic Bold';-inkscape-font-specification:'Britannic Bold,  Bold';fill:#f2f2f2;stroke:none"
         id="path8181" /></g><g
       aria-label="NEWS"
       transform="matrix(0.71452247,0,0,1.3995361,-35.277778,-28.442708)"
       id="text6160-3-0"
       style="font-weight:bold;font-size:20.7589px;font-family:'Britannic Bold';-inkscape-font-specification:'Britannic Bold,  Bold';fill:#1d4988;stroke:#000000;stroke-width:0.416615"><path
         d="m 143.15544,21.999657 v 13.835888 h -3.07126 l -5.77763,-8.757661 v 8.757661 h -1.34811 V 21.999657 h 2.54418 l 6.30471,9.457057 v -9.457057 z"
         id="path8184" /><path
         d="m 154.42687,21.999657 v 1.388657 h -4.95659 v 4.186243 h 4.16597 v 1.388657 h -4.16597 v 5.483674 h 5.7979 v 1.388657 h -9.81183 V 21.999657 Z"
         id="path8186" /><path
         d="m 171.66852,21.999657 -3.77066,13.835888 h -2.61514 l -1.92587,-7.551456 -1.95629,7.551456 h -2.61513 l -3.56794,-13.835888 h 4.0342 l 2.09819,8.392758 2.09819,-8.392758 h 2.36173 l 2.06778,8.423167 2.20969,-8.423167 z"
         id="path8188" /><path
         d="m 181.76415,25.871678 -1.86505,0.34463 q 0.12163,-0.55749 0.12163,-0.932528 0,-2.412412 -2.92936,-2.412412 -2.31104,0 -2.31104,1.662334 0,1.246751 2.58472,2.138735 4.987,1.713014 4.987,5.06809 0,1.966419 -1.39879,3.162489 -1.39879,1.185933 -3.71998,1.185933 -5.13904,0 -5.13904,-3.983519 0,-0.324358 0.0507,-0.800759 l 1.93601,-0.425719 q -0.223,0.881848 -0.223,1.530563 0,2.57459 2.94963,2.57459 2.36173,0 2.36173,-1.854921 0,-1.378521 -2.82799,-2.422547 -4.08488,-1.500155 -4.08488,-4.794414 0,-1.865057 1.35824,-3.00031 1.36839,-1.145388 3.58821,-1.145388 4.56128,0 4.56128,4.105153 z"
         id="path8190" /></g></g></svg>
