<?xml version="1.0" encoding="UTF-8" standalone="no"?>
<!-- Created with Inkscape (http://www.inkscape.org/) -->

<svg
   width="1229mm"
   height="420mm"
   viewBox="0 0 1229 420"
   version="1.1"
   id="svg5"
   inkscape:version="1.2.2 (732a01da63, 2022-12-09)"
   sodipodi:docname="IMAGEMPROPAGANDA.svg"
   xmlns:inkscape="http://www.inkscape.org/namespaces/inkscape"
   xmlns:sodipodi="http://sodipodi.sourceforge.net/DTD/sodipodi-0.dtd"
   xmlns="http://www.w3.org/2000/svg"
   xmlns:svg="http://www.w3.org/2000/svg">
  <sodipodi:namedview
     id="namedview7"
     pagecolor="#ffffff"
     bordercolor="#000000"
     borderopacity="0.25"
     inkscape:showpageshadow="2"
     inkscape:pageopacity="0.0"
     inkscape:pagecheckerboard="0"
     inkscape:deskcolor="#d1d1d1"
     inkscape:document-units="mm"
     showgrid="false"
     inkscape:zoom="0.11313708"
     inkscape:cx="2651.6504"
     inkscape:cy="883.88348"
     inkscape:window-width="1600"
     inkscape:window-height="837"
     inkscape:window-x="-8"
     inkscape:window-y="-8"
     inkscape:window-maximized="1"
     inkscape:current-layer="layer1" />
  <defs
     id="defs2">
    <rect
       x="220.774"
       y="332.47513"
       width="101.18808"
       height="155.06744"
       id="rect2363" />
    <rect
       x="161.63811"
       y="185.29247"
       width="505.94043"
       height="115.64353"
       id="rect2085" />
  </defs>
  <g
     inkscape:label="Camada 1"
     inkscape:groupmode="layer"
     id="layer1">
    <path
       id="rect1969"
       style="opacity:1;fill:none;fill-opacity:0.890196;stroke:none;stroke-width:2.89119;stroke-opacity:1"
       d="M 79.439328,1.1491876 C 77.734143,1.166405 76.028735,1.1673515 74.324047,1.19561 67.898396,1.3101113 61.47133,1.4516361 55.053114,1.7949248 52.229058,1.9772761 49.412229,2.2202476 46.595177,2.4659887 H 92.995673 C 88.47121,2.0859817 83.952518,1.6469193 79.439328,1.1491876 Z" />
    <path
       id="rect1971"
       style="opacity:1;fill:none;fill-opacity:0.890196;stroke:none;stroke-width:2.89119;stroke-opacity:1"
       d="M 79.439328,1.1491876 C 77.734143,1.166405 76.028735,1.1673515 74.324047,1.19561 67.898396,1.3101113 61.47133,1.4516361 55.053114,1.7949248 50.22876,2.1064373 45.418745,2.5453348 40.610466,3.0146576 V 187.04659 H 1185.0152 V 4.913899 C 1180.4651,4.848838 1175.9156,4.7914495 1171.3659,4.6859897 1158.74,4.3738105 1146.1143,3.840215 1133.4826,3.8840894 h -35.1317 -4.4738 c -3.5883,0.8983859 -7.6484,1.4223181 -12.2353,1.4223181 h -14.1598 -20.1869 -13.1174 -16.2616 -15.8607 -12.86001 -15.43034 c -4.60909,-6.4e-6 -9.21735,4.21e-5 -13.82637,0 -5.13675,-5.48e-5 -10.27664,2.715e-4 -15.41343,0 -6.17099,-3.738e-4 -12.34026,-0.00205 -18.51123,-0.00423 -5.86441,-0.00263 -11.73108,-0.00779 -17.59538,-0.021108 -6.8435,-0.018054 -13.68551,-0.043204 -20.52864,-0.1181751 -1.79223,-0.024364 -3.58469,-0.071847 -5.37699,-0.1055125 -2.42499,0.1164925 -4.851,0.210414 -7.27618,0.324981 -6.61544,0.2785323 -13.24019,0.3993549 -19.8491,0.8314441 -8.84668,0.4573318 -17.69209,0.645047 -26.55141,0.510685 H 801.4367 782.22062 770.77878 c -3.97316,6.5e-6 -7.94987,-3.93e-5 -11.923,0 -4.57214,5.39e-5 -9.14459,-2.755e-4 -13.71672,0 -5.15832,3.561e-4 -10.31413,0.00205 -15.47244,0.00423 -5.12411,0.00255 -10.2471,0.00356 -15.37118,0.016901 -5.0384,0.016827 -10.07985,0.042307 -15.11793,0.1055126 -4.96075,0.069831 -9.91904,0.1693813 -14.87313,0.4515984 -5.35883,0.3007334 -10.70863,0.8861114 -16.08023,0.839885 h -16.13507 -17.44346 -19.85758 -16.2195 -13.6112 c -3.83221,-2.5e-6 -7.66447,1.55e-5 -11.49671,0 -3.74897,-1.95e-5 -7.49875,1.12e-4 -11.24772,0 -3.64329,-1.43e-4 -7.28788,7.775e-4 -10.93115,0 -3.92481,-9.563e-4 -7.84627,-0.00283 -11.77107,-0.00842 C 535.21079,8.126759 530.90838,8.1186 526.60854,8.091974 520.54704,8.050811 514.48654,7.99307 508.42649,7.8471854 502.83621,7.6827793 497.24692,7.4715175 491.67523,6.9650952 486.93896,6.6226762 482.19971,6.7089304 477.45205,6.7076398 471.77822,6.6930168 466.10413,6.6750528 460.43065,6.606349 454.10929,6.508343 447.78851,6.3662679 441.47205,6.0914441 433.52895,5.7137724 425.59488,5.1938161 417.65982,4.6775721 409.62387,4.3799945 401.58619,3.8973517 393.54371,3.8841127 c -6.21208,1.38e-5 -12.42152,-8.86e-5 -18.63362,0 -5.93112,1.027e-4 -11.86264,-6.199e-4 -17.79376,0 -5.66604,7.79e-4 -11.33421,0.00453 -17.00028,0.00844 -6.18833,0.00466 -12.37785,0.00683 -18.5661,0.033763 -4.69598,0.027311 -9.38926,0.062407 -14.08391,0.1857023 -6.35899,0.1714347 -12.71509,0.4403145 -19.06835,0.7596956 -7.88997,0.3774013 -15.77852,0.6882556 -23.67716,0.7934594 -6.1138,0.236583 -12.22103,0.5751192 -18.32976,0.9158543 -4.91885,0.187037 -9.84126,0.1517886 -14.7634,0.1392762 -4.30792,-0.00415 -8.61536,-0.010292 -12.92326,-0.029564 -7.24329,-0.03323 -14.48438,-0.080044 -21.72728,-0.1645819 C 186.21219,6.387908 175.44707,6.2075739 164.68979,5.7664456 155.84151,5.386226 146.99499,4.9307239 138.1511,4.4665229 131.83595,4.0556194 125.52183,3.6281731 119.18827,3.7152686 112.31081,3.6037974 105.43378,3.4303828 98.570984,2.9386916 92.182357,2.4736533 85.80628,1.8513599 79.439328,1.1491876 Z" />
    <path
       id="rect1973"
       style="opacity:1;fill:none;fill-opacity:0.890196;stroke:none;stroke-width:2.89119;stroke-opacity:1"
       d="M 79.439328,1.1491876 C 77.734143,1.166405 76.028735,1.1673515 74.324047,1.19561 67.898396,1.3101113 61.47133,1.4516361 55.053114,1.7949248 47.984515,2.2513492 40.944436,2.9475434 33.899825,3.6772805 26.039412,4.1149481 18.175522,4.2342378 10.307074,4.4622993 8.007245,4.5449805 5.7065248,4.6484523 3.4065097,4.7492954 3.3989477,4.8169528 3.3885562,4.8842021 3.3811821,4.9518795 3.2438868,7.2864133 2.8477315,9.5820492 2.3387159,11.860889 c -0.3397548,1.578864 -0.828626,3.115582 -1.0931169,4.71011 -0.1910696,1.401366 -0.2450812,2.81707 -0.29121612,4.228969 -0.0528419,1.99701 -0.0707444,3.991339 -0.0844107,5.98893 -0.0108472,1.763381 -0.0107721,3.52914 -0.0126601,5.292541 -0.001634,1.774768 -0.003929,3.547321 -0.004222,5.322089 -2.8243e-4,2.268995 3.387e-5,4.538718 0,6.807712 -2.957e-5,2.374352 5.63e-6,4.749899 0,7.12425 v 7.550527 8.78714 c 0.0443154,2.441531 -0.27229843,4.868827 -0.42627342,7.301514 -0.12960725,2.498989 -0.18136792,4.998069 -0.21946715,7.499886 -0.0373896,2.898528 -0.0472147,5.799746 -0.0548674,8.698506 -0.00651,2.927778 -0.007169,5.855162 -0.008446,8.782916 -9.2624e-4,2.601931 2.1514e-4,5.201841 0,7.803761 -1.4723e-4,2.10183 2.567e-5,4.20361 0,6.30547 -2.008e-5,2.05914 3.61e-6,4.11969 0,6.17885 v 5.88764 c 0.14865574,0.83648 -0.23585708,3.83641 0.0337634,4.40623 0.2496711,2.09178 0.37937476,4.19355 0.47691996,6.29703 0.10964582,2.97467 0.13589448,5.95007 0.1603796,8.92642 -0.0467084,2.99402 0.19195683,5.98066 0.34608353,8.96862 0.063312,3.01972 0.3766551,6.02304 0.6119764,9.03193 0.2403728,3.03568 0.3255381,6.07713 0.3967293,9.12056 0.061997,2.92377 0.073832,5.85021 0.084411,8.77448 0.1557774,4.0847 0.3574074,8.16841 0.6119764,12.24798 0.2831453,4.6112 0.4874033,9.22575 0.6288589,13.84333 0.1040626,3.61498 0.1394138,7.23052 0.1646013,10.84676 0.022386,3.84505 0.025801,7.68959 0.029539,11.5347 0.00298,3.83423 0.00348,7.67096 0.00423,11.50516 0.024589,2.72247 0.02691,5.43873 -0.1857023,8.15406 -0.2116636,2.08009 -0.2991948,4.16606 -0.5022433,6.24638 -0.2855072,2.16855 -0.4654441,4.34643 -0.7723567,6.51227 -0.2519367,2.11413 -0.7011266,4.19746 -0.9960447,6.30548 -0.1977169,1.69627 -0.24389449,3.40537 -0.29121621,5.11107 -0.009278,0.37126 -0.009996,0.7428 -0.0168818,1.11422 H 1162.3003 V 4.4285382 c -9.6046,-0.2832832 -19.2088,-0.5778225 -28.8177,-0.5444481 h -35.1317 -4.4738 c -3.5883,0.898386 -7.6484,1.4223182 -12.2353,1.4223182 h -14.1598 -20.1869 -13.1174 -16.2616 -15.8607 -12.86001 -15.43034 c -4.60909,-6.5e-6 -9.21735,4.21e-5 -13.82637,0 -5.13675,-5.49e-5 -10.27664,2.714e-4 -15.41343,0 -6.17099,-3.738e-4 -12.34026,-0.00205 -18.51123,-0.00423 -5.86441,-0.00263 -11.73108,-0.00779 -17.59538,-0.021108 -6.8435,-0.018054 -13.68551,-0.043204 -20.52864,-0.1181752 -1.79223,-0.024364 -3.58469,-0.071847 -5.37699,-0.1055124 -2.42499,0.1164924 -4.851,0.210414 -7.27618,0.3249809 -6.61544,0.2785324 -13.24019,0.399355 -19.8491,0.8314442 -8.84668,0.4573317 -17.69209,0.645047 -26.55141,0.510685 H 801.4367 782.22062 770.77878 c -3.97316,6.4e-6 -7.94987,-3.94e-5 -11.923,0 -4.57214,5.37e-5 -9.14459,-2.755e-4 -13.71672,0 -5.15832,3.56e-4 -10.31413,0.00205 -15.47244,0.00423 -5.12411,0.00255 -10.2471,0.00356 -15.37118,0.016901 -5.0384,0.016827 -10.07985,0.042308 -15.11793,0.1055126 -4.96075,0.069831 -9.91904,0.1693814 -14.87313,0.4515984 -5.35883,0.3007335 -10.70863,0.8861114 -16.08023,0.8398851 h -16.13507 -17.44346 -19.85758 -16.2195 -13.6112 c -3.83221,-2.5e-6 -7.66447,1.55e-5 -11.49671,0 -3.74897,-1.95e-5 -7.49875,1.12e-4 -11.24772,0 -3.64329,-1.43e-4 -7.28788,7.775e-4 -10.93115,0 -3.92481,-9.563e-4 -7.84627,-0.00283 -11.77107,-0.00842 -4.2999,-0.00744 -8.60231,-0.015599 -12.90215,-0.042225 -6.0615,-0.041163 -12.122,-0.098904 -18.18205,-0.2447886 C 502.83621,7.6827827 497.24692,7.4715209 491.67523,6.9650986 486.93896,6.6226796 482.19971,6.7089338 477.45205,6.7076432 471.77822,6.69302 466.10413,6.6750566 460.43065,6.6063523 454.10929,6.5083466 447.78851,6.3662712 441.47205,6.0914474 433.52895,5.7137755 425.59488,5.1938193 417.65982,4.6775753 409.62387,4.3799976 401.58619,3.8973549 393.54371,3.8841159 c -6.21208,1.37e-5 -12.42152,-8.87e-5 -18.63362,0 -5.93112,1.027e-4 -11.86264,-6.2e-4 -17.79376,0 -5.66604,7.79e-4 -11.33421,0.00453 -17.00028,0.00844 -6.18833,0.00466 -12.37785,0.00683 -18.5661,0.033764 -4.69598,0.027311 -9.38926,0.062407 -14.08391,0.1857023 -6.35899,0.1714347 -12.71509,0.4403145 -19.06835,0.7596956 -7.88997,0.3774013 -15.77852,0.6882556 -23.67716,0.7934593 -6.1138,0.236583 -12.22103,0.5751192 -18.32976,0.9158544 -4.91885,0.1870369 -9.84126,0.1517885 -14.7634,0.1392761 -4.30792,-0.00415 -8.61536,-0.010292 -12.92326,-0.029564 C 211.46082,6.6575095 204.21973,6.6106948 196.97683,6.5261577 186.21219,6.387908 175.44707,6.2075739 164.68979,5.7664456 155.84151,5.386226 146.99499,4.9307239 138.1511,4.4665229 131.83595,4.0556194 125.52183,3.6281731 119.18827,3.7152686 112.31081,3.6037974 105.43378,3.4303828 98.570984,2.9386916 92.182357,2.4736533 85.80628,1.8513599 79.439328,1.1491876 Z" />
    <path
       id="rect2027"
       style="opacity:1;fill:#000000;fill-opacity:0.890196;stroke:none;stroke-width:2.89119;stroke-opacity:1"
       d="M 6.5339213,8.1468242 V 414.22497 H 1224.7726 V 8.1468242 Z" />
    <path
       id="path2029"
       style="opacity:1;fill:#000000;fill-opacity:0.890196;stroke:none;stroke-width:3.79943;stroke-opacity:1"
       d="M 6.5339213,8.1468242 V 211.18379 414.22497 H 615.65325 1224.7726 V 211.18379 8.1468242 H 615.65325 Z" />
    <text
       xml:space="preserve"
       transform="matrix(2.3355877,0,0,4.1173939,-323.55952,-700.63505)"
       id="text2083"
       style="font-style:normal;font-variant:normal;font-weight:bold;font-stretch:normal;font-size:66.6667px;font-family:Arial;-inkscape-font-specification:'Arial Bold';white-space:pre;shape-inside:url(#rect2085);display:inline;opacity:1;fill:#f9f9f9;fill-opacity:0.890196;stroke:none;stroke-width:1.33795;stroke-opacity:1"><tspan
         x="161.63867"
         y="245.3433"
         id="tspan1610">PROPAGANDA</tspan></text>
  </g>
</svg>
