<?xml version="1.0" encoding="UTF-8" standalone="no"?>
<!-- Created with Inkscape (http://www.inkscape.org/) -->

<svg
   width="51mm"
   height="256mm"
   viewBox="0 0 51 256"
   version="1.1"
   id="svg5"
   inkscape:version="1.2.2 (732a01da63, 2022-12-09)"
   sodipodi:docname="IMAGEMPROPAGANDAvertical.svg"
   xmlns:inkscape="http://www.inkscape.org/namespaces/inkscape"
   xmlns:sodipodi="http://sodipodi.sourceforge.net/DTD/sodipodi-0.dtd"
   xmlns="http://www.w3.org/2000/svg"
   xmlns:svg="http://www.w3.org/2000/svg">
  <sodipodi:namedview
     id="namedview7"
     pagecolor="#ffffff"
     bordercolor="#000000"
     borderopacity="0.25"
     inkscape:showpageshadow="2"
     inkscape:pageopacity="0.0"
     inkscape:pagecheckerboard="0"
     inkscape:deskcolor="#d1d1d1"
     inkscape:document-units="mm"
     showgrid="false"
     inkscape:zoom="0.53807938"
     inkscape:cx="-18.584618"
     inkscape:cy="449.74777"
     inkscape:window-width="1600"
     inkscape:window-height="837"
     inkscape:window-x="-8"
     inkscape:window-y="-8"
     inkscape:window-maximized="1"
     inkscape:current-layer="layer1" />
  <defs
     id="defs2">
    <rect
       x="220.774"
       y="332.47513"
       width="101.18808"
       height="155.06744"
       id="rect2363" />
    <rect
       x="161.63811"
       y="185.29247"
       width="505.94043"
       height="115.64353"
       id="rect2085" />
    <rect
       x="161.63811"
       y="185.29247"
       width="505.94043"
       height="115.64353"
       id="rect2085-2" />
  </defs>
  <g
     inkscape:label="Camada 1"
     inkscape:groupmode="layer"
     id="layer1">
    <path
       id="rect1969"
       style="opacity:1;fill:none;fill-opacity:0.890196;stroke:none;stroke-width:0.462541;stroke-opacity:1"
       d="m 8.0533617,1.00329 c -0.136327,1.879e-4 -0.272436,7.683e-4 -0.408761,0.00171 -0.110312,0.00119 -0.220968,0.00307 -0.331246,0.00785 -0.09011,0.00494 -0.180151,0.012975 -0.269751,0.030884 -0.135912,0.023201 -0.271701,0.038362 -0.408243,0.045874 -0.140525,0.011779 -0.280933,0.023304 -0.42168,0.018524 -0.04305,-5.1e-6 -0.08612,-6.9e-6 -0.129191,0 V 177.26122 H 10.256845 V 1.2176764 c -0.08154,-0.012293 -0.162864,-0.027657 -0.243913,-0.047649 -0.1194773,-0.027794 -0.2392203,-0.053301 -0.3596683,-0.064398 -0.150231,-0.013317 -0.300964,-0.010072 -0.451135,-0.027351 -0.128809,-0.013317 -0.257366,-0.031072 -0.38654,-0.026463 -0.120403,-0.00222 -0.240921,-0.00479 -0.361218,-0.01417 -0.13364,-0.010754 -0.267315,-0.025695 -0.401009,-0.034401 z" />
    <path
       id="rect1971"
       style="opacity:1;fill:none;fill-opacity:0.890196;stroke:none;stroke-width:0.462541;stroke-opacity:1"
       d="M 12.343022,0.89653899 V 220.59453 H 38.768283 V 1.0324038 c -0.02704,-0.00239 -0.05411,-0.00341 -0.08113,-0.00615 -0.158585,-0.014512 -0.317556,-0.0296214 -0.476457,-0.023816 -0.148903,-3.415e-4 -0.297582,-5.48e-4 -0.446484,-0.00171 C 37.536373,0.9986818 37.308334,0.9967938 37.080533,0.9892894 36.937182,0.9831434 36.794077,0.9742653 36.651101,0.9548883 36.531028,0.9458413 36.410564,0.9528403 36.2904,0.9504463 36.187645,0.95010483 36.08516,0.9494303 35.982408,0.9477123 35.878564,0.9460033 35.774558,0.9443013 35.6708,0.936274 35.564682,0.927567 35.45903,0.9136698 35.352989,0.9027434 35.208355,0.892329 35.063118,0.9016014 34.918391,0.8983014 34.735376,0.89864288 34.5526,0.8994754 34.369587,0.9010354 34.132631,0.9029094 33.895446,0.9046194 33.658519,0.9116199 33.516826,0.9170869 33.375621,0.9283509 33.234256,0.946021 33.094629,0.955069 32.95487,0.94892 32.81516,0.950463 h -0.468705 -0.42168 -0.329696 -0.38809 -0.334346 -0.346232 -0.296623 -0.318844 c -0.129217,1.73e-6 -0.258353,-8.51e-6 -0.387573,0 -0.11414,1.025e-5 -0.228475,-5.293e-5 -0.342615,0 -0.13896,7.341e-5 -0.278068,5.31e-4 -0.417028,8.8224e-4 -0.113004,3.4148e-4 -0.226002,1.7078e-4 -0.338998,0.00256 -0.101579,0.00256 -0.202882,0.006318 -0.304374,0.0141702 -0.128508,0.0116093 -0.256919,0.0299449 -0.385506,0.0388231 -0.143019,0.00239 -0.285979,0.0041 -0.428915,0.013317 -0.113979,0.00853 -0.227665,0.025046 -0.341581,0.035289 h -0.266135 -0.376205 -0.370003 -0.23151 -0.299724 -0.395324 -0.342098 -0.272852 -0.330212 -0.36587 -0.346232 c -0.0999,-1.6e-6 -0.199823,6.9e-6 -0.299723,0 -0.09567,-6.7e-6 -0.191134,3.94e-5 -0.286804,0 -0.10441,-5.12e-5 -0.20875,2.545e-4 -0.313159,0 -0.134909,-3.413e-4 -0.270238,-0.00105 -0.405144,-0.00273 -0.16765,-0.00222 -0.335204,-0.00494 -0.502811,-0.012293 -0.202779,-0.0099 -0.405408,-0.023936 -0.607715,-0.0502794 -0.160515,-0.0205553 -0.3216,-0.0408374 -0.482658,-0.0396937 h -0.377238 c -0.127041,-1.73e-6 -0.254332,6.85e-6 -0.381372,0 -0.106323,-1.024e-5 -0.212521,5.979e-5 -0.318844,0 -0.122785,-7.515e-5 -0.245664,3.1587e-4 -0.368453,0 -0.115411,-3.4148e-4 -0.230826,-9.1375e-4 -0.346232,-0.003584 -0.108944,-0.002734 -0.21773,-0.006318 -0.326595,-0.0141702 -0.153843,-0.0109271 -0.307598,-0.0248405 -0.46147,-0.034401 h -0.471289 -0.464055 -0.517281 -0.485758 -0.31626 -0.285254 c -0.09979,1.73e-6 -0.199419,-1.025e-5 -0.299206,0 -0.125237,1.536e-5 -0.25045,-7.68e-5 -0.375688,0 -0.109629,8.877e-5 -0.21955,3.9267e-4 -0.329179,8.8224e-4 -0.125365,6.8286e-4 -0.250848,0.00108 -0.376204,0.003584 -0.129528,0.002734 -0.258694,0.005806 -0.38809,0.016731 -0.114014,0.0104136 -0.228309,0.0315842 -0.342615,0.0264625 -0.123194,-0.003584 -0.246404,-0.008707 -0.369487,-0.0185239 -0.132256,-0.0116093 -0.264362,-0.0317039 -0.396875,-0.0299961 -0.04324,-7.176e-5 -0.08648,-6.6246e-4 -0.129708,-8.8224e-4 z" />
    <path
       id="rect1973"
       style="opacity:1;fill:none;fill-opacity:0.890196;stroke:none;stroke-width:0.462541;stroke-opacity:1"
       d="m 1.3684987,-0.0986369 c -0.156349,0.0078534 -0.312505,0.01999192 -0.46870601,0.03175488 -0.0074,0.39829675 -0.01336,0.79668911 -0.0155,1.19544512 -0.03295,2.0275922 -0.08505,4.0540403 -0.103352,6.0822096 -0.02252,1.9806837 -0.05694,3.9612933 -0.0801,5.9419313 3e-4,1.309372 4.02e-4,2.618403 0.0031,3.927763 0.0026,1.030604 0.0058,2.061785 0.0155,3.092276 0.01098,1.060202 0.02654,2.119828 0.06046,3.178736 0.03853,1.503569 0.0547,3.006707 0.04341,4.511811 v 4.296541 3.18844 2.233851 c 0,0.89105 3e-6,1.782156 0,2.673206 -3e-6,0.691469 2.1e-5,1.383584 0,2.075046 -3.2e-5,0.855147 -3.93e-4,1.709548 -5.17e-4,2.564692 -2e-4,1.152142 -6.6e-5,2.304496 -0.001,3.456644 -0.0011,0.882099 -0.0034,1.764669 -0.0083,2.64674 -0.0073,1.249707 -0.01414,2.499722 -0.04237,3.748665 -0.02407,0.840792 -0.06095,1.679616 -0.116789,2.516169 -0.02222,0.620078 -0.05348,1.239499 -0.08113,1.858894 -0.0026,0.662826 -0.0059,1.325241 -0.02015,1.987704 -0.01775,0.795184 -0.04331,1.590247 -0.09095,2.382064 -0.04296,0.649099 -0.09397,1.296344 -0.137459,1.945357 -0.05288,0.605588 -0.118201,1.207015 -0.178801,1.810375 -0.05869,0.516016 -0.05516,1.057863 -0.07183,1.580983 -0.0097,0.920089 -0.02165,1.840895 -0.06253,2.758782 -0.01655,0.301484 -0.03728,0.6022 -0.05994,0.902538 H 50.978404 c -0.0035,-0.442383 -0.0047,-0.884833 0,-1.327781 v -4.862944 -3.661324 -3.136388 c 1e-6,-0.967433 -7e-6,-1.935156 0,-2.90259 8e-6,-0.863003 -5.3e-5,-1.726395 0,-2.589396 5e-5,-0.591214 1.15e-4,-1.182102 5.17e-4,-1.773318 4e-4,-0.568074 10e-4,-1.136434 0.0031,-1.7045 0.0028,-0.647643 0.0068,-1.295368 0.01964,-1.942707 0.01822,-0.808883 0.04312,-1.616993 0.09043,-2.422651 0.05257,-0.860254 0.126969,-1.716744 0.151929,-2.581454 0.03445,-0.844022 0.04057,-1.691238 0.0894,-2.533812 0.03162,-0.680961 0.03434,-1.36327 0.04806,-2.045932 0.02163,-0.92824 0.05099,-1.855773 0.07906,-2.783488 0.0249,-1.133227 0.0012,-2.268173 0.0098,-3.401943 v -5.504332 -3.823657 -2.607041 -3.079041 -2.657329 -2.533812 c 10e-7,-0.877186 -4e-6,-1.754553 0,-2.6317428 4e-6,-0.8649466 -2.5e-5,-1.7297362 0,-2.5946882 2.6e-5,-0.6714604 -1.77e-4,-1.3427058 0,-2.0141697 2e-4,-0.7166189 3.5e-4,-1.433419 0.0015,-2.1500345 0.0014,-0.645686 0.003,-1.2909437 0.01034,-1.9365325 4.76e-4,-0.040599 0.0016,-0.081162 0.0021,-0.1217441 -0.410487,-0.00478 -0.820472,-0.037645 -1.230416,-0.08205 C 49.80709,1.0266421 49.358944,1.0127453 48.912344,0.95387887 48.487883,0.90011742 48.067211,0.80234319 47.646271,0.6980284 47.344904,0.62697254 47.041554,0.59386896 46.737799,0.57275023 c -0.462275,-0.025882 -0.925031,-0.0299622 -1.387512,-0.0344011 -0.475199,-0.003927 -0.950544,-0.005123 -1.425753,-0.006145 -0.372775,-6.7777e-4 -0.745497,-7.4095e-4 -1.118278,-8.8302e-4 -0.347893,-1.1438e-4 -0.695447,1.878e-5 -1.043347,0 -0.336325,-1.366e-5 -0.672916,3.43e-6 -1.009241,0 h -0.989603 -1.292428 -1.049548 -1.21698 C 35.794681,0.51141369 35.387074,0.4255902 34.977277,0.38751844 34.594339,0.35651469 34.210771,0.34434206 33.827476,0.33546431 33.339141,0.32231852 32.851997,0.2475238 32.364516,0.19871343 31.923057,0.18232381 31.484908,0.08910786 31.045734,0.02050024 c -0.438886,-0.06391951 -0.879135,-0.07774826 -1.319299,-0.09174773 -0.52428,-6.829e-4 -1.049543,-0.04464463 -1.573548,-0.0061461 -0.699922,0.06991197 -1.400848,0.10407407 -2.10168,0.13321686 -0.627376,0.02480638 -1.255059,0.03680836 -1.882573,0.04500317 -0.437671,0.005293 -0.875411,0.007341 -1.313098,0.008878 -0.359864,9.7834e-4 -0.719656,0.001707 -1.079521,0.001707 -0.380388,1.7758e-4 -0.760627,-2.389e-5 -1.141015,0 -0.424826,2.05e-5 -0.849515,-3.4e-6 -1.274341,0 -0.414308,3.43e-6 -0.828516,0 -1.242818,0 h -1.42782 C 16.112455,0.11238421 15.535683,0.03262172 14.95886,-0.01122052 14.343874,-0.0541579 13.728391,-0.0682598 13.112978,-0.08003984 12.533874,-0.08908832 11.954741,-0.092332 11.375617,-0.09506365 c -0.407814,-0.001878 -0.815371,-0.0032438 -1.223181,-0.0035852 -0.3711773,-2.7315e-4 -0.7424503,6.146e-5 -1.1136283,0 -0.393124,-4.439e-5 -0.786126,6.83e-6 -1.179256,0 -0.376376,-6.84e-6 -0.752748,0 -1.12913,0 h -1.755965 -1.692403 z" />
    <rect
       style="opacity:1;fill:#000000;fill-opacity:0.890196;stroke:none;stroke-width:0.462541;stroke-opacity:1"
       id="rect2027"
       width="254.65726"
       height="49.720692"
       x="-255.91432"
       y="1.0430909"
       transform="rotate(-90)" />
    <path
       style="opacity:1;fill:#1d4988;fill-opacity:1;stroke:none;stroke-width:0.607844;stroke-opacity:1"
       d="M 25.903436,1.257056 H 1.0430907 V 128.58569 255.91432 H 25.903436 50.763786 V 128.58569 1.257056 Z"
       id="path2029" />
    <g
       id="g347"
       transform="matrix(0,-1.707252,1,0,-39.974764,315.93292)">
      <text
         xml:space="preserve"
         transform="matrix(0.28597091,0,0,0.50413645,-5.2992805,-45.755209)"
         id="text2083"
         style="font-style:normal;font-variant:normal;font-weight:bold;font-stretch:normal;font-size:66.6667px;font-family:Arial;-inkscape-font-specification:'Arial Bold';white-space:pre;shape-inside:url(#rect2085);display:inline;opacity:1;fill:#f9f9f9;fill-opacity:0.890196;stroke:none;stroke-width:1.33795;stroke-opacity:1"><tspan
           x="161.63867"
           y="245.3433"
           id="tspan4422">PROPAGANDA</tspan></text>
    </g>
    <text
       xml:space="preserve"
       transform="scale(0.26458333)"
       id="text2361"
       style="font-style:normal;font-variant:normal;font-weight:bold;font-stretch:normal;font-size:76.4267px;font-family:Arial;-inkscape-font-specification:'Arial Bold';white-space:pre;shape-inside:url(#rect2363);display:inline;opacity:1;fill:#f9f9f9;fill-opacity:0.890196;stroke:none;stroke-width:1.33795;stroke-opacity:1" />
  </g>
</svg>
