<?xml version="1.0" encoding="UTF-8" standalone="no"?>
<!-- Created with Inkscape (http://www.inkscape.org/) -->

<svg
   width="49mm"
   height="19mm"
   viewBox="0 0 49 19"
   version="1.1"
   id="svg5"
   xml:space="preserve"
   sodipodi:docname="logo_footer.svg"
   inkscape:version="1.2.2 (732a01da63, 2022-12-09)"
   xmlns:inkscape="http://www.inkscape.org/namespaces/inkscape"
   xmlns:sodipodi="http://sodipodi.sourceforge.net/DTD/sodipodi-0.dtd"
   xmlns="http://www.w3.org/2000/svg"
   xmlns:svg="http://www.w3.org/2000/svg"><sodipodi:namedview
     id="namedview7"
     pagecolor="#ffffff"
     bordercolor="#000000"
     borderopacity="0.25"
     inkscape:showpageshadow="2"
     inkscape:pageopacity="0.0"
     inkscape:pagecheckerboard="0"
     inkscape:deskcolor="#d1d1d1"
     inkscape:document-units="mm"
     showgrid="false"
     inkscape:zoom="2.4"
     inkscape:cx="205.83333"
     inkscape:cy="50.208333"
     inkscape:window-width="1350"
     inkscape:window-height="728"
     inkscape:window-x="0"
     inkscape:window-y="0"
     inkscape:window-maximized="1"
     inkscape:current-layer="layer1" /><defs
     id="defs2" /><g
     inkscape:label="Camada 1"
     inkscape:groupmode="layer"
     id="layer1"><g
       aria-label="G"
       transform="matrix(0.90206822,0,0,1.1085636,-38.805556,-31.198784)"
       id="text1685-7-2"
       style="font-weight:bold;font-size:23.5676px;font-family:'Times New Roman';-inkscape-font-specification:'Times New Roman,  Bold';fill:#f2f2f2;stroke-width:0.354"><path
         d="m 50.313899,35.943458 h 6.467281 v 8.481114 h -1.44996 l -0.494828,-1.081716 q -1.898757,1.346391 -4.016158,1.346391 -3.486808,0 -5.420088,-2.082879 -1.921772,-2.094386 -1.921772,-5.8919 0,-3.693945 2.036848,-5.972453 2.048356,-2.290016 5.351042,-2.290016 4.34988,0 5.293504,4.44194 l -2.140417,0.978148 v -0.379751 l -0.03452,-0.851564 q -0.218645,-2.773336 -2.566199,-2.773336 -1.726143,0 -2.359062,1.472975 -0.632919,1.472975 -0.632919,5.489134 0,3.751483 0.506336,5.097874 0.517842,1.346391 1.956295,1.346391 1.691619,0 1.691619,-1.887249 v -3.866559 h -2.267 z"
         style="font-family:'Britannic Bold';-inkscape-font-specification:'Britannic Bold,  Bold'"
         id="path8175" /></g><g
       aria-label="W"
       transform="matrix(0.7487927,0,0,1.3354831,-38.805556,-31.198784)"
       id="text1685-1-6-6"
       style="font-weight:bold;font-size:20.2223px;font-family:'Copperplate Gothic Bold';-inkscape-font-specification:'Copperplate Gothic Bold,  Bold';fill:#af241d;stroke:#000000;stroke-width:0.303335"><path
         d="M 95.048341,23.617557 91.37515,37.095798 h -2.547536 l -1.876092,-7.356256 -1.905715,7.356256 H 82.498272 L 79.022564,23.617557 h 3.929919 l 2.043954,8.175812 2.043953,-8.175812 h 2.300681 l 2.014331,8.205435 2.152569,-8.205435 z"
         style="font-family:'Britannic Bold';-inkscape-font-specification:'Britannic Bold,  Bold';fill:#f2f2f2;stroke:none"
         id="path8178" /></g><g
       aria-label="I"
       transform="matrix(0.87521064,0,0,1.1425821,-38.805556,-31.198784)"
       id="text1685-2-7-9"
       style="font-weight:bold;font-size:23.6365px;font-family:'Times New Roman';-inkscape-font-specification:'Times New Roman,  Bold';fill:#af241d;stroke:#000000;stroke-width:0.354548"><path
         d="m 99.209419,27.604884 v 15.75382 h -4.570338 v -15.75382 z"
         style="font-family:'Britannic Bold';-inkscape-font-specification:'Britannic Bold,  Bold';fill:#f2f2f2;stroke:none"
         id="path8181" /></g></g></svg>
