<?xml version="1.0" encoding="UTF-8" standalone="no"?>
<!-- Created with Inkscape (http://www.inkscape.org/) -->

<svg
   width="85mm"
   height="18.5mm"
   viewBox="0 0 85 18.5"
   version="1.1"
   id="svg5"
   xml:space="preserve"
   sodipodi:docname="logo_nova_vetor_footer.svg"
   inkscape:version="1.2.2 (732a01da63, 2022-12-09)"
   xmlns:inkscape="http://www.inkscape.org/namespaces/inkscape"
   xmlns:sodipodi="http://sodipodi.sourceforge.net/DTD/sodipodi-0.dtd"
   xmlns="http://www.w3.org/2000/svg"
   xmlns:svg="http://www.w3.org/2000/svg"><sodipodi:namedview
     id="namedview7"
     pagecolor="#ffffff"
     bordercolor="#000000"
     borderopacity="0.25"
     inkscape:showpageshadow="2"
     inkscape:pageopacity="0.0"
     inkscape:pagecheckerboard="0"
     inkscape:deskcolor="#d1d1d1"
     inkscape:document-units="mm"
     showgrid="false"
     inkscape:zoom="2.4"
     inkscape:cx="150"
     inkscape:cy="22.5"
     inkscape:window-width="1600"
     inkscape:window-height="837"
     inkscape:window-x="-8"
     inkscape:window-y="-8"
     inkscape:window-maximized="1"
     inkscape:current-layer="text6160-3-0"
     showguides="false" /><defs
     id="defs2" /><g
     inkscape:label="Camada 1"
     inkscape:groupmode="layer"
     id="layer1"><g
       aria-label="NEWS"
       transform="matrix(1.1601271,0,0,1.3917278,-121.9825,-27.808758)"
       id="text6160-3-0"
       style="font-weight:bold;font-size:20.7589px;font-family:'Britannic Bold';-inkscape-font-specification:'Britannic Bold,  Bold';fill:#1d4988;fill-opacity:1;stroke:#f7f7f7;stroke-width:0.416319;stroke-dasharray:none;stroke-opacity:1"><path
         d="m 141.47085,20.247014 v 12.874648 h -2.85788 l -5.37623,-8.149228 v 8.149228 h -1.25445 V 20.247014 h 2.36742 l 5.86669,8.800034 v -8.800034 z"
         id="path8184"
         style="fill:#1d4988;fill-opacity:1;stroke:#f7f7f7;stroke-width:0.387396;stroke-dasharray:none;stroke-opacity:1" /><path
         d="m 151.28239,20.246436 v 1.288322 h -4.59846 v 3.883772 h 3.86496 v 1.288322 h -3.86496 v 5.08746 h 5.37898 v 1.288322 h -9.10289 V 20.246436 Z"
         id="path8186"
         style="fill:#1d4988;fill-opacity:1;stroke:#f7f7f7;stroke-width:0.386239;stroke-dasharray:none;stroke-opacity:1" /><path
         d="m 167.681,20.245932 -3.4891,12.802745 h -2.41986 l -1.78206,-6.987579 -1.81022,6.987579 h -2.41985 l -3.30152,-12.802745 h 3.73296 l 1.94152,7.766061 1.94151,-7.766061 h 2.18538 l 1.91338,7.794199 2.04469,-7.794199 z"
         id="path8188"
         style="fill:#1d4988;fill-opacity:1;stroke:#f7f7f7;stroke-width:0.385232;stroke-dasharray:none;stroke-opacity:1" /><path
         d="m 177.65091,23.8093 -1.62406,0.3001 q 0.10591,-0.485456 0.10591,-0.812035 0,-2.100701 -2.55085,-2.100701 -2.01243,0 -2.01243,1.447542 0,1.085657 2.25074,1.862386 4.34263,1.491674 4.34263,4.413236 0,1.712335 -1.21805,2.75386 -1.21805,1.032697 -3.23932,1.032697 -4.47502,0 -4.47502,-3.468804 0,-0.282447 0.0442,-0.697292 l 1.68586,-0.370711 q -0.19419,0.767903 -0.19419,1.332797 0,2.241924 2.56851,2.241924 2.05656,0 2.05656,-1.615244 0,-1.200401 -2.46258,-2.109527 -3.55707,-1.306318 -3.55707,-4.174921 0,-1.624071 1.18274,-2.612637 1.19158,-0.997391 3.12458,-0.997391 3.97191,0 3.97191,3.574721 z"
         id="path8190"
         style="fill:#1d4988;fill-opacity:1;stroke:#f7f7f7;stroke-width:0.362526;stroke-dasharray:none;stroke-opacity:1" /></g><path
       style="fill:#1d4988;fill-opacity:1;stroke:#f7f7f7;stroke-width:0.529;stroke-dasharray:none"
       d="M 25.6855,9.2941874 V 0.36449999 h 1.929254 1.929255 V 9.2941874 18.223875 H 27.614754 25.6855 Z"
       id="path1903" /><path
       style="fill:#1d4988;fill-opacity:1;stroke:#f7f7f7;stroke-width:0.529;stroke-dasharray:none"
       d="M 15.259328,18.090978 C 15.233598,18.012718 14.662687,14.103961 13.990647,9.4048517 13.318606,4.7057409 12.744186,0.7493934 12.714158,0.6129676 12.659728,0.3657006 12.664048,0.3649207 14.086061,0.3649207 h 1.426501 l 0.061,0.3031684 c 0.03355,0.1667426 0.361908,2.4859809 0.729689,5.1538627 0.36778,2.6678821 0.698687,4.9747182 0.735349,5.1263022 0.06266,0.259097 0.07162,0.252492 0.149424,-0.110243 0.04552,-0.212218 0.397468,-2.6554798 0.782105,-5.4294706 l 0.699338,-5.0436197 h 0.829538 0.829538 l 0.699374,5.1538628 c 0.384655,2.8346246 0.734712,5.3026915 0.777904,5.4845925 l 0.07853,0.330729 0.06272,-0.330729 c 0.03449,-0.181901 0.400757,-2.6499679 0.813918,-5.4845925 l 0.751202,-5.1538628 h 0.535668 0.535669 l -0.07056,0.468533 c -0.03881,0.2576931 -0.650169,4.2636501 -1.358579,8.902126 L 21.866371,18.169174 H 20.934117 20.001863 L 19.319911,13.393321 C 18.944838,10.766602 18.615097,8.5946055 18.587154,8.5666623 18.531954,8.5114593 18.4277,9.1767277 17.64385,14.586275 l -0.519167,3.582899 -0.909279,0.03205 c -0.667914,0.02354 -0.921699,-0.0057 -0.956069,-0.110244 z"
       id="path1905" /><path
       style="fill:#1d4988;fill-opacity:1;stroke:#f7f7f7;stroke-width:0.529;stroke-dasharray:none"
       d="M 5.0927398,18.036809 C 3.6654478,17.639635 2.2574317,16.463685 1.5280919,15.059674 0.14385099,12.394952 -0.03192581,7.8523425 1.1323407,4.8322526 2.2625695,1.9004561 4.5837638,0.20447784 7.2309448,0.37631364 c 1.710155,0.1110109 2.8678562,0.83404266 3.6164512,2.25862126 0.408984,0.7782973 0.909023,2.3748 0.799377,2.5522121 -0.05727,0.092661 -1.645763,1.0020657 -1.7503512,1.0020657 -0.02523,0 -0.0707,-0.5084961 -0.101056,-1.1299912 -0.107685,-2.2047271 -0.815691,-3.1915364 -2.289833,-3.1915364 -1.50628,0 -2.205376,0.8970951 -2.554934,3.2785475 -0.223687,1.523927 -0.184892,8.0969064 0.05456,9.2439754 0.345725,1.65616 0.842662,2.276566 1.884956,2.353292 0.696622,0.05128 1.150693,-0.203138 1.449786,-0.812322 0.187389,-0.38167 0.209605,-0.69835 0.211663,-3.017139 l 0.0023,-2.590712 -1.019749,-0.0317 -1.019748,-0.0317 V 9.4372458 8.61456 h 2.86632 2.8663192 v 4.68533 4.685329 h -0.592962 c -0.641939,0 -0.597317,0.04322 -0.948146,-0.918411 l -0.113853,-0.312075 -0.538647,0.395403 c -0.2962572,0.217472 -0.8292622,0.530369 -1.1844562,0.695327 -0.566999,0.263324 -0.800517,0.303398 -1.913603,0.328392 -0.868775,0.01951 -1.455,-0.02362 -1.862599,-0.137046 z"
       id="path1907" /></g></svg>
