<?xml version="1.0" encoding="UTF-8" standalone="no"?>
<!-- Created with Inkscape (http://www.inkscape.org/) -->

<svg
   width="50mm"
   height="40mm"
   viewBox="0 0 50 40"
   version="1.1"
   id="svg5"
   xml:space="preserve"
   inkscape:version="1.2.2 (732a01da63, 2022-12-09)"
   sodipodi:docname="sobre_nos_icon.svg"
   xmlns:inkscape="http://www.inkscape.org/namespaces/inkscape"
   xmlns:sodipodi="http://sodipodi.sourceforge.net/DTD/sodipodi-0.dtd"
   xmlns="http://www.w3.org/2000/svg"
   xmlns:svg="http://www.w3.org/2000/svg"><sodipodi:namedview
     id="namedview7"
     pagecolor="#ffffff"
     bordercolor="#000000"
     borderopacity="0.25"
     inkscape:showpageshadow="false"
     inkscape:pageopacity="0.0"
     inkscape:pagecheckerboard="0"
     inkscape:deskcolor="#d1d1d1"
     inkscape:document-units="mm"
     showgrid="false"
     showborder="false"
     borderlayer="false"
     shape-rendering="crispEdges"
     inkscape:zoom="4.0516981"
     inkscape:cx="97.366584"
     inkscape:cy="72.438764"
     inkscape:window-width="1920"
     inkscape:window-height="991"
     inkscape:window-x="-9"
     inkscape:window-y="-9"
     inkscape:window-maximized="1"
     inkscape:current-layer="layer1" /><defs
     id="defs2" /><g
     inkscape:label="Camada 1"
     inkscape:groupmode="layer"
     id="layer1"><text
       xml:space="preserve"
       style="font-style:normal;font-variant:normal;font-weight:normal;font-stretch:normal;font-size:12.7876px;line-height:1.1;font-family:Arial;-inkscape-font-specification:Arial;text-align:center;text-anchor:middle;fill:#f7f7f7;stroke:#f7f7f7;stroke-width:0.201379;stroke-dasharray:none;fill-opacity:1;stroke-opacity:1"
       x="25.705021"
       y="17.818939"
       id="text236"><tspan
         sodipodi:role="line"
         id="tspan234"
         style="font-style:normal;font-variant:normal;font-weight:normal;font-stretch:normal;font-family:Arial;-inkscape-font-specification:Arial;text-align:center;text-anchor:middle;stroke-width:0.201379;stroke-dasharray:none;fill:#f7f7f7;fill-opacity:1;stroke:#f7f7f7;stroke-opacity:1"
         x="25.705021"
         y="17.818939">Sobre</tspan><tspan
         sodipodi:role="line"
         style="font-style:normal;font-variant:normal;font-weight:normal;font-stretch:normal;font-family:Arial;-inkscape-font-specification:Arial;text-align:center;text-anchor:middle;stroke-width:0.201379;stroke-dasharray:none;fill:#f7f7f7;fill-opacity:1;stroke:#f7f7f7;stroke-opacity:1"
         x="25.705021"
         y="31.8853"
         id="tspan238">Nós</tspan></text><path
       id="path3142"
       style="fill:#f7f7f7;stroke-width:0.093166;fill-opacity:1;stroke:#f7f7f7;stroke-opacity:1"
       d="m 23.796686,1.5901347 c 16.688079,-0.274473 32.046658,13.8976393 21.619869,27.3926423 -0.504953,0.653542 -0.505045,0.653199 0.747241,4.407483 1.467524,4.399551 1.495097,4.609463 0.657841,4.973857 -0.578624,0.251831 -0.238521,0.411278 -4.420918,-2.068608 C 39.202177,34.398985 39.202433,34.399006 37.696096,35.138991 13.385494,47.081544 -12.612833,21.169238 8.7986348,6.3371312 13.45492,3.1116397 18.688091,1.6741567 23.796686,1.5901347 Z m 0.981336,2.175061 c -2.586647,-0.0053 -5.269675,0.350631 -7.968506,1.138949 -20.6821452,6.0411733 -16.82830318,28.7084023 5.251876,30.8901033 5.440573,0.537572 11.258356,-0.636097 15.900321,-3.207556 1.343374,-0.744175 0.990295,-0.834462 4.221965,1.07952 1.199428,0.710372 2.19323,1.291911 2.20865,1.291911 0.01542,0 -0.367223,-1.183776 -0.850077,-2.63033 -1.071023,-3.20862 -1.069522,-3.193385 -0.309542,-4.061251 C 52.807584,17.332448 40.585309,3.7977467 24.778022,3.7651957 Z" /></g></svg>
