<?xml version="1.0" encoding="UTF-8" standalone="no"?>
<!-- Created with Inkscape (http://www.inkscape.org/) -->

<svg
   width="259mm"
   height="189mm"
   viewBox="0 0 259 189"
   version="1.1"
   id="svg509"
   xml:space="preserve"
   inkscape:version="1.2.2 (732a01da63, 2022-12-09)"
   sodipodi:docname="art_educacao.svg"
   xmlns:inkscape="http://www.inkscape.org/namespaces/inkscape"
   xmlns:sodipodi="http://sodipodi.sourceforge.net/DTD/sodipodi-0.dtd"
   xmlns="http://www.w3.org/2000/svg"
   xmlns:svg="http://www.w3.org/2000/svg"><sodipodi:namedview
     id="namedview511"
     pagecolor="#ffffff"
     bordercolor="#000000"
     borderopacity="0.25"
     inkscape:showpageshadow="false"
     inkscape:pageopacity="0.0"
     inkscape:pagecheckerboard="0"
     inkscape:deskcolor="#d1d1d1"
     inkscape:document-units="mm"
     showgrid="false"
     showguides="true"
     showborder="false"
     borderlayer="false"
     shape-rendering="crispEdges"
     inkscape:zoom="0.71624579"
     inkscape:cx="709.25373"
     inkscape:cy="453.05676"
     inkscape:window-width="1920"
     inkscape:window-height="991"
     inkscape:window-x="-9"
     inkscape:window-y="-9"
     inkscape:window-maximized="1"
     inkscape:current-layer="layer1" /><defs
     id="defs506" /><g
     inkscape:label="Camada 1"
     inkscape:groupmode="layer"
     id="layer1"><path
       id="path642"
       style="fill:#000000;stroke-width:0.062894"
       d="m 102.3358,1.0576795 c -0.06,-0.010916 -0.11776,-0.00763 -0.17726,0.00662 -0.15862,0.037993 -0.32742,0.1553698 -0.57074,0.2956669 C 98.35864,3.2219068 95.355352,3.9638652 89.265406,4.4056287 84.199367,4.7731131 82.890887,4.9694849 80.585887,5.7059751 75.131579,7.44872 69.565164,11.467342 66.464479,15.900602 c -0.190085,0.271786 -0.357947,0.433102 -0.542056,0.522198 -0.164291,0.07953 -0.298239,0.200193 -0.348623,0.314054 -0.10061,0.227622 -0.09056,0.227323 -0.778147,-0.0058 C 51.648551,12.268446 36.834074,14.3065 26.46559,22.003782 c -4.533703,3.365676 -6.881897,6.239161 -5.098417,6.239161 0.134655,0 0.279971,0.197288 0.663412,0.900976 0.618022,1.134118 0.944861,5.099022 0.544263,6.601024 -0.328887,1.23319 -0.680061,1.610982 -1.608517,1.728401 -0.515861,0.06524 -0.611601,0.204635 -0.641347,0.937749 l -0.02206,0.555295 0.731812,1.13192 c 7.798874,12.064541 16.552182,26.918494 23.234865,39.427413 0.592795,1.109638 0.895138,1.277514 1.41729,0.786973 l 0.137529,-0.129445 0.04119,0.18755 c 0.05589,0.25445 0.238394,0.403604 0.555297,0.455268 v 7.36e-4 c 0.4689,0.07649 0.577483,0.06151 0.832574,-0.111057 0.444548,-0.300721 2.569296,-1.940036 5.564718,-4.293055 7.022558,-5.516499 9.998209,-7.555781 13.904438,-9.529743 6.928919,-3.501448 14.987728,-5.201985 21.025453,-4.436477 0.638022,0.0809 1.045867,-0.117775 1.045867,-0.51043 0,-0.09251 0.04666,-0.117675 0.223589,-0.117675 0.426528,0 0.715561,-0.258838 0.717838,-0.643552 0.0054,-0.899671 5.167146,-5.112686 9.247316,-7.5476 7.77387,-4.639194 10.70033,-5.671682 19.1198,-6.746649 4.30999,-0.55029 4.96823,-0.663006 4.96823,-0.850962 0,-0.03362 0.12071,0.02683 0.26772,0.133858 0.34607,0.251888 0.68021,0.228504 0.9429,-0.06546 0.31931,-0.357338 0.25258,-0.588515 -0.34789,-1.203997 -1.06677,-1.093434 -0.78418,-2.781515 0.58766,-3.512701 0.62229,-0.331677 0.69108,-1.025426 0.12503,-1.259894 -0.10542,-0.04361 -0.19196,-0.109805 -0.19196,-0.147098 0,-0.04483 0.0265,-0.04291 0.0758,0.0067 0.25178,0.251789 0.9377,-0.03503 1.01571,-0.425113 0.092,-0.459742 -1.76323,-4.96862 -3.50682,-8.524329 C 118.4804,23.784173 114.48203,17.509375 105.03799,4.3607652 103.27002,1.8992944 102.75554,1.1341146 102.3358,1.0576795 Z m -0.34274,1.6732397 c 0.31869,0.027448 0.62518,0.553078 1.83799,2.2410381 11.67412,16.2477587 16.48468,24.2860907 19.90015,33.2559167 0.43206,1.134673 0.48515,1.028213 -0.44276,0.892149 -5.63482,-0.826295 -11.95158,0.437385 -18.01657,3.604637 -5.542928,2.894626 -11.613468,7.068943 -16.344055,11.239024 -0.531505,0.468515 -1.073284,0.943867 -1.203997,1.056162 l -0.237563,0.203732 -1.731343,-3.474456 C 82.762927,45.745456 81.017457,42.503326 75.302863,32.33145 71.146955,24.933992 69.826854,22.54466 68.16346,19.406685 67.668379,18.472713 67.215441,17.627462 67.156575,17.528979 l -0.107385,-0.17946 0.650174,-0.87082 c 3.410363,-4.570748 8.439764,-8.0866276 13.806618,-9.6518358 1.933336,-0.5638501 3.188224,-0.7469297 7.09895,-1.0363055 6.701468,-0.4958752 9.265443,-1.047813 12.603358,-2.7139581 0.39848,-0.1989016 0.59355,-0.3621482 0.78477,-0.3456804 z m -5.64268,5.5117623 c -9.642968,-0.054939 -19.330866,3.4797275 -26.251845,9.6474225 -0.594903,0.530156 -0.693779,0.686143 -0.537643,0.842872 0.153096,0.1531 0.345824,0.06038 0.898769,-0.433203 7.134363,-6.368278 17.424428,-9.9456716 27.264615,-9.4782609 0.882081,0.041844 1.759529,0.077274 1.949783,0.078698 l 0.346421,0.00295 V 8.6876529 c 0,-0.2843944 -0.02303,-0.2893274 -1.743116,-0.3853967 -0.641635,-0.035855 -1.284116,-0.055911 -1.926984,-0.059575 z m 3.92163,3.0309545 c -9.158943,-0.101649 -15.381844,1.668796 -22.39052,6.371549 -2.768649,1.857746 -5.62572,4.33512 -5.44851,4.724054 0.123781,0.271665 0.302502,0.185583 0.989234,-0.475863 2.526514,-2.433461 5.685262,-4.613578 9.333369,-6.441421 5.449667,-2.730496 9.147824,-3.526462 17.075872,-3.676715 l 2.201325,-0.04192 v -0.21991 -0.220647 z m -84.177565,0.363332 c -0.04022,0.02549 -0.08689,0.168416 -0.160336,0.442029 -1.158705,4.316812 -2.216376,5.341762 -7.0356983,6.816522 l -0.2397698,0.07281 0.9318659,0.26919 c 3.8290062,1.10413 5.1079372,2.374792 6.2134192,6.175174 0.125845,0.432386 0.243925,0.828433 0.26257,0.880382 0.01859,0.05189 0.143993,-0.28215 0.279487,-0.742845 1.207999,-4.109514 2.327015,-5.177519 6.786366,-6.47746 l 0.408932,-0.119156 -0.283163,-0.07576 C 18.784919,17.68135 17.210829,16.121984 16.215066,11.901 c -0.04661,-0.197533 -0.0804,-0.289532 -0.120621,-0.264041 z m -9.8754245,1.393753 c -0.1475508,0.01224 -0.1941694,0.23753 -0.1941694,0.780356 V 14.46934 H 5.4548464 c -0.6322235,0 -0.8134519,0.06097 -0.8134519,0.272867 0,0.250259 0.1127791,0.292725 0.767116,0.292725 h 0.6163406 v 0.587656 c 0,0.322852 0.020101,0.607022 0.044865,0.631786 0.024708,0.02477 0.1310552,0.03571 0.2360922,0.02575 l 0.1912274,-0.01839 0.017651,-0.6134 0.018387,-0.613398 h 0.6450247 c 0.6784788,0 0.7965358,-0.04133 0.7965358,-0.282429 0,-0.241328 -0.1178602,-0.283163 -0.7987423,-0.283163 H 6.5279263 V 13.81108 c 0,-0.593838 -0.01234,-0.66442 -0.1257693,-0.725193 -0.073632,-0.03941 -0.1339525,-0.05925 -0.1831365,-0.05517 z m 97.7171995,2.123361 c -0.39146,-0.02341 -1.05055,0.0037 -2.12336,0.07281 -9.962487,0.641662 -19.95913,4.176581 -26.415854,9.340723 -1.240968,0.992532 -1.29811,1.051536 -1.209882,1.245185 0.124805,0.273935 0.311016,0.211371 0.928925,-0.311848 6.546324,-5.543128 17.1206,-9.286272 27.639711,-9.783488 1.56569,-0.07401 1.70079,-0.100013 1.69751,-0.332441 -0.002,-0.133402 -0.12558,-0.207531 -0.51705,-0.230945 z m -53.407604,0.547203 c 4.614964,0.0179 9.349885,0.799574 14.051538,2.374898 0.674003,0.225828 1.305622,0.418875 1.403314,0.430261 0.159097,0.01766 0.230197,0.117675 0.6818,0.962757 1.956889,3.66197 3.461538,6.388535 7.115131,12.89314 5.821287,10.363873 7.563416,13.587872 10.429248,19.299258 0.934655,1.862699 1.687135,3.398749 1.672504,3.413409 -0.01463,0.01463 -0.433922,-0.07398 -0.931866,-0.196376 -10.54004,-2.592169 -22.212242,1.874986 -34.521695,13.211608 -0.32861,0.302642 -1.137844,1.067999 -1.798272,1.700453 l -1.201057,1.149571 -0.869348,-1.615873 C 39.860919,56.872709 32.337477,43.66093 24.846041,31.192176 23.909287,29.63303 23.41699,28.749843 23.320635,28.456154 c -0.07824,-0.23851 -0.243638,-0.65781 -0.367746,-0.931866 L 22.727094,27.026361 23.44861,26.337943 C 30.803867,19.317136 40.375701,15.661885 50.528616,15.701285 Z m 54.977874,3.044929 c -5.02412,0.002 -12.769481,1.822867 -18.53655,4.357779 -4.22453,1.856877 -10.513011,5.72351 -10.352022,6.364931 0.06988,0.27844 0.29417,0.199228 1.06352,-0.372894 7.731893,-5.749786 19.433558,-9.846741 28.122192,-9.846741 0.57941,0 0.70699,-0.06879 0.63767,-0.344944 l -0.0397,-0.158131 z m -61.250868,2.494782 c -0.242744,-0.151918 -6.7883,2.261535 -9.064178,3.342067 -1.828838,0.86826 -2.22606,1.156466 -1.960081,1.422437 0.142553,0.14254 0.155077,0.138754 0.97673,-0.30817 1.863226,-1.013453 4.586015,-2.1161 8.547865,-3.461216 1.744711,-0.592368 1.938142,-0.720699 1.499664,-0.995118 z m 64.192098,0.20079 c -0.1341,-0.01516 -0.37237,-0.004 -0.81419,0.0228 -9.438989,0.572293 -18.855272,4.231804 -26.357017,10.24317 -1.71876,1.377282 -2.030302,1.711368 -1.712957,1.839461 0.206342,0.08326 0.367165,-0.01433 1.272398,-0.774471 7.443763,-6.250645 16.90214,-10.073171 26.632096,-10.763161 1.15346,-0.08179 1.26719,-0.123695 1.16943,-0.431733 -0.0252,-0.07956 -0.0556,-0.120906 -0.18976,-0.136063 z m -103.5967109,0.57074 -0.1419496,0.4891 c -0.4645072,1.602826 -1.0081134,2.190622 -2.4940467,2.696307 l -0.7877097,0.267718 0.5538239,0.166957 c 1.6013306,0.48235 2.1881531,1.070643 2.6955709,2.699984 l 0.1750466,0.561914 0.2081438,-0.64576 c 0.506265,-1.568013 1.0764196,-2.123631 2.6889514,-2.621288 L 8.3092831,25.454619 7.8429824,25.317818 C 6.1462085,24.818823 5.6060296,24.314102 5.0922498,22.748751 Z m 40.1864389,0.94731 c -1.148521,0 -9.533753,3.459672 -9.970302,4.113596 -0.08346,0.124991 -0.05037,0.344341 0.06178,0.409669 0.147919,0.08615 0.119596,0.09489 0.48101,-0.144157 1.423823,-0.941792 7.289844,-3.347682 9.456196,-3.878238 0.398818,-0.09765 0.375726,-0.50087 -0.02868,-0.50087 z m 19.510344,2.043927 -0.611928,0.01395 c -2.930598,0.06688 -8.556009,1.548797 -12.8343,3.380312 -1.849889,0.791924 -1.821649,0.773962 -1.676918,1.044396 0.09953,0.185963 0.298947,0.148982 1.075286,-0.199318 4.403944,-1.975734 8.984377,-3.25646 13.260885,-3.707605 0.723971,-0.07639 0.834264,-0.126884 0.806098,-0.369217 z m 45.682758,0.625167 c -0.17376,0.0044 -0.39933,0.01691 -0.6921,0.03531 -10.158453,0.638709 -19.669911,4.649933 -27.238871,11.486883 -0.8061,0.728133 -0.914944,0.890676 -0.725929,1.079699 0.148009,0.148005 0.309721,0.06894 0.789916,-0.384661 7.186402,-6.788246 17.542338,-11.196935 27.373464,-11.653104 0.95585,-0.04435 1.06941,-0.07736 1.06941,-0.308906 0,-0.138498 -0.0243,-0.211615 -0.19491,-0.24124 -0.0853,-0.0148 -0.20723,-0.01842 -0.38098,-0.01395 z m -46.227021,1.533497 c -1.96957,0.158137 -6.631483,1.455665 -10.556488,3.044928 -3.21049,1.299956 -3.741969,1.601929 -3.286169,1.86741 0.06049,0.0353 0.119582,0.06439 0.132391,0.06546 0.0121,0.0011 0.492723,-0.2075 1.068666,-0.463359 4.917435,-2.184534 9.673516,-3.637186 12.99758,-3.970912 0.506703,-0.05087 0.597218,-0.103044 0.597218,-0.344208 0,-0.101037 -0.09934,-0.164748 -0.283899,-0.194906 -0.16148,-0.02639 -0.387928,-0.027 -0.669296,-0.0044 z m -18.367392,0.24124 c -0.616243,0.04631 -2.733006,0.859806 -9.83056,3.7282 -4.210578,1.70165 -3.835274,1.400341 -3.300143,2.654383 1.052081,2.465442 5.714267,10.992345 6.148696,11.245643 0.417997,0.243712 3.331048,-0.737813 9.289974,-3.130982 4.191394,-1.683296 4.22161,-1.696641 4.301882,-1.913745 0.193891,-0.52413 -5.776199,-12.190342 -6.427447,-12.559963 -0.03692,-0.02095 -0.09436,-0.03014 -0.182402,-0.02354 z m -0.07869,0.548677 c 0.34719,0.133231 6.251646,11.55066 6.100154,11.795788 -0.131139,0.212194 -8.112607,3.346502 -10.899962,4.280552 -0.717373,0.240388 -1.421041,0.455272 -1.563652,0.477333 l -0.259628,0.03972 -0.343472,-0.556765 c -1.965473,-3.182637 -5.98959,-10.850444 -5.789778,-11.032351 0.0267,-0.02431 0.925993,-0.39917 1.998325,-0.832574 7.846753,-3.171351 10.591122,-4.235746 10.758013,-4.171699 z m 66.496383,1.373894 c -0.23162,-0.0053 -0.62773,0.04338 -1.29887,0.14342 -9.50192,1.416294 -18.889056,5.584419 -26.131225,11.601621 -0.684837,0.568998 -0.737808,0.644184 -0.576624,0.822277 0.174437,0.192752 0.214642,0.170734 1.256952,-0.669295 7.525716,-6.065152 16.595877,-9.989372 26.162847,-11.319928 0.83014,-0.115454 0.92737,-0.158129 0.89951,-0.397899 -0.0134,-0.115455 -0.081,-0.174977 -0.31259,-0.180196 z m 13.34694,0.419966 c -0.0462,-0.01608 -0.0911,-0.01445 -0.1346,0.0051 -0.0496,0.0225 -0.0977,0.06845 -0.14268,0.13975 -0.073,0.115711 -0.0775,0.09627 0.27434,1.213559 0.10895,0.345909 0.26806,0.954751 0.35303,1.352566 0.0974,0.45597 0.19317,0.752155 0.25889,0.801684 0.40931,0.308648 0.57086,-0.02876 0.4082,-0.853169 -0.31094,-1.575924 -0.69356,-2.546938 -1.01718,-2.659531 z m -59.881393,0.510429 c -0.121248,-0.0053 -0.260249,-0.0034 -0.414817,0.0051 -1.854832,0.102403 -5.980258,1.172392 -9.303213,2.527879 -3.150681,1.285218 -4.32634,1.9473 -4.049609,2.280756 0.11712,0.141102 0.222558,0.11332 0.83846,-0.219177 3.692145,-1.99324 9.089895,-3.705577 12.663667,-4.017982 0.653379,-0.05712 0.83478,-0.12788 0.83478,-0.325822 0,-0.15456 -0.20555,-0.234812 -0.569268,-0.250802 z m -52.984702,2.200586 c -0.24117,0 -0.283163,0.117946 -0.283163,0.796536 v 0.645025 l -0.63767,0.01839 c -1.098068,0.03087 -1.030019,0.552353 0.07208,0.552353 h 0.565592 v 0.553089 c 0,0.346621 0.0285,0.582327 0.07576,0.629579 0.285789,0.285776 0.490571,0.0038 0.490571,-0.675179 v -0.507489 h 0.590599 c 0.714001,0 0.939362,-0.112281 0.807568,-0.401577 -0.07398,-0.161782 -0.08423,-0.164749 -0.736961,-0.164749 h -0.661206 v -0.647232 c 0,-0.680909 -0.04191,-0.798742 -0.283164,-0.798742 z m 11.591324,0.15666 c 0.125844,0.133616 4.521307,7.58407 7.087181,12.012758 4.908467,8.472019 9.954136,17.504259 14.435462,25.840706 l 0.773,1.437883 -0.01252,0.416288 h -7.34e-4 c -0.0074,0.228817 -0.02172,0.425448 -0.03309,0.435411 -0.01067,0.01067 -0.559274,-1.063772 -1.218706,-2.388137 -3.82307,-7.677854 -7.022971,-13.290108 -15.43206,-27.062355 -1.8164,-2.974869 -3.813283,-6.25832 -4.437212,-7.296062 L 24.153195,34.12384 24.1098,33.337601 c -0.02704,-0.492491 -0.02097,-0.763146 0.01618,-0.723722 z m 88.068311,1.091467 c -0.14096,-0.01769 -0.37947,0.02041 -0.76933,0.108111 -8.98666,2.021833 -17.298381,5.776555 -24.675684,11.146352 -0.930641,0.677408 -1.046082,0.805689 -0.950254,1.055428 0.07294,0.190055 0.330579,0.06628 1.222385,-0.586186 7.021576,-5.137186 15.397633,-8.971745 23.910783,-10.946298 1.43531,-0.332915 1.4467,-0.337018 1.4467,-0.549411 0,-0.136633 -0.0436,-0.210309 -0.1846,-0.228002 z m -51.305578,0.753876 c -1.130647,0.03127 -5.103394,1.431925 -6.697372,2.43815 -0.250551,0.158181 -0.31665,0.3644 -0.165486,0.515579 0.108823,0.108808 0.07687,0.120408 1.162074,-0.423642 1.749676,-0.877169 3.352235,-1.468427 5.129308,-1.892416 0.912376,-0.217674 1.015655,-0.284422 0.867142,-0.561915 -0.03027,-0.05657 -0.134142,-0.08023 -0.295666,-0.07576 z m -36.841431,0.561181 1.062046,1.752672 c 0.584106,0.964137 2.538526,4.172998 4.34307,7.130575 6.976883,11.43487 9.885626,16.442798 13.09687,22.547182 0.756264,1.4376 3.289697,6.491328 3.568599,7.118808 l 0.172839,0.38834 -0.07502,0.775205 c -0.04113,0.426096 -0.08114,0.780594 -0.08826,0.787711 -0.0073,0.0073 -0.816202,-1.492632 -1.798273,-3.333241 C 35.768472,56.143291 30.417223,46.628872 25.121849,38.035911 l -1.231946,-1.999797 0.07869,-0.508224 z m -0.372158,1.690891 0.286105,0.467036 c 6.702729,10.944627 10.89264,18.40134 21.211532,37.750497 l 0.864936,1.621755 -0.05296,0.799477 -0.05369,0.799478 -1.454063,-2.861791 C 38.129936,62.800295 31.560152,51.124812 24.234113,39.312721 c -0.525724,-0.847643 -0.976688,-1.576875 -1.001737,-1.620284 -0.02505,-0.04362 0.01295,-0.160474 0.08458,-0.261099 0.0714,-0.100283 0.181417,-0.303742 0.244183,-0.45159 z m 103.665847,0.263304 c -0.19799,0.0237 -0.25621,0.318872 -0.18093,0.898035 0.16135,1.241502 -0.22877,2.813473 -0.98409,3.967232 -0.0911,0.139124 -0.0974,0.197161 -0.0368,0.330236 0.24964,0.547891 0.90944,-0.195432 1.36654,-1.539381 0.41127,-1.209138 0.45994,-3.386671 0.0802,-3.589927 -0.0973,-0.05205 -0.17892,-0.07409 -0.24492,-0.0662 z m -104.491802,1.15325 c 0.137999,0.139137 4.297886,6.964535 6.05014,9.926908 5.713662,9.659602 10.522169,18.448089 15.80568,28.888577 0.715174,1.413205 1.00415,1.926652 1.084849,1.927719 0.08326,0.0011 0.107968,0.05131 0.103699,0.205937 -0.01742,0.568151 -0.065,0.51452 -0.867877,-0.982614 -6.422967,-11.976997 -14.771264,-26.1485 -22.230918,-37.737993 -0.57667,-0.895913 -1.039696,-1.63445 -1.031156,-1.640143 0.0093,-0.0061 0.11295,-0.04997 0.230944,-0.09708 0.118002,-0.04707 0.35394,-0.181332 0.524404,-0.298608 0.170442,-0.117277 0.318849,-0.204084 0.330235,-0.192698 z m 45.759247,1.952725 c -0.0851,-2.4e-5 -0.19657,0.0088 -0.332443,0.02575 -1.902202,0.234945 -8.508748,2.041459 -12.37609,3.435474 -5.415789,1.952193 -12.638842,5.406116 -12.400361,5.92952 0.108794,0.23878 0.228308,0.20104 1.434941,-0.453062 6.852207,-3.71446 15.000449,-6.659701 22.851674,-8.259552 1.143577,-0.233017 1.397432,-0.398765 0.995118,-0.65091 -0.02902,-0.01819 -0.08774,-0.02718 -0.172839,-0.02721 z m 51.394565,0.09562 c 0.96458,0.01295 1.91912,0.08831 2.86694,0.224324 l 0.52073,0.07502 -0.31626,0.311112 -0.31626,0.311112 -2.09173,0.0067 c -4.20358,0.01324 -8.18987,0.898128 -13.09908,2.908127 -6.35947,2.603791 -15.017914,8.35742 -18.104087,12.029676 -0.247008,0.293952 -0.510523,0.618226 -0.584713,0.72078 l -0.134598,0.186815 -0.106645,-0.250067 c -0.0585,-0.137231 -0.127994,-0.30593 -0.154453,-0.3751 -0.120636,-0.315466 4.758533,-4.337132 8.151436,-6.718702 9.34381,-6.558638 16.61674,-9.520577 23.36872,-9.429717 z m 0.0111,1.409934 c 0.48689,-0.01082 0.96437,-0.0046 1.43053,0.01913 l 0.92084,0.04634 -0.14416,0.355241 -0.14489,0.354506 -0.90171,-0.01913 c -9.27901,-0.196274 -19.25783,4.094492 -28.041293,12.057625 -0.397804,0.360654 -1.450561,1.378249 -2.339593,2.261631 -1.779239,1.76791 -1.648155,1.687709 -1.777679,1.092203 -0.133431,-0.613418 2.408959,-3.186902 5.280817,-5.344806 8.876568,-6.669848 18.413858,-10.661215 25.717138,-10.822736 z m -49.284444,0.953194 c -0.118088,0.0047 -0.264516,0.01728 -0.444971,0.03678 -5.281018,0.571944 -13.431544,3.383192 -24.038756,8.290443 -1.121301,0.51875 -1.242772,0.622437 -1.005415,0.859787 0.142796,0.142796 0.05225,0.173937 1.739433,-0.596481 10.494723,-4.792252 17.662925,-7.275744 23.039962,-7.981539 1.000586,-0.131352 1.163545,-0.18903 1.163545,-0.41261 0,-0.103115 -0.04422,-0.16224 -0.178725,-0.186078 -0.06725,-0.01196 -0.15699,-0.01502 -0.275073,-0.01025 z m 51.126854,0.341268 0.0412,0.205201 c 0.0225,0.112694 0.0412,0.32894 0.0412,0.480275 v 0.275074 h -1.05322 c -9.63379,0.0024 -19.82767,4.630908 -29.2394,13.27633 -0.316502,0.29073 -0.942643,0.875161 -1.390813,1.29814 -0.797736,0.752898 -0.895827,0.814738 -0.895827,0.564856 0,-0.277051 3.981118,-4.103536 6.163407,-5.923636 6.492163,-5.414694 13.733563,-8.857352 20.692273,-9.837914 1.65785,-0.233586 2.09127,-0.267583 3.87456,-0.303022 z m -0.54647,1.465097 c 0.74243,-2.85e-4 0.74342,4.71e-4 0.89877,0.336118 0.15735,0.340003 0.31944,0.304841 -3.98048,0.856845 -8.36142,1.073402 -10.62176,1.776317 -17.04424,5.299206 -0.84749,0.46488 -1.902227,1.060413 -2.343271,1.323147 -0.891446,0.531061 -0.993882,0.569651 -0.408932,0.153717 7.298763,-5.189789 15.268843,-7.966194 22.878153,-7.969033 z m -48.946126,0.731812 c -2.059813,-0.08917 -10.664237,2.402776 -16.49557,4.896156 -4.694203,2.00716 -8.877102,4.324545 -8.746447,4.845408 0.0639,0.254621 0.291897,0.18754 1.054693,-0.30964 5.567352,-3.628744 17.016332,-7.905747 23.672481,-8.843533 0.969774,-0.136676 0.969377,-0.136662 0.969377,-0.38466 0,-0.125589 -0.160272,-0.190995 -0.454534,-0.203731 z m 1.879177,3.572274 c -6.525762,1.067502 -13.408258,3.531577 -22.588369,8.086713 -2.854548,1.416407 -2.86074,1.419812 -2.59775,1.682802 0.141144,0.141144 0.318327,0.07575 1.678388,-0.619283 8.944292,-4.570722 16.920351,-7.538746 22.80681,-8.487555 1.155903,-0.186319 1.100292,-0.169171 1.100292,-0.342738 0,-0.226654 -0.164563,-0.358367 -0.399371,-0.319939 z m 3.892949,6.845206 c 2.352506,-0.08194 4.652454,0.178157 6.898161,0.780355 0.727526,0.195044 0.741252,0.214133 0.103698,0.142685 -11.865605,-1.33067 -21.731096,2.820198 -35.42267,14.903235 -2.16554,1.911111 -1.991707,1.783123 -1.991707,1.467301 0,-0.437389 4.61175,-4.754563 7.830763,-7.330629 7.989805,-6.393981 15.524229,-9.717143 22.58175,-9.962947 z m 8.32207,0.961286 c 0.03124,-0.01936 0.09186,0.0065 0.134597,0.0581 0.06319,0.07615 0.05935,0.09415 -0.02059,0.09415 -0.117462,0 -0.194282,-0.102574 -0.114003,-0.152246 z m -4.868945,0.328029 c 1.619921,-7.5e-4 3.242157,0.111996 4.860855,0.33906 l 0.958343,0.134598 0.125034,0.33244 c 0.06856,0.183203 0.14207,0.405392 0.164013,0.49278 l 0.04045,0.158866 -0.965697,-0.03309 c -0.531158,-0.01793 -1.788082,-0.05982 -2.792657,-0.09341 -6.696722,-0.223565 -9.398425,0.146201 -14.116995,1.930663 -7.192,2.719878 -14.678089,7.62779 -21.573393,14.144207 -0.771748,0.729364 -0.785991,0.738444 -0.730341,0.460418 0.02163,-0.108097 0.03898,-0.317224 0.03898,-0.46483 v -0.268454 l 1.525407,-1.348153 c 5.626218,-4.97181 8.64837,-7.368493 11.981867,-9.501797 6.485419,-4.150385 13.464481,-6.280041 20.484132,-6.28329 z m -0.802418,1.800479 c 0.587715,8e-4 1.204775,0.01238 1.857847,0.03309 1.150896,0.03658 2.806337,0.08476 3.678921,0.107385 l 1.586452,0.04119 0.09046,0.320673 c 0.174989,0.621132 0.189507,0.751568 0.07869,0.709013 -0.05491,-0.02106 -0.46528,-0.10942 -0.911272,-0.196376 -5.11282,-0.996922 -11.321925,-0.118173 -17.965815,2.541853 -6.894801,2.76047 -16.511889,9.113446 -20.643734,13.637456 -0.337768,0.369834 -0.74941,0.828549 -0.91495,1.018654 l -0.301551,0.34568 0.04266,-0.597953 c 0.0571,-0.808796 0.01324,-0.739751 1.135596,-1.804157 7.104974,-6.738581 14.374409,-11.509311 21.719756,-14.253797 3.74303,-1.398537 6.432883,-1.908314 10.546927,-1.902712 z m 2.614667,1.153984 c 1.450466,0.03456 2.837582,0.198892 4.148898,0.496455 l 0.738433,0.167692 0.03678,0.22506 c 0.02013,0.123966 0.05138,0.306623 0.06987,0.405255 0.03164,0.168756 0.0232,0.176724 -0.145627,0.14342 -3.917614,-0.772624 -11.273598,0.221663 -16.957457,2.291788 -6.255968,2.278511 -10.052981,4.629334 -19.605958,12.137792 -1.608505,1.264246 -3.235896,2.535326 -3.616404,2.825016 -0.380509,0.28969 -0.731229,0.556678 -0.779619,0.593541 -0.07401,0.05642 -0.08356,-0.0095 -0.05737,-0.417758 l 0.03162,-0.484689 0.483952,-0.595011 c 2.913812,-3.585875 7.659637,-7.307931 14.2207,-11.152234 7.670268,-4.494207 15.146823,-6.786066 21.43218,-6.636327 z m -44.105198,17.77238 c -0.04935,0.0058 -0.101308,0.02972 -0.160338,0.0684 -0.22876,0.149884 -0.194763,0.311414 0.228002,1.074551 1.551945,2.801474 3.121352,4.241177 5.031488,4.615936 0.87591,0.171859 1.504811,0.0572 1.504811,-0.274338 0,-0.239748 -0.158462,-0.310759 -0.71416,-0.322145 -2.061792,-0.04043 -3.68939,-1.442179 -5.419826,-4.665948 -0.199814,-0.372283 -0.321972,-0.514075 -0.469977,-0.496458 z m 17.189137,35.657284 c -1.271502,-0.0139 -2.560739,0.40667 -2.285168,0.92157 0.106759,0.19949 0.314222,0.21277 0.665618,0.0427 1.61571,-0.78208 3.672099,-0.16639 4.754944,1.42317 0.267965,0.39335 0.408381,0.44627 0.619281,0.23536 0.491071,-0.49107 -1.05911,-1.98246 -2.547736,-2.45139 -0.361208,-0.11379 -0.783112,-0.16672 -1.206939,-0.17137 z m 1.210616,3.49137 c -0.213819,-0.0127 -0.45354,0.0568 -0.746522,0.17726 -14.983881,6.16067 -29.320454,13.57907 -42.987921,22.24416 -2.34289,1.4854 -2.35096,1.14909 0.09046,3.86132 1.82062,2.02258 4.30041,4.86808 4.30041,4.9344 0,0.15561 -2.319693,1.52836 -5.031488,2.978 -1.089642,0.58247 -2.244327,1.21113 -2.566124,1.3967 -0.321798,0.18557 -0.670432,0.35432 -0.7744713,0.3751 -0.5144779,0.1029 -0.6953387,0.63256 -0.4104035,1.2018 1.4939318,2.98455 0.4029777,8.79495 -1.8946223,10.09165 -0.4282426,0.24168 -0.517785,0.3774 -0.517785,0.78183 0,0.61199 -0.1048914,0.56845 3.0500771,1.27608 4.983665,1.11777 14.200326,3.25804 22.893598,5.31686 2.421406,0.57345 4.642578,1.09523 4.936609,1.15986 0.294031,0.0646 6.040064,1.42102 12.768106,3.0133 22.373585,5.29498 29.700383,7.01097 34.119382,7.99257 1.287539,0.28594 1.309231,0.28316 1.931397,-0.27214 0.286802,-0.25595 1.427571,-1.23873 2.534498,-2.1844 3.765965,-3.21731 7.17808,-6.26642 13.018911,-11.63251 7.85424,-7.21596 11.25397,-10.25055 15.346,-13.69777 2.20935,-1.86118 2.30593,-2.16584 0.82963,-2.61613 l -0.54647,-0.16623 v -0.34421 c 0,-0.18927 -0.0416,-0.44283 -0.0919,-0.56338 -0.0839,-0.20084 -0.0802,-0.24445 0.039,-0.51705 0.19782,-0.45235 0.37057,-3.61737 0.22064,-4.04299 -0.0966,-0.27439 -0.0952,-0.30371 0.0464,-0.72299 0.52249,-1.54807 0.28948,-4.43132 -0.35819,-4.43132 -0.1191,0 -0.64361,-0.22552 -1.36139,-0.58619 -9.28788,-4.66709 -25.682394,-4.34645 -36.656823,0.7171 -0.286306,0.13208 -0.501092,0.20617 -0.476597,0.16476 0.02449,-0.0414 0.261506,-0.40095 0.52661,-0.79875 3.34918,-5.02566 7.639129,-12.44804 10.488823,-18.14821 0.683689,-1.36757 0.633025,-1.93764 -0.170633,-1.92625 -0.546555,0.008 -7.489537,3.31258 -11.765634,5.60075 -0.708999,0.37939 -1.294227,0.68455 -1.300347,0.67886 -0.0061,-0.006 0.04194,-0.94456 0.106644,-2.08585 0.239098,-4.21765 0.213001,-4.63832 -0.29493,-4.85056 -0.270199,-0.11289 -0.304662,-0.0978 -1.548943,0.69578 -1.980719,1.26316 -6.931135,3.9254 -7.059969,3.7966 -0.02183,-0.0218 -0.07959,-0.34679 -0.128705,-0.72152 -0.272142,-2.07608 -1.070107,-5.52993 -1.445238,-6.25534 -0.292601,-0.56583 -0.802548,-0.41968 -5.464691,1.57027 l -1.318735,0.56265 -0.362595,-0.91274 c -0.916083,-2.30323 -1.324516,-3.07332 -1.965965,-3.11113 z m 43.814611,0.48911 c -0.10269,0.005 -0.20079,0.19586 -0.20079,0.56853 v 0.40084 h -0.46924 c -0.50768,0 -0.656,0.0925 -0.52956,0.32877 0.0491,0.0917 0.14345,0.11179 0.52882,0.11179 h 0.46998 v 0.45895 c 0,0.27324 0.0301,0.48972 0.075,0.5347 0.0415,0.0414 0.10683,0.0758 0.14489,0.0758 0.15963,0 0.21991,-0.16806 0.21991,-0.61046 v -0.45894 h 0.43247 c 0.7957,0 0.81407,-0.39459 0.0199,-0.42732 l -0.44645,-0.0184 -0.0184,-0.41554 c -0.0166,-0.37195 -0.12383,-0.55338 -0.22653,-0.54869 z m -44.200744,0.99658 c 0.181437,-0.0455 1.420232,2.57962 1.420232,3.00963 0,0.0581 -0.671625,0.39069 -1.871086,0.92672 -13.726544,6.13413 -26.602023,12.8382 -31.918796,16.61913 -1.147454,0.816 -1.150379,0.72248 0.09929,2.91548 5.136276,9.0132 9.854642,18.92493 13.511687,28.38329 h -7.36e-4 c 0.272811,0.70558 0.489504,1.28657 0.479541,1.29226 -0.0093,0.006 -0.208331,-0.0315 -0.442031,-0.0817 l -0.425112,-0.0912 -1.238565,-1.73575 c -6.905806,-9.67743 -16.316502,-21.39559 -22.891387,-28.5031 l -0.150776,-0.16327 1.150307,-0.72594 c 12.848281,-8.10624 26.054313,-15.0061 40.071702,-20.93645 1.136144,-0.48066 2.128693,-0.88971 2.205734,-0.90907 z m 34.251771,0.76638 c -0.406615,-0.0127 -0.467678,0.36677 0.122087,0.70681 1.130023,0.65151 1.854081,1.80181 1.984352,3.15378 0.02501,0.25943 0.07387,0.50762 0.108851,0.55088 0.212117,0.26217 0.551617,0.001 0.551617,-0.42364 0,-1.48827 -0.977685,-3.14663 -2.256483,-3.82822 -0.201006,-0.10715 -0.374891,-0.1554 -0.51043,-0.15961 z m -25.754654,0.85464 c 0.03686,0.0393 0.472009,1.68697 0.619282,2.34548 0.270815,1.21094 0.559995,2.99994 0.618548,3.82749 l 0.01691,0.24198 -1.225326,0.53102 c -1.530537,0.66323 -4.297283,1.76991 -7.919756,3.16776 -9.718667,3.75023 -14.163817,5.85657 -19.120534,9.05976 -1.036496,0.66983 -1.002973,0.50952 -0.542057,2.61688 1.415994,6.47402 2.21181,12.66888 2.494783,19.42355 0.0659,1.5756 0.05968,3.7094 -0.02942,10.14168 -0.01,0.71759 -0.03458,0.7205 -0.291253,0.0316 -3.457995,-9.27982 -8.507736,-20.0639 -13.781612,-29.43138 -1.196186,-2.12462 -1.199303,-1.76234 0.02354,-2.58376 5.658939,-3.80132 19.387397,-10.83513 32.02912,-16.41099 0.588058,-0.25938 1.309345,-0.57836 1.603368,-0.70901 1.549364,-0.68821 5.467461,-2.29136 5.504408,-2.25207 z m 41.398527,2.47861 -0.2052,0.57588 c -0.3972,1.11246 -0.70449,1.40992 -1.83505,1.77548 l -0.51558,0.16622 0.45306,0.14489 c 1.17248,0.37546 1.65176,0.86617 1.97185,2.01745 l 0.10811,0.38981 0.16622,-0.49425 c 0.39551,-1.18041 0.75474,-1.53692 1.92919,-1.91301 l 0.45233,-0.14489 -0.52881,-0.1699 c -1.13593,-0.36529 -1.54452,-0.79375 -1.89021,-1.98288 z m -31.135499,0.73916 c 0.03659,0.0366 -0.218028,5.41321 -0.268454,5.66916 -0.0162,0.0822 -0.204302,0.22193 -0.544263,0.40378 -2.623049,1.40306 -8.749644,5.08458 -13.02994,7.83003 -0.660904,0.4239 -1.363458,0.87386 -1.561446,0.99953 -0.217662,0.13821 -0.373434,0.28475 -0.393488,0.37142 -0.01825,0.0788 -0.132405,0.58252 -0.254478,1.11868 -2.510436,11.02591 -7.987098,21.55944 -15.596067,29.99843 -0.920173,1.02055 -1.055181,1.12251 -2.043927,1.54013 -0.155662,0.0658 -0.30725,0.13193 -0.336854,0.14709 -0.03003,0.0152 -0.0371,-0.0817 -0.01618,-0.21549 0.02092,-0.13379 0.06832,-1.3759 0.105179,-2.75956 0.233557,-8.76526 -0.719934,-18.6822 -2.586718,-26.90497 -0.101493,-0.44724 -0.184608,-0.8601 -0.184608,-0.91789 0,-0.22855 3.804777,-2.44285 6.618676,-3.85176 3.378641,-1.69168 6.233394,-2.90608 12.612182,-5.36466 8.856492,-3.41356 13.09013,-5.35588 16.865522,-7.73809 0.317149,-0.20007 0.59399,-0.34675 0.61487,-0.32583 z m 12.732067,0.74579 c 0.09329,0.0325 -2.440924,4.77242 -4.128305,7.72191 -2.16164,3.77848 -4.133375,6.96377 -6.52012,10.53442 l -1.681329,2.51612 -1.213559,0.97304 c -2.724478,2.18475 -6.908787,5.49656 -10.647689,8.42725 -7.983403,6.25769 -10.112994,7.93169 -12.515834,9.83718 -1.349073,1.06983 -2.665618,2.11933 -2.925043,2.33224 -0.259432,0.2129 -0.506121,0.40818 -0.548676,0.43393 -0.04256,0.0258 0.228241,-0.35788 0.602366,-0.85243 5.550572,-7.33725 9.748248,-16.19244 11.874486,-25.05078 0.157754,-0.65724 0.312557,-1.29874 0.34421,-1.42612 0.15126,-0.60846 11.691346,-7.5487 18.640259,-11.21033 2.854556,-1.50418 8.57863,-4.28538 8.719234,-4.23643 z m 10.077685,0.38907 c -0.01167,-0.01 -0.01756,0.008 -0.01913,0.0471 -0.0023,0.0572 -0.133402,0.50488 -0.291254,0.99512 -0.817187,2.53783 -1.718502,3.38436 -4.461482,4.19009 -0.38051,0.11176 -0.649111,0.21754 -0.597219,0.23462 0.05189,0.0171 0.476647,0.14791 0.943634,0.29125 2.59722,0.79723 3.603292,1.91772 4.343804,4.83585 0.06295,0.24801 0.09677,0.30573 0.128706,0.21991 0.02384,-0.0641 0.174664,-0.52664 0.334648,-1.02822 0.77316,-2.42401 1.70566,-3.32884 4.18641,-4.06211 0.74586,-0.2204 1.02993,-0.34053 0.80683,-0.34053 -0.23452,0 -1.7737,-0.54055 -2.37931,-0.83552 -1.31645,-0.64118 -2.0589,-1.63003 -2.646292,-3.5252 -0.222154,-0.71678 -0.314242,-0.99364 -0.349358,-1.02233 z m 7.273997,7.35638 c -0.0814,-0.003 -0.16518,0.167 -0.18976,0.51116 l -0.0316,0.44056 -0.50308,0.0309 c -0.48637,0.0304 -0.50308,0.037 -0.50308,0.18903 0,0.15195 0.0167,0.15782 0.50308,0.18828 l 0.50308,0.0316 0.0169,0.44056 c 0.009,0.24214 0.0307,0.47725 0.0471,0.52294 0.10947,0.30539 0.31414,0.0323 0.34494,-0.46042 l 0.0309,-0.50308 0.47218,-0.0316 c 0.73859,-0.0492 0.72803,-0.33603 -0.0132,-0.36407 l -0.48468,-0.0184 -0.0184,-0.45379 c -0.0141,-0.34539 -0.0929,-0.52078 -0.17431,-0.52367 z m -97.1802974,5.89642 c -0.1424638,0.0172 -0.2336691,0.15143 -0.4015775,0.51484 -1.0319297,2.23347 -0.6865078,5.0198 0.8715556,7.02614 0.309942,0.39914 0.4992466,0.47454 0.6965093,0.27728 0.161354,-0.16136 0.116084,-0.32251 -0.2074084,-0.73623 -1.3651988,-1.74592 -1.6774833,-4.24157 -0.7788839,-6.22224 0.2485994,-0.54803 0.2441475,-0.77681 -0.016181,-0.84214 -0.063709,-0.016 -0.1165266,-0.0234 -0.1640144,-0.0177 z m 91.5339374,2.31826 c 4.30564,0.008 8.38566,0.57012 11.80829,1.70046 1.53144,0.50576 4.12385,1.62944 4.07462,1.76664 -0.13117,0.36531 -11.24847,8.90793 -23.288558,17.89522 -3.286189,2.4529 -6.170434,4.60732 -6.409059,4.78803 -0.280224,0.21226 -0.458314,0.30857 -0.503076,0.27214 -0.07784,-0.0635 -1.969181,-0.37917 -3.402377,-0.56781 -11.538844,-1.51876 -23.662686,-0.25827 -34.495216,3.58626 -0.673288,0.23895 -1.239186,0.43456 -1.257688,0.43394 -0.01856,-3.9e-4 0.0651,-0.078 0.186078,-0.17284 0.121063,-0.0948 0.545819,-0.44278 0.943634,-0.773 1.93325,-1.60473 6.335281,-5.09298 14.569321,-11.54499 9.468753,-7.41957 14.805647,-11.66641 14.927506,-11.87964 0.278828,-0.48791 3.36143,-1.92784 6.038373,-2.8206 5.363756,-1.78882 11.272335,-2.69415 16.808152,-2.68381 z m 16.62869,4.67404 h 7.4e-4 c 0.014,0.0142 0.007,0.22775 -0.0162,0.47512 l -0.0427,0.45012 -0.85611,0.60973 c -3.5282,2.51552 -23.183824,17.53677 -28.528919,21.80214 -0.345909,0.27604 -0.678636,0.54348 -0.739167,0.595 -0.103087,0.0877 -0.109591,0.0692 -0.109591,-0.29713 0,-0.2152 -0.02801,-0.44298 -0.06178,-0.50603 -0.04735,-0.0885 -0.03666,-0.12126 0.04707,-0.14342 0.109021,-0.0289 9.391989,-6.94051 15.265837,-11.36625 5.35876,-4.03771 9.65186,-7.3515 13.10569,-10.11594 1.05046,-0.84079 1.92113,-1.51758 1.93508,-1.50334 z m -0.14121,1.67913 h 7.3e-4 c 0.0792,0 0.0223,0.23138 -0.14047,0.57809 -0.15916,0.33907 -0.23674,0.40925 -1.44745,1.3077 -4.94764,3.67154 -18.771523,14.38146 -26.510732,20.53855 -0.998259,0.7942 -1.868918,1.48303 -1.934338,1.53056 -0.113989,0.0827 -0.118415,0.0651 -0.118415,-0.41701 v -0.50308 l 1.178991,-0.93996 c 6.640772,-5.29225 28.672984,-22.09485 28.971684,-22.09485 z m -0.29273,1.63719 c 0.0982,0.004 0.27671,0.32023 0.25742,0.45601 -0.0131,0.0924 -0.21099,0.27869 -0.58177,0.54867 -4.73739,3.44948 -26.358709,20.03547 -29.061413,22.29345 -0.468145,0.39112 -0.471449,0.39228 -0.471449,0.10589 0,-0.32125 -0.06678,-0.2641 3.930459,-3.41635 11.082393,-8.73963 25.685473,-19.99765 25.926753,-19.98768 z m -97.442861,1.31139 c 0.03779,-0.006 0.06318,0.003 0.08384,0.0199 0.265993,0.22075 5.037255,6.02456 7.09895,8.63539 1.629284,2.06324 4.015704,5.15675 4.136396,5.36172 0.06642,0.11286 0.07444,0.11798 -0.684006,-0.43248 -6.364954,-4.61903 -11.815637,-7.46713 -17.842987,-9.32306 l -0.232415,-0.0713 1.829899,-0.97526 c 2.470139,-1.31616 3.622267,-1.97389 4.694632,-2.68085 0.574218,-0.37906 0.802337,-0.51753 0.915686,-0.53396 z m 97.592171,0.10447 h 7.3e-4 c 0.0317,0.001 0.0392,0.0285 0.0441,0.0676 0.0398,0.31812 -0.052,0.43285 -0.75461,0.93628 -3.22462,2.31071 -20.957471,16.01995 -28.133966,21.75065 -0.518877,0.41434 -0.993427,0.79547 -1.053958,0.84728 -0.102945,0.0881 -0.109591,0.0717 -0.109591,-0.25595 v -0.35009 l 0.392752,-0.34348 c 1.760886,-1.53673 22.915393,-17.81097 28.148673,-21.65503 1.06384,-0.78147 1.3707,-1.00223 1.46583,-0.99732 z m -0.0537,1.22385 c 0.0557,-4.6e-4 0.0522,0.2894 -0.006,0.47954 -0.024,0.0784 -0.88511,0.76431 -2.08512,1.66147 -5.87556,4.39269 -20.677518,15.83991 -26.698283,20.64742 -0.518871,0.41431 -0.993426,0.79621 -1.053957,0.84802 -0.102518,0.0877 -0.109591,0.0743 -0.109591,-0.19197 v -0.28611 l 1.493045,-1.19001 c 8.978919,-7.15529 28.165936,-21.96552 28.459786,-21.96836 z m -0.30596,1.51511 c 0.0122,0.0142 0.0403,0.12639 0.0625,0.24933 l 0.0405,0.22359 -0.77153,0.55898 c -3.78628,2.7443 -18.844754,14.38299 -27.123396,20.96366 -0.933969,0.7424 -1.733706,1.37739 -1.776945,1.41141 -0.06043,0.0475 -0.07797,-0.004 -0.07797,-0.22139 v -0.28316 l 1.493046,-1.19149 c 7.577477,-6.04557 28.047945,-21.83148 28.153825,-21.71093 z m 0.17578,1.12677 h 7.4e-4 c 0.0439,0 0.01,0.27113 -0.036,0.28536 -0.46469,0.14408 -20.846941,16.17403 -28.598792,22.49202 -0.5739,0.46776 -1.076381,0.87107 -1.116474,0.89583 -0.122571,0.0757 -0.09321,-0.56213 0.03163,-0.68695 0.490673,-0.49067 12.956153,-10.2574 20.398816,-15.98218 5.1806,-3.98486 9.19842,-7.00408 9.32013,-7.00408 z m -105.525899,0.66562 c 0.153867,-0.01 0.486452,0.0825 1.127507,0.26845 4.623551,1.34135 9.270081,3.67355 14.983403,7.52038 1.609358,1.08361 4.53497,3.15231 4.594605,3.24866 0.07105,0.115 -0.09379,0.027 -1.896829,-1.01276 -6.289182,-3.62685 -13.128779,-6.90796 -18.154099,-8.70894 -0.473744,-0.16977 -0.488758,-0.18146 -0.553089,-0.4332 -0.03635,-0.14241 -0.107746,-0.38538 -0.15813,-0.53912 -0.07277,-0.22213 -0.09723,-0.33368 0.05663,-0.34347 z m 0.3751,1.83284 c 0.09345,-0.0155 0.318862,0.078 0.81051,0.25889 5.397146,1.98602 12.404719,5.45636 19.750114,9.78055 0.540664,0.31829 0.887125,0.62824 1.08117,0.9679 0.06301,0.1103 0.228664,0.19649 -2.321206,-1.20105 -9.161878,-5.0214 -13.39789,-6.89787 -18.349005,-8.12791 l -0.928189,-0.2302 -7.35e-4,-0.32288 c -7.12e-4,-0.17731 -0.028,-0.50533 -0.06031,-0.72888 -0.03704,-0.25635 -0.0758,-0.38092 0.01765,-0.39642 z m 0.144156,2.02922 c 0.245355,0 2.906363,0.77322 4.248191,1.23415 3.892666,1.33711 7.140779,2.91095 16.059425,7.78221 2.198622,1.20088 2.005946,1.05431 2.760293,2.10056 0.130883,0.18161 0.226837,0.33024 0.214027,0.33024 -0.01352,0 -1.381997,-0.66835 -3.040514,-1.48496 -12.44209,-6.12612 -15.430751,-7.35279 -19.761882,-8.11024 l -0.64576,-0.1133 0.0353,-0.66487 c 0.03971,-0.73499 0.08096,-1.07382 0.130917,-1.07382 z m -0.273602,2.26163 0.228002,0.039 c 3.269001,0.55879 6.696888,1.75194 11.641336,4.05181 1.46104,0.67961 12.309507,5.99739 12.381239,6.06927 0.05919,0.0592 -0.02372,0.0255 -1.750466,-0.71417 -6.640433,-2.84464 -14.186381,-5.63669 -21.100473,-7.80722 -0.899111,-0.28226 -1.639599,-0.51871 -1.645292,-0.5244 -0.0058,-0.006 0.04708,-0.25927 0.117678,-0.56266 z m -0.423642,1.65264 c 0.07819,-0.11884 9.40836,3.05433 13.469028,4.58064 3.445186,1.29495 10.708647,4.252 10.89555,4.43573 0.136562,0.13421 -1.500112,-0.36608 -3.202324,-0.97893 -6.286689,-2.26346 -13.685505,-4.48038 -20.157575,-6.03985 -0.899381,-0.2167 -1.643466,-0.40186 -1.654852,-0.4104 -0.01092,-0.009 0.06313,-0.18227 0.164749,-0.38466 0.101579,-0.20242 0.249798,-0.55184 0.3295,-0.77667 0.07966,-0.22485 0.150231,-0.41732 0.155924,-0.42586 z m -1.0039439,2.11454 c 0.087338,-0.0406 0.5116059,0.0742 3.0147739,0.69578 4.887439,1.21375 9.653877,2.59094 14.245706,4.11505 0.985856,0.32723 1.750195,0.59417 1.698246,0.59355 -0.05189,-4.9e-4 -0.787507,-0.16638 -1.634994,-0.36921 -3.244862,-0.77656 -13.784514,-3.21456 -17.3715388,-4.01799 l -0.6104568,-0.13607 0.2772799,-0.34127 c 0.1526005,-0.18735 0.306706,-0.39451 0.3420028,-0.46041 0.018751,-0.035 0.00986,-0.0659 0.03898,-0.0794 z m 62.6556589,2.7294 c 3.90621,-0.0215 7.836731,0.26878 11.77593,0.87229 1.496141,0.22923 1.34649,0.17936 1.227534,0.40746 -0.05448,0.10447 -0.09488,0.34695 -0.09488,0.5678 l -7.36e-4,0.3854 -0.424377,-0.0889 c -4.950485,-1.04321 -12.0946,-1.32792 -18.569653,-0.73991 -6.096561,0.55362 -14.883251,2.15205 -19.497104,3.54728 -1.746589,0.52815 -1.639653,0.42659 0.314789,-0.30008 8.198007,-3.04809 16.674828,-4.60401 25.268495,-4.65125 z m 1.83137,1.62028 c 3.59804,0.0512 7.010484,0.39073 10.368938,1.01425 l 0.707542,0.13165 v 0.71637 0.71563 h -0.197111 c -0.108253,0 -1.685849,-0.14091 -3.506082,-0.31332 -13.719303,-1.29968 -17.591551,-1.24954 -29.095984,0.37805 -2.129475,0.30126 -1.867955,0.22324 1.572477,-0.47072 7.640792,-1.54119 14.153491,-2.25736 20.15022,-2.17191 z m -6.744443,1.89022 c 2.182163,0.009 4.447524,0.11528 7.097479,0.31332 1.581318,0.11813 9.656357,0.83031 10.39321,0.91642 l 0.330234,0.0383 v 0.49644 0.49572 l -0.29861,-0.009 c -0.164304,-0.004 -0.860756,-0.0589 -1.54747,-0.1214 -0.686713,-0.0625 -2.257523,-0.1861 -3.490635,-0.27435 -10.678658,-0.76417 -20.562072,-0.92241 -27.453636,-0.43909 -0.755993,0.0529 -1.386093,0.0848 -1.398903,0.072 -0.02902,-0.029 2.694535,-0.4129 4.754944,-0.67077 4.570566,-0.57205 7.976455,-0.83215 11.613387,-0.81786 z m -2.922837,1.71148 c 1.210491,0.006 2.256633,0.0188 2.941224,0.0397 5.781508,0.17572 14.896029,0.7241 17.503926,1.05323 l 0.29861,0.0383 v 1.09219 1.09295 l -0.141956,-0.009 c -0.07782,-0.004 -1.188417,-0.18919 -2.468304,-0.40967 -12.246647,-2.10961 -22.372406,-2.95985 -30.314692,-2.54625 -2.68841,0.14004 -2.515305,0.13364 -2.013036,0.0699 0.488804,-0.0621 2.492632,-0.21607 4.182732,-0.32068 0.846037,-0.0524 3.399617,-0.0878 6.083973,-0.10076 1.342178,-0.007 2.717026,-0.007 3.927517,-7.3e-4 z m -22.918609,0.328 c 0.02418,0.007 0.04539,0.0366 0.07428,0.0905 0.073,0.13635 0.04626,0.15115 -0.144892,0.0757 -0.102902,-0.0404 -0.105706,-0.0552 -0.0206,-0.12581 0.03994,-0.0332 0.06702,-0.0478 0.0912,-0.0404 z m 2.371956,0.34862 c 0.03458,0 0.02106,0.0268 -0.03089,0.0603 -0.05191,0.0335 -0.122813,0.0611 -0.157396,0.0611 -0.03458,0 -0.02032,-0.0275 0.03162,-0.0611 0.05192,-0.0334 0.122073,-0.0603 0.15666,-0.0603 z m 12.743099,0.1574 c 2.019701,-6e-4 4.037171,0.0262 4.993241,0.0808 5.850119,0.33498 10.868453,0.89829 17.704717,1.98582 2.514513,0.40005 5.787558,0.96198 5.825816,1.00027 0.01449,0.0151 0.01836,0.50453 0.0088,1.08853 l -0.01691,1.06204 -0.848756,-0.19564 c -5.887617,-1.35866 -28.538849,-4.46868 -34.589359,-4.74905 -0.394485,-0.0184 0.533261,-0.10973 1.915951,-0.18902 0.965234,-0.0552 2.986785,-0.0833 5.006479,-0.0838 z m -10.360112,0.59796 c 0.384435,4.5e-4 1.002054,0.0292 1.862996,0.0926 10.400167,0.76759 28.373112,3.18442 35.8647,4.8226 l 1.179726,0.25743 v 1.21723 c 0,1.40354 0.08318,1.28803 -0.754612,1.05028 -9.663028,-2.74224 -24.621867,-5.63238 -35.598453,-6.87757 -2.763511,-0.31345 -3.707655,-0.56402 -2.554357,-0.56264 z m 5.632382,1.48642 c 0.25046,0.0214 0.856294,0.10119 1.893887,0.24491 9.692005,1.34269 18.796995,3.18656 29.541692,5.98248 l 1.839461,0.47807 v 0.45747 c 0,0.25143 0.01725,0.50212 0.03824,0.55678 0.02661,0.0694 0.0027,0.0978 -0.07869,0.0949 -0.26035,-0.01 -9.689261,-2.20378 -23.262078,-5.41248 -5.119551,-1.21028 -9.500546,-2.24446 -9.735683,-2.2984 -0.382558,-0.0878 -0.487287,-0.12511 -0.236827,-0.10376 z" /><path
       id="path642-7"
       style="fill:#000000;stroke-width:0.0587158"
       d="m 183.9442,21.612862 c -0.48368,0.03627 -1.24056,0.20251 -2.60575,0.523213 -5.56995,1.30847 -10.63212,2.624148 -17.42323,4.529006 -1.42857,0.400699 -2.63318,0.714491 -2.67716,0.697616 -0.79712,-0.305882 -2.84915,1.695614 -3.44344,3.358304 l -0.12769,0.359107 -0.7141,0.188823 c -3.25542,0.861384 -7.29588,1.974284 -12.61956,3.47503 -2.03433,0.573471 -3.37899,0.924399 -3.451,0.901545 -0.40947,-0.129961 -1.87654,0.684382 -2.74926,1.52569 -2.36566,2.280482 -3.13375,6.042802 -2.18211,10.688071 0.34618,1.689795 1.25757,3.082281 2.01732,3.082281 0.046,0 0.89965,0.537151 1.89647,1.193361 14.49431,9.541882 27.14253,17.442482 32.37388,20.221919 1.35046,0.717503 1.02286,0.693613 3.17017,0.230704 4.69952,-1.013077 8.7183,-2.140396 18.5541,-5.205334 7.10882,-2.215188 10.88829,-3.341827 13.11324,-3.908293 1.15321,-0.293605 1.36528,-0.488562 1.13363,-1.04299 -0.16326,-0.39072 -0.37803,-0.438406 -1.12745,-0.25062 -0.34679,0.0869 -0.64779,0.136868 -0.66878,0.11124 -3.142,-3.847982 -3.54624,-8.754857 -1.0526,-12.775425 0.15774,-0.254408 0.28633,-0.485719 0.28633,-0.514286 0,-0.08271 0.16227,-0.144461 0.85141,-0.324088 1.25671,-0.327564 1.68958,-0.88922 1.08007,-1.402097 -0.19258,-0.162023 -0.19537,-0.159275 0.23346,-0.26916 0.87592,-0.224525 0.65591,-1.332811 -0.23895,-1.203661 -0.64908,0.09369 -0.63007,0.100424 -0.9709,-0.350867 -1.47801,-1.957064 -1.79539,-4.799164 -0.79923,-7.162917 0.2247,-0.533167 0.71934,-1.380125 0.8061,-1.380125 0.64906,0 1.24623,-0.414327 1.18444,-0.821895 -0.0171,-0.113034 -0.0395,-0.328451 -0.0488,-0.478581 -0.0308,-0.468539 -0.29063,-0.629066 -6.9123,-4.277014 -9.21259,-5.075352 -12.8816,-7.256219 -15.92087,-9.46313 -0.27259,-0.197909 -0.48308,-0.291696 -0.96677,-0.255427 z m 0.09,1.204349 c 0.0315,0 0.39601,0.240929 0.80953,0.53557 2.8219,2.010623 6.08871,3.945584 14.61696,8.656336 7.58171,4.187919 6.91083,3.672838 5.34953,4.103296 -1.67731,0.462431 -3.63798,1.053876 -9.35051,2.821361 -5.13188,1.587829 -7.63613,2.347011 -9.48578,2.874916 l -1.14805,0.327523 -0.61385,-0.345375 c -0.59275,-0.333834 -1.90515,-1.050691 -2.2487,-1.22838 -0.34898,-0.180518 -0.85901,0.153161 -0.85967,0.56235 -5.8e-4,0.363162 0.18325,0.513542 1.45291,1.191301 0.51983,0.277541 0.55717,0.316814 0.35293,0.378333 -1.79049,0.539469 -2.92276,4.954625 -1.97612,7.706041 0.0617,0.17911 0.1055,0.331223 0.0975,0.339195 -0.0267,0.02454 -3.741,-2.230301 -3.94743,-2.396337 -1.74463,-1.403219 -0.20927,-6.596436 2.55564,-8.644663 2.13096,-1.578591 4.67317,-0.91739 4.64368,1.207782 -0.0157,1.12318 1.07048,1.322777 1.22562,0.225215 0.3321,-2.349459 -2.30226,-4.19679 -4.81533,-3.376843 -3.15204,1.028443 -5.84976,5.320771 -5.56718,8.857517 0.0232,0.29577 0.0355,0.544033 0.0288,0.550676 -0.012,0.01249 -3.49566,-2.173474 -4.13557,-2.595458 l -0.3083,-0.203242 v -0.461416 c 0,-4.472471 5.38668,-9.916532 7.4053,-7.484259 0.17741,0.213763 0.75987,0.0496 0.90429,-0.254739 0.43972,-0.926654 -1.72768,-1.798112 -3.40499,-1.369138 -2.73383,0.699202 -5.71466,4.786165 -6.11238,8.381683 -0.0506,0.457365 0.22976,0.58388 -2.22673,-1.003165 -2.45001,-1.582834 -2.32321,-1.453444 -2.36612,-2.418309 -0.1265,-2.844279 2.59492,-6.7934 5.13391,-7.449928 0.99622,-0.257597 1.84052,-0.0047 2.71769,0.815716 0.85218,0.796972 1.78681,0.350877 1.181,-0.563722 -0.98755,-1.490927 -3.28146,-1.986867 -5.14766,-1.11234 l -0.49163,0.230707 v -0.164104 c 0,-0.345969 -0.33724,-0.572225 -2.93191,-1.965134 -1.37379,-0.737548 -1.34589,-0.697192 -0.54655,-0.799235 1.01207,-0.129164 2.04454,0.233725 2.96967,1.043675 0.58915,0.515805 1.27233,0.366853 1.27233,-0.277397 0,-0.639053 -2.17334,-1.98888 -3.22167,-2.000839 -0.3012,-0.0035 0.027,-0.102975 2.95731,-0.898797 5.61306,-1.524357 14.72883,-3.796373 15.23151,-3.796373 z m -31.54307,4.493988 -0.0975,0.350868 c -0.22403,0.80441 -0.86432,1.414683 -1.51264,1.441922 -0.0573,0.0024 0.0687,0.06496 0.27945,0.138698 0.77802,0.272332 1.06797,0.533697 1.29568,1.168643 0.16865,0.470377 0.13439,0.470746 0.28082,-0.0054 0.21358,-0.694752 0.51743,-1.019682 1.14187,-1.2222 0.40712,-0.132034 0.44291,-0.178799 0.17578,-0.227961 -0.74586,-0.137362 -1.22131,-0.588449 -1.48792,-1.411024 z m 55.98638,0.760785 -0.068,0.264352 c -0.29117,1.129456 -0.52945,1.631587 -0.97433,2.052336 -0.34695,0.328125 -1.04392,0.695726 -1.69803,0.895365 l -0.40854,0.124274 0.49643,0.132525 c 1.61489,0.429411 2.21377,0.988399 2.71013,2.530229 0.15919,0.494505 0.1653,0.491934 0.33644,-0.156551 0.37561,-1.423296 0.94425,-2.021986 2.40596,-2.53023 l 0.55204,-0.191569 -0.50055,-0.133206 c -1.59022,-0.422157 -2.09898,-0.892185 -2.66138,-2.458819 z m -47.49484,0.688003 c 0.0959,-0.01359 0.18376,-0.002 0.26024,0.03776 l 0.19088,0.09956 -0.44425,0.377646 c -0.73621,0.626738 -1.53915,1.618646 -2.03242,2.511003 -0.33294,0.602211 -0.3465,0.556478 -0.0962,-0.308296 0.37856,-1.306711 1.44987,-2.622519 2.12168,-2.717679 z m 1.59984,0.85554 c 0.15645,-0.07127 1.84848,0.798863 4.49674,2.313254 l 0.44906,0.257486 -0.55136,0.515659 c -1.88898,1.767285 -3.31231,4.637202 -3.31231,6.680216 0,0.504817 0.22526,0.602575 -1.99603,-0.863093 -1.04954,-0.692532 -1.97428,-1.292066 -2.05507,-1.33206 -0.54518,-0.270296 -0.60272,-2.147418 -0.10922,-3.553307 0.54684,-1.557509 2.0852,-3.56573 3.07815,-4.018155 z m -5.27537,2.847452 c 0.0868,-0.03328 0.11454,1.65492 0.0282,1.708334 -0.0262,0.01617 -1.22213,0.349691 -2.65726,0.740872 -3.83502,1.045375 -3.69442,0.994507 -3.6151,1.310775 0.0496,0.197792 6.03772,4.090938 6.29228,4.090938 0.0904,0 0.68574,-0.147008 1.32313,-0.326834 l 1.15903,-0.326836 0.28975,0.208048 c 0.64866,0.466031 1.65949,0.798307 2.07019,0.68045 0.29928,-0.08582 1.79987,0.894272 2.16769,1.41583 0.42185,0.598194 1.20249,1.09241 1.98505,1.25653 0.31085,0.06519 0.5792,0.214257 1.79829,0.997673 l 1.43367,0.92077 0.1593,0.490254 c 0.56502,1.736907 1.85889,2.531408 3.33495,2.046841 0.34943,-0.114707 0.22852,-0.168307 1.7056,0.747054 1.03282,0.640061 1.33747,0.862055 1.80103,1.311462 0.8133,0.788521 1.05138,0.936708 1.42955,0.89193 l 0.30074,-0.03501 1.40966,0.841121 c 3.87471,2.312012 4.50565,2.576889 4.83593,2.033797 0.0759,-0.124368 0.12516,-0.154529 0.18814,-0.114668 0.19067,0.12062 0.89018,0.01791 2.809,-0.411978 0.30305,-0.0679 0.55922,-0.11504 0.56853,-0.105739 0.0391,0.03906 -8.57322,2.652981 -11.66172,3.539574 -1.71687,0.492828 -1.93492,0.543947 -1.93492,0.449741 0,-0.06531 -1.01795,-0.661061 -2.02624,-1.185808 -0.45208,-0.235297 -1.08852,-0.582182 -1.41445,-0.771085 -0.88952,-0.515511 -1.37395,-0.419112 -1.37395,0.273966 0,0.417785 0.2163,0.572189 2.42929,1.730992 0.83877,0.439245 0.86404,0.470269 0.44768,0.558229 -0.11307,0.02384 -0.27615,0.09322 -0.36185,0.153806 -0.0857,0.06059 -0.18752,0.109858 -0.22658,0.109858 -0.24155,0 -1.19979,0.939244 -1.61428,1.581994 -1.72161,2.669753 -1.99985,7.241133 -0.60835,10.000068 0.2211,0.438381 0.35278,0.494841 -1.76875,-0.766964 -6.51731,-3.876243 -19.2873,-11.989728 -28.46628,-18.086502 -0.59124,-0.392713 -1.13358,-0.713408 -1.20573,-0.713408 -1.26607,0 -1.99508,-5.882758 -1.08349,-8.743538 0.57316,-1.798735 1.83034,-3.347382 3.16399,-3.897308 l 0.21011,-0.08651 2.22605,1.172764 c 2.49251,1.312813 5.57287,2.975682 6.50238,3.510049 0.91361,0.525234 1.39041,0.416667 1.39041,-0.31585 0,-0.420045 -0.94641,-0.98677 -6.3877,-3.824525 -0.97829,-0.510198 -1.75801,-0.947133 -1.73237,-0.971581 0.076,-0.07245 9.68374,-2.755583 13.34327,-3.726338 0.69304,-0.183825 1.29459,-0.347282 1.33617,-0.363226 z m -20.99849,3.950865 c -0.5339,0.03415 -1.62421,1.451668 -2.14023,2.888649 -0.39339,1.09548 -0.54555,2.950822 -0.25886,3.151629 0.0718,0.05023 0.14481,0.09132 0.16274,0.09132 0.21835,0 0.29387,-0.19234 0.29387,-0.75186 7.2e-4,-1.728947 0.63758,-3.339823 1.81546,-4.59149 0.43887,-0.466333 0.47344,-0.54297 0.31858,-0.714093 -0.0502,-0.05557 -0.11533,-0.07903 -0.19156,-0.07415 z m 68.3155,1.093801 c 0.17322,0.0105 0.0498,0.187987 -0.0934,0.549303 -0.12729,0.321202 -0.2319,0.612391 -0.23278,0.646805 -8.6e-4,0.03447 -0.20632,0.108741 -0.45659,0.165477 -3.02612,0.686358 -9.75445,2.56851 -15.42788,4.315466 -1.25946,0.38781 -3.11542,0.966738 -4.12459,1.286743 -1.00917,0.320006 -1.83525,0.566089 -1.83467,0.546557 0.001,-0.116567 0.38517,-0.666092 0.63445,-0.909097 l 0.29319,-0.285638 1.48793,-0.405111 c 2.01731,-0.549461 3.73444,-1.05788 7.44855,-2.204767 7.71106,-2.381106 8.93985,-2.756915 10.62146,-3.252563 1.04167,-0.307012 1.51109,-0.463648 1.68431,-0.453175 z m -0.51772,1.833986 c 0.012,0.01196 -0.009,0.229458 -0.046,0.483387 l -0.0672,0.461416 -0.89057,0.227961 c -5.60806,1.435478 -10.7306,2.936137 -18.36871,5.381114 -1.50721,0.482466 -2.75937,0.877511 -2.78222,0.877511 -0.0522,0 0.012,-0.407488 0.12503,-0.797863 l 0.0865,-0.297998 0.77657,-0.247872 c 5.78227,-1.844918 11.27796,-3.49303 15.39699,-4.617583 2.02611,-0.553164 5.74025,-1.49957 5.76974,-1.470073 z m 5.40583,0.915277 c -0.068,-0.0069 -0.13783,0.0101 -0.19843,0.06042 -0.10431,0.08619 -0.11108,0.35804 -0.012,0.457295 h 6.8e-4 c 0.0996,0.09961 0.39999,0.06113 0.47652,-0.06111 0.1249,-0.199506 -0.0625,-0.435736 -0.26642,-0.456609 z m -5.60015,0.595994 c 0.009,0.01036 0.0333,0.220211 0.0549,0.466221 l 0.0392,0.447684 -1.22014,0.304176 c -4.61011,1.14897 -10.96728,3.015818 -18.51221,5.436731 -1.24331,0.398931 -2.3069,0.743117 -2.36337,0.764905 -0.0921,0.03572 -0.10231,-0.0072 -0.10231,-0.432577 v -0.471714 l 1.4529,-0.469655 c 6.55718,-2.118512 11.46491,-3.603627 16.13236,-4.881934 1.88959,-0.517518 4.49731,-1.189215 4.5187,-1.163837 z m 0.12423,1.446729 0.10431,0.542437 c 0.12782,0.666399 0.32298,0.546705 -1.71933,1.051229 -4.92992,1.217891 -10.58291,2.838002 -18.15516,5.20259 -1.18322,0.369488 -2.16638,0.671524 -2.18484,0.671524 -0.0404,0 -0.13653,-0.347238 -0.19021,-0.688689 -0.0474,-0.301723 -0.43361,-0.142781 3.05825,-1.257219 7.49996,-2.393688 17.20913,-5.216108 18.87956,-5.488228 z m 5.16964,1.018957 c -0.0694,0.01143 -0.12982,0.05035 -0.17921,0.120846 -0.12808,0.182883 -0.13353,0.171282 0.29387,0.645431 1.33307,1.47954 1.33708,3.354877 0.008,5.007588 -0.86024,1.070403 -1.38627,3.161111 -0.95923,3.812852 0.11268,0.171802 0.33213,0.198635 0.47309,0.05768 0.074,-0.07406 0.0926,-0.238825 0.0934,-0.836315 0.001,-1.29368 0.15972,-1.749856 0.93932,-2.719052 0.92906,-1.154976 1.23912,-2.31317 0.97225,-3.630209 -0.25673,-1.267066 -1.15629,-2.538569 -1.64172,-2.45882 z m -4.83045,0.653672 c 0.36293,0.139273 0.27909,0.65424 -0.12091,0.740872 -3.13534,0.679077 -11.80223,3.178152 -19.4467,5.607703 -2.52266,0.801728 -2.17943,0.756135 -2.41008,0.323402 -0.2308,-0.433024 -0.5801,-0.258281 2.3167,-1.158344 8.58941,-2.668864 19.26896,-5.664056 19.66094,-5.513633 z m 0.53489,1.11028 c 0.0395,0.05603 0.32547,0.593716 0.32547,0.611786 0,0.01262 -0.0403,0.02198 -0.0893,0.02198 -0.11812,0 -3.26117,0.778238 -5.10715,1.264772 -4.09011,1.07799 -10.04254,2.819218 -15.45946,4.52214 -1.1986,0.376845 -1.10951,0.368613 -1.38973,0.126334 l -0.22316,-0.192256 0.78551,-0.25062 c 8.28217,-2.639565 14.45984,-4.444995 19.71518,-5.762193 0.7867,-0.197193 1.43596,-0.351241 1.4426,-0.34194 z m -71.20346,0.164103 c -0.39991,0 -0.48919,0.819574 -0.10444,0.957162 0.14595,0.05222 0.17165,0.04534 0.29389,-0.07691 0.23895,-0.238968 0.10085,-0.880259 -0.18952,-0.880259 z m 71.88871,0.949608 c 0.0538,0.08536 0.18523,0.04102 -2.30569,0.777264 -0.82807,0.244749 -3.10029,0.949855 -5.04948,1.566203 -6.76634,2.139572 -9.47857,2.901568 -12.42523,3.492883 -0.57297,0.114973 -1.06724,0.233637 -1.09793,0.263666 -0.0749,0.07329 -0.10218,0.06452 -0.22795,-0.07279 -0.13743,-0.149928 -0.5073,-0.01535 3.01429,-1.095174 8.19859,-2.51391 17.94185,-5.170044 18.09199,-4.932059 z m -1.65065,3.188021 c 0,0.0089 -0.13075,0.290353 -0.28975,0.625518 -0.15905,0.335167 -0.37457,0.859799 -0.47927,1.166584 -0.1047,0.306799 -0.19518,0.565363 -0.2005,0.573335 -0.005,0.0082 -1.26278,0.328961 -2.79389,0.713408 -7.44644,1.869702 -14.94324,4.033933 -25.41833,7.337321 -1.43708,0.453179 -2.89716,0.914456 -3.24432,1.025138 -0.34715,0.110668 -0.63102,0.188133 -0.63102,0.171657 0,-0.732609 1.43244,-2.207785 2.3778,-2.448521 3.26539,-0.831528 6.30818,-1.736174 17.29207,-5.140793 6.28149,-1.947046 8.37072,-2.578092 13.01986,-3.933012 0.20183,-0.05886 0.36735,-0.09993 0.36735,-0.09063 z m -1.14735,2.974478 c 0.0137,0.0137 -0.001,0.14324 -0.0343,0.287697 -0.0328,0.144444 -0.0921,0.500343 -0.13115,0.790998 l -0.0707,0.528018 -0.49712,0.127715 c -9.70106,2.486007 -16.73847,4.548367 -29.23873,8.569134 -1.04953,0.337584 -2.06028,0.66438 -2.24597,0.725766 -0.26304,0.0869 -0.33782,0.09423 -0.33782,0.03364 0,-0.165836 0.18759,-1.054381 0.298,-1.41171 l 0.116,-0.375586 1.09929,-0.351554 c 9.06395,-2.895926 17.10665,-5.298573 23.49989,-7.020785 2.53244,-0.682185 7.50822,-1.937883 7.54263,-1.903336 z m 5.54247,2.145717 c -0.19798,0.04662 -0.32261,0.325552 -0.13458,0.513598 0.0508,0.05076 0.14126,0.09269 0.20118,0.09269 0.29021,0 0.3948,-0.400627 0.14693,-0.563035 -0.0735,-0.04812 -0.14754,-0.05879 -0.21353,-0.04326 z m -5.87068,0.01923 c 0.0456,0 0.0659,0.242532 0.0659,0.784818 v 0.785504 l -1.10068,0.273965 c -7.44808,1.852784 -16.42988,4.488622 -28.55072,8.378937 -1.40478,0.450884 -2.58451,0.829894 -2.62225,0.843181 -0.10537,0.03569 -0.13734,-0.111784 -0.13663,-0.634446 0.001,-0.890643 0.004,-0.895865 0.52045,-1.057409 0.24619,-0.07692 1.82186,-0.581567 3.50114,-1.121953 9.24081,-2.973771 16.9934,-5.290073 23.39825,-6.989885 2.40883,-0.639279 4.84108,-1.262712 4.92452,-1.262712 z m 0.12091,2.065381 0.0343,0.214915 c 0.031,0.194669 0.24036,1.277238 0.3028,1.565515 0.0237,0.108941 -0.16717,0.164796 -2.63528,0.775205 -7.46621,1.846512 -15.75872,4.228968 -27.36149,7.860532 -1.28184,0.401201 -2.34432,0.729201 -2.36132,0.729201 -0.0405,0 -0.18731,-0.528646 -0.26092,-0.93931 -0.12822,-0.716544 -0.12769,-0.704481 -0.0329,-0.704481 0.0494,0 1.49154,-0.450201 3.20517,-1.00042 11.40868,-3.662999 19.59887,-6.074133 27.39377,-8.063774 z m 5.97093,1.222201 c -0.26213,0 -0.39049,0.653246 -0.1751,0.891245 0.24979,0.276022 0.48958,0.08365 0.48958,-0.392066 0,-0.388407 -0.0695,-0.499179 -0.31448,-0.499179 z m -5.49716,1.174822 c 0.0504,0 0.48135,1.122624 0.44494,1.15903 -0.0139,0.014 -1.10386,0.297773 -2.42243,0.631013 -7.56192,1.911087 -15.1276,4.11271 -26.24503,7.637377 -1.8779,0.595368 -3.44027,1.082815 -3.47229,1.082815 -0.0633,0 -0.69742,-1.215299 -0.65504,-1.255158 0.0462,-0.04344 7.18582,-2.258631 10.68327,-3.315047 5.23373,-1.580837 10.50375,-3.082637 14.76596,-4.207664 1.64872,-0.435192 6.81571,-1.732366 6.90062,-1.732366 z m 0.74843,1.689794 c 0.009,0.0294 0.14554,0.275925 0.30143,0.547244 l 0.28358,0.493 -0.24169,0.04806 c -4.27786,0.853625 -17.0192,4.425254 -28.43744,7.971767 v 6.85e-4 c -3.49514,1.085593 -3.14304,1.030094 -3.63021,0.56647 l -0.38589,-0.36666 0.98668,-0.311729 c 0.54281,-0.171577 2.01785,-0.639027 3.27729,-1.038184 8.38075,-2.656015 15.88293,-4.867372 21.98861,-6.481094 2.87859,-0.760805 5.83971,-1.483508 5.85764,-1.429563 z m 0.74568,1.35472 c 0.0387,-0.02016 0.10696,0.05632 0.28976,0.293877 0.19035,0.247871 0.25406,0.370054 0.20118,0.38932 -0.0424,0.01547 -0.55304,0.162319 -1.13431,0.326149 -1.79765,0.506647 -3.65082,1.068163 -8.22033,2.491778 -10.49982,3.271176 -14.33588,4.386744 -18.37763,5.341975 -0.61358,0.145029 -1.53837,0.352306 -2.05508,0.460729 l -0.94,0.197062 -0.17577,-0.187449 c -0.13022,-0.138624 -0.24906,-0.198221 -0.45525,-0.228648 -0.46262,-0.06828 -0.38226,-0.100065 2.5838,-1.021017 10.96756,-3.405364 19.55213,-5.824874 26.92616,-7.589315 1.0705,-0.256145 1.28893,-0.326145 1.3252,-0.424337 0.009,-0.02576 0.0194,-0.04341 0.0323,-0.05012 z m -10.46903,52.449545 c -0.39903,-0.008 -0.80668,0.0308 -1.7413,0.1051 -9.24438,0.73455 -17.1014,1.63665 -25.38468,2.91406 -1.14112,0.17599 -2.09605,0.31997 -2.1217,0.31997 -0.0256,0 -0.12237,0.0765 -0.2149,0.17029 -0.13412,0.13584 -0.29513,0.20103 -0.78893,0.31928 -5.4228,1.29911 -7.93139,8.60422 -4.6279,13.47647 0.34272,0.50554 0.35038,0.47363 -0.0947,0.4161 -2.86042,-0.36941 -4.82168,1.18575 -5.80957,4.6066 -1.21309,4.20062 -0.0692,7.54411 2.94564,8.60826 l 0.4257,0.15038 -0.38794,0.29112 c -5.13137,3.8564 -4.75102,13.17927 0.68732,16.85813 l 0.58638,0.39618 -0.48613,0.23896 c -3.58887,1.7631 -4.16394,6.89342 -1.13432,10.1216 0.20167,0.2149 0.39801,0.44955 0.43601,0.52183 0.10205,0.19429 0.2319,0.24609 2.09147,0.82739 12.8789,4.02599 28.21325,7.53786 47.73585,10.93251 0.77973,0.13553 0.96443,0.13727 1.17756,0.007 0.17503,-0.10696 0.18241,-0.10696 0.31448,0 0.21128,0.17107 0.36807,0.14395 2.43616,-0.42295 9.34569,-2.56185 19.152,-5.67583 28.10718,-8.9255 1.33228,-0.48346 2.1727,-0.75873 2.31874,-0.75873 0.12596,-1.3e-4 0.29863,-0.0466 0.38313,-0.10297 0.0845,-0.0563 0.26221,-0.17505 0.39482,-0.26367 0.76376,-0.51055 0.337,-1.4497 -0.52252,-1.15011 -0.19339,0.0674 -0.20134,0.0633 -0.47447,-0.24169 -1.7642,-1.96969 -1.45818,-6.53216 0.60356,-9.00652 0.47882,-0.57467 0.29171,-1.21327 -0.355,-1.21327 -0.17044,0 -0.24032,-0.0246 -0.24032,-0.0845 0,-0.0465 -0.13441,-0.23815 -0.29868,-0.42571 -3.2551,-3.71707 -2.58021,-11.54638 1.09723,-12.72599 0.4561,-0.14629 0.53638,-0.26456 0.58501,-0.86652 l 0.0405,-0.51086 -0.18744,-0.18744 c -0.18744,-0.18748 -0.18789,-0.18726 -0.64612,-0.149 l -0.45867,0.0377 -0.20187,-0.22315 c -1.46284,-1.61922 -2.01329,-4.83539 -1.36158,-7.95804 0.2392,-1.14614 0.45351,-1.72061 1.03062,-2.76367 0.10643,-0.19228 0.11799,-0.26288 0.0687,-0.44769 -0.0441,-0.16551 -0.0396,-0.24577 0.0193,-0.32615 0.20472,-0.27999 0.10949,-0.52372 -0.4099,-1.04436 -0.98899,-0.9912 -1.43834,-1.88069 -1.81271,-3.59039 -0.53415,-2.43945 0.57216,-6.20006 2.50208,-8.50528 0.39018,-0.46611 0.40502,-0.50421 0.38588,-0.9757 -0.0256,-0.63088 0.0785,-0.58815 -2.78909,-1.14186 -16.44549,-3.17549 -33.85042,-6.12281 -42.13225,-7.13476 -0.90076,-0.11015 -1.2908,-0.16456 -1.6898,-0.17235 z m 0.0309,1.22082 1.25722,0.14969 c 4.60522,0.54848 12.33457,1.75385 21.68993,3.38234 8.98369,1.5638 20.42745,3.69168 20.24252,3.7641 -0.23337,0.0913 -3.66777,0.53099 -9.32168,1.19336 -7.56109,0.88581 -11.1512,1.36248 -13.99762,1.85802 -1.3207,0.22997 -2.02066,0.31293 -2.14915,0.25474 -0.10377,-0.047 -3.50729,-0.6545 -6.04783,-1.07938 -6.6883,-1.11851 -13.66666,-2.11016 -29.17764,-4.14586 -9.13285,-1.19862 -12.1352,-1.60163 -12.16775,-1.63418 -0.0133,-0.0133 0.10815,-0.0411 0.26917,-0.0625 0.21263,-0.0282 0.33965,-0.0856 0.46415,-0.21011 0.16834,-0.16833 0.21151,-0.17786 2.48353,-0.52459 8.39318,-1.28083 16.2767,-2.17164 25.246,-2.85363 z m 56.04749,2.00016 c -0.082,0.004 -0.16682,0.17212 -0.1902,0.49986 l -0.0295,0.41061 -0.46964,0.0295 c -0.7382,0.0461 -0.72555,0.31384 0.0158,0.33988 l 0.48407,0.0171 v 0.4621 c 0,0.31468 0.0235,0.47241 0.0735,0.493 0.20889,0.0862 0.24913,0.0143 0.26641,-0.47377 l 0.0171,-0.48133 0.45249,-0.0171 c 0.44355,-0.0167 0.45309,-0.0201 0.47103,-0.17577 l 0.0186,-0.15862 -0.45867,-0.0178 -0.45867,-0.0171 -0.0171,-0.42915 c -0.0133,-0.32589 -0.0925,-0.48544 -0.17441,-0.48132 z m -87.22182,2.2391 h 6.9e-4 c 0.0585,-0.0106 0.10324,-0.005 0.12901,0.0185 0.0947,0.0845 2.37628,0.40623 9.57299,1.3506 14.43652,1.89438 16.36644,2.15304 21.2553,2.85019 6.03818,0.86106 15.94577,2.43635 16.07811,2.55633 0.0106,0.009 -0.11055,0.19794 -0.26916,0.41884 -2.41313,3.36147 -2.81428,8.04549 -1.01141,11.80728 0.2732,0.56993 0.32462,0.71872 0.24583,0.71341 -0.0548,-0.004 -0.37708,-0.0559 -0.71616,-0.1168 -4.60499,-0.82498 -35.19564,-5.44316 -45.17747,-6.82029 l -1.81613,-0.25062 -0.044,-0.16342 c -0.0241,-0.0898 -0.19967,-0.33003 -0.39001,-0.5335 -2.38745,-2.5516 -2.38256,-7.34868 0.009,-10.20262 0.60789,-0.7253 1.72302,-1.55575 2.13267,-1.628 z m 92.53497,2.5261 c -0.0307,-0.007 -0.10271,0.15522 -0.18607,0.4319 -0.3049,1.01241 -0.69029,1.39953 -1.72825,1.73511 l -0.49163,0.1586 0.40375,0.13181 c 1.10051,0.35932 1.4787,0.72689 1.81201,1.76121 0.0573,0.17762 0.11746,0.34634 0.13389,0.3749 0.0165,0.0286 0.10085,-0.15916 0.18744,-0.41748 0.34383,-1.02475 0.68891,-1.35677 1.78249,-1.71657 l 0.40032,-0.13181 -0.51704,-0.17371 c -1.00629,-0.33815 -1.78111,-1.24715 -1.78111,-2.08941 0,-0.0417 -0.005,-0.0623 -0.0158,-0.0646 z m -17.05725,1.67675 c 0.16684,0.0298 0.0433,0.16569 -0.1332,0.45113 -0.15765,0.25493 -0.29492,0.48879 -0.30555,0.51908 -0.0106,0.0303 -0.62522,0.11919 -1.36708,0.19775 -4.03654,0.42745 -15.53825,2.0778 -22.50152,3.22853 -1.26794,0.20953 -2.3501,0.39799 -2.40458,0.41885 -0.10896,0.0419 -0.0622,-0.0343 0.46279,-0.75393 0.15604,-0.21385 0.28366,-0.41182 0.28426,-0.44012 0.004,-0.19233 0.139,-0.22665 2.40664,-0.60836 2.51046,-0.42257 6.44526,-0.94005 12.50626,-1.64516 4.2082,-0.48956 7.45937,-0.89604 9.44115,-1.17962 0.98635,-0.14114 1.444,-0.21787 1.61083,-0.18815 z m 9.27293,0.0769 c -0.0159,0.0237 -0.0359,0.0812 -0.0618,0.17509 -0.83271,3.01152 -2.10916,4.28628 -4.79748,4.79062 -0.19439,0.0365 -0.28092,0.14144 -0.11666,0.14144 0.20188,0 1.77862,0.5556 2.24734,0.79168 1.34367,0.67677 2.02613,1.70573 2.66686,4.02296 0.0519,0.18785 0.0803,0.23039 0.0989,0.14694 0.62644,-2.81958 1.78134,-4.07613 4.43082,-4.82151 0.70555,-0.19851 0.70597,-0.19984 -0.0145,-0.40099 -2.62594,-0.73338 -3.79137,-2.00494 -4.4164,-4.81807 -0.009,-0.0417 -0.0211,-0.0518 -0.0371,-0.0282 z m -10.0495,1.52912 c 0,0.0868 -0.35668,0.81847 -0.39893,0.81847 -1.44221,0 -23.54636,3.21614 -25.83717,3.75929 -0.26897,0.0638 -0.50005,0.116 -0.5136,0.116 -0.0478,0 -0.023,-0.0654 0.17783,-0.46416 l 0.20324,-0.40236 0.42846,-0.0969 c 2.99539,-0.67763 25.94017,-3.97736 25.94017,-3.73046 z m -27.06899,1.07183 0.4264,0.0796 c 0.23447,0.0438 0.44802,0.0868 0.47445,0.0947 0.0264,0.008 -0.0364,0.12091 -0.13938,0.24925 -2.90225,3.61991 -3.32617,8.42424 -1.08419,12.28449 0.23545,0.40537 0.23929,0.40142 -0.25543,0.30416 -0.31004,-0.061 -0.3243,-0.0793 -0.76695,-0.96471 -1.85023,-3.70062 -1.43603,-8.38516 1.02856,-11.6315 z m 26.45102,0.27535 c 0.0569,0 -0.11002,0.79377 -0.23071,1.09654 -0.003,0.005 -0.5322,0.0664 -1.17756,0.1339 -4.81479,0.50334 -22.3553,3.11353 -24.67952,3.67277 -0.72195,0.17367 -0.67029,0.17023 -0.63375,0.0433 0.31656,-1.102 0.22756,-0.99951 1.02993,-1.18238 2.5704,-0.58587 24.26313,-3.7641 25.69161,-3.7641 z m -50.34984,0.23482 c -2.9072,0.001 -4.01686,3.881 -1.56414,5.46763 0.56609,0.3662 0.67891,0.38579 8.70028,1.49273 9.0702,1.2517 8.72139,1.22566 9.68216,0.71478 2.27495,-1.20968 1.92173,-4.71533 -0.54862,-5.4436 -0.47107,-0.13887 -15.73065,-2.23212 -16.26968,-2.23154 z m 49.94748,1.42613 c 0.0173,0.0171 -0.003,0.26458 -0.046,0.54999 l -0.0776,0.51909 -0.46966,0.044 c -1.75291,0.16342 -4.55909,0.53455 -11.39118,1.50785 -5.87958,0.83759 -12.55167,1.88229 -13.89394,2.17524 -0.7968,0.17391 -0.72882,0.24722 -0.60286,-0.64612 l 0.0288,-0.20667 0.6667,-0.15862 c 2.98532,-0.70937 25.54917,-4.02122 25.78568,-3.7847 z m -0.149,1.56345 -0.0171,0.42846 -0.0165,0.42778 -1.20366,0.13181 c -4.67083,0.5107 -21.15911,2.92783 -24.35062,3.56978 -0.39468,0.0793 -0.74473,0.1442 -0.77795,0.1442 -0.0355,0 -0.0611,-0.16612 -0.0611,-0.40305 v -0.40306 l 0.57471,-0.12224 c 3.01951,-0.64293 17.72772,-2.81589 24.29157,-3.58901 0.549,-0.0647 1.12437,-0.13274 1.27919,-0.15106 z m 17.97389,0.74363 c -0.0959,0.004 -0.18813,0.18189 -0.18813,0.53077 v 0.3742 h -0.43326 c -0.45424,0 -0.6013,0.0713 -0.53008,0.2568 0.0296,0.0771 0.1261,0.0954 0.49986,0.0954 h 0.46348 v 0.46004 c 0,0.25297 0.0183,0.47766 0.0399,0.49918 0.21774,0.21775 0.37215,-0.0106 0.37215,-0.55273 v -0.4058 h 0.43395 c 0.34678,0 0.4418,-0.0197 0.47103,-0.0962 0.0696,-0.18131 -0.0769,-0.2568 -0.49849,-0.2568 h -0.40099 l -0.0178,-0.39 c -0.0155,-0.34829 -0.11493,-0.51874 -0.2108,-0.51497 z m -17.99037,0.61522 0.0412,0.41266 c 0.0514,0.51193 0.21327,0.43806 -1.3252,0.6111 -4.13243,0.46479 -15.34174,2.08261 -21.54573,3.10975 -1.46893,0.24319 -2.80914,0.47955 -2.97861,0.52526 -0.16945,0.045 -0.3189,0.0656 -0.33232,0.044 -0.0547,-0.0885 -0.17245,-0.77167 -0.1387,-0.80542 0.31329,-0.3133 17.56917,-2.87726 26.03561,-3.86847 z m 0.19706,1.43092 c 0.0213,0.0347 0.0567,0.16013 0.0789,0.27878 l 0.0405,0.2156 -0.25543,0.0336 c -0.14038,0.0186 -0.75692,0.0885 -1.37051,0.15517 -4.11785,0.4472 -20.06786,2.78097 -23.69214,3.4668 -0.33908,0.0642 -0.65942,0.12928 -0.71204,0.14487 -0.0909,0.0268 -0.33333,-0.41715 -0.26504,-0.48544 0.34779,-0.34781 26.00828,-4.08222 26.17569,-3.80943 z m -78.57099,0.35428 c 0.2705,-0.0142 0.56272,-0.012 0.88026,0.005 0.36291,0.0193 0.75867,0.0581 1.19131,0.11334 7.924,1.01149 49.25012,7.23735 49.46477,7.452 0.012,0.012 -0.15607,0.28191 -0.37285,0.6008 -1.87821,2.76294 -2.13323,7.29573 -0.64954,11.54498 0.14373,0.41174 0.24416,0.7449 0.22383,0.74224 -0.0203,-0.003 -0.12928,-0.029 -0.24238,-0.057 -0.45496,-0.11294 -5.72202,-1.1596 -9.42399,-1.87312 -18.6713,-3.59867 -38.8389,-7.16429 -40.5228,-7.16429 -0.0814,0 -0.2126,-0.051 -0.29113,-0.11268 -0.0785,-0.0618 -0.33384,-0.14411 -0.56715,-0.18332 -3.35581,-0.56396 -4.5433,-3.49854 -3.14614,-7.77402 0.74867,-2.29108 1.56236,-3.19439 3.45581,-3.29376 z m 78.8628,0.65024 0.17167,0.4058 c 0.21125,0.50071 0.38149,0.42328 -1.36296,0.61934 -1.82647,0.20529 -2.35742,0.27595 -7.32977,0.97295 -6.49384,0.91031 -9.28176,1.32612 -13.5932,2.02762 -1.38863,0.22593 -2.75826,0.4577 -3.04383,0.51497 -0.51708,0.10377 -0.51942,0.1035 -0.59874,-0.0178 -0.12995,-0.19871 -0.33272,-0.68693 -0.29937,-0.72028 0.28253,-0.28253 22.44941,-3.53139 25.83237,-3.78607 z m 0.41198,1.3554 c 0.19215,-0.0211 0.87464,0.71401 0.74775,0.80543 -0.012,0.009 -0.4981,0.0624 -1.07938,0.11878 -3.34603,0.32413 -15.1632,1.99881 -21.99893,3.1173 v -6.9e-4 c -1.47493,0.24135 -2.74339,0.45449 -2.8186,0.47309 -0.13465,0.0334 -0.71263,-0.67644 -0.62347,-0.76559 0.2476,-0.24761 19.76725,-3.08649 25.77263,-3.74832 z m -0.35361,1.4433 c 0.0323,0.0106 -5.2208,0.85467 -11.67338,1.87518 -6.45257,1.02052 -11.77183,1.86786 -11.82033,1.88274 -0.17431,0.0538 -0.45763,-0.0211 -0.58225,-0.1538 l -0.12703,-0.13527 2.39496,-0.39137 c 6.65786,-1.08734 21.49658,-3.18125 21.80803,-3.07748 z m -74.72311,0.0466 c -1.11431,0 -2.10611,0.638 -2.62774,1.69049 l -0.24925,0.50261 6.9e-4,0.76765 c 8.3e-4,1.11513 0.3307,1.80783 1.14599,2.408 0.61561,0.45319 0.47335,0.42538 8.77374,1.70559 4.26427,0.65771 7.81889,1.20743 7.89968,1.22152 3.44207,0.59968 4.68394,-4.75645 1.34235,-5.78966 -0.43617,-0.13488 -15.84527,-2.5062 -16.28546,-2.5062 z m 76.11148,1.0272 c 0.008,0.007 -0.047,0.15438 -0.12357,0.32889 -0.0765,0.1745 -0.18636,0.46234 -0.24376,0.63995 -0.0574,0.17762 -0.10936,0.3298 -0.11467,0.33644 -0.005,0.007 -0.62924,0.0919 -1.3863,0.18882 -5.15759,0.65948 -14.50393,2.11478 -21.3686,3.32672 -1.37196,0.24222 -2.59361,0.46234 -2.71492,0.48957 l -0.22041,0.0494 0.11467,-0.15997 c 0.0627,-0.0882 0.15869,-0.1975 0.21423,-0.24308 0.0555,-0.0456 0.29653,-0.317 0.53488,-0.60286 l 0.43395,-0.51978 0.4518,-0.0213 c 0.24855,-0.012 5.84214,-0.87664 12.43005,-1.92256 6.5875,-1.04584 11.98409,-1.89684 11.99266,-1.89029 z m -118.67976,0.25268 c -0.0448,0.14766 -0.0741,0.23874 -0.1257,0.40717 0.0769,-0.13022 0.13021,-0.25502 0.18676,-0.3804 -0.0211,-0.009 -0.0401,-0.0179 -0.0611,-0.0268 z m 118.02265,1.61083 c 0.11799,0.11799 -0.1897,1.10328 -0.35224,1.12813 -0.0991,0.0151 -0.72222,0.097 -1.38424,0.18196 -5.01716,0.64374 -21.16137,3.45141 -24.65274,4.28731 -0.46384,0.11108 -0.85325,0.20187 -0.86653,0.20187 -0.0784,0 0.49096,-0.97119 0.74705,-1.27438 0.36634,-0.43371 0.16605,-0.37537 3.0555,-0.90086 6.95539,-1.26497 23.28849,-3.78874 23.4532,-3.62403 z m -27.48988,1.29087 c 0.14538,-0.0344 1.28976,0.22244 1.38835,0.31173 0.0566,0.0512 0.17677,0.11294 0.26779,0.13732 0.16372,0.0437 0.15641,0.0546 -0.75666,1.0272 -2.98037,3.17475 -3.42576,6.58378 -1.41514,10.83501 0.17406,0.36801 0.31654,0.67809 0.31654,0.69006 0,0.0348 -0.19497,0.0136 -0.3907,-0.0433 -0.21292,-0.0616 -0.37597,-0.40132 -0.74293,-1.5504 -1.08697,-3.40354 -1.0203,-7.12264 0.17234,-9.64027 0.22945,-0.48437 1.05557,-1.74254 1.16041,-1.76739 z m 27.17334,0.33919 h 6.9e-4 c 0.0555,0 0.0609,0.32204 0.0106,0.73537 l -0.0357,0.29457 -0.85348,0.10443 c -3.81733,0.46724 -21.18609,3.82772 -25.8358,4.99867 -0.45604,0.1148 -0.84593,0.20873 -0.86652,0.20873 -0.0547,0 0.026,-0.4309 0.18126,-0.96883 0.21434,-0.74335 0.24897,-0.8171 0.34743,-0.73539 0.0666,0.0553 0.26204,0.0262 0.92421,-0.13732 3.62926,-0.89605 24.5511,-4.49974 26.12693,-4.50016 z m -0.0106,1.51951 v 0.58158 0.58225 l -0.60148,0.07 c -4.02815,0.47198 -21.39131,3.55483 -25.99648,4.61553 -0.46825,0.10789 -0.89794,0.21389 -0.95441,0.2362 -0.0921,0.0363 -0.10231,-0.003 -0.10231,-0.3701 0,-0.38817 0.007,-0.4105 0.13181,-0.40784 0.0727,0.001 0.50231,-0.0919 0.95441,-0.20805 2.33393,-0.59938 12.93681,-2.76119 18.61247,-3.79501 3.82558,-0.69684 5.84095,-1.02914 7.70672,-1.27164 z m 0.0412,1.67331 c 0.0191,0.0177 0.18081,1.06345 0.16686,1.07939 -0.007,0.008 -0.44635,0.0686 -0.97639,0.13388 -4.41962,0.5455 -21.96162,3.68316 -25.62432,4.58326 v -6.9e-4 c -0.38752,0.0953 -0.76277,0.19822 -0.83426,0.22865 -0.0715,0.0307 -0.1422,0.0364 -0.15655,0.0137 -0.0332,-0.0537 -0.21285,-0.92009 -0.21285,-1.02652 0,-0.28712 14.27229,-2.97701 23.75051,-4.47613 1.53016,-0.24201 3.8575,-0.56281 3.887,-0.53557 z m -78.79482,1.4076 c 0.14932,0.009 0.33414,0.032 0.58569,0.0611 0.77683,0.0897 4.71999,0.67838 4.75972,0.71066 0.009,0.007 -0.13221,0.26101 -0.31311,0.56441 -0.74871,1.25568 -1.47637,2.9758 -1.87588,4.43356 -1.03834,3.78857 -0.85126,8.45134 0.43877,10.92909 0.12184,0.23413 0.192,0.42287 0.15586,0.42021 -0.53862,-0.045 -3.30796,-0.72835 -3.67621,-0.90704 -5.81238,-2.82028 -6.57926,-12.20624 -1.284,-15.71969 0.63436,-0.42083 0.76118,-0.5189 1.20916,-0.49231 z m 78.89787,0.21497 c 0.78024,0 0.49003,0.81188 -0.32545,0.91047 -3.10952,0.37596 -12.57651,2.07963 -20.51579,3.692 -2.96617,0.6024 -4.75509,0.98204 -5.44291,1.1549 -0.37756,0.095 -0.6984,0.17235 -0.71341,0.17235 -0.0314,0 -0.4025,-1.00772 -0.37765,-1.02514 0.62715,-0.43942 25.54962,-4.90458 27.37521,-4.90458 z m -72.84655,0.68731 c 0.11002,0.007 0.28132,0.0318 0.5438,0.0769 0.3699,0.0636 0.69056,0.116 0.71341,0.116 0.0229,2.1e-4 -0.11413,0.29725 -0.30486,0.66054 -2.39256,4.55758 -3.13922,11.78068 -1.61426,15.61875 0.0472,0.11892 0.0602,0.11918 -0.44768,0.003 -0.53898,-0.12331 -0.98344,-0.80247 -1.36914,-2.09147 -1.32878,-4.44087 -0.37195,-10.408 2.30088,-14.35056 0.0191,-0.0282 0.0679,-0.0396 0.17785,-0.0329 z m 1.85938,0.33233 c 0.19904,-0.0764 24.90072,4.41163 30.60033,5.55963 l 0.30143,0.0605 -0.33302,0.65779 c -2.44869,4.83973 -3.23407,10.56339 -2.1718,15.8316 0.0679,0.33659 0.13665,0.64715 0.15311,0.69007 h 6.9e-4 c 0.0163,0.0428 0.007,0.0761 -0.0206,0.0735 -0.0276,-0.003 -6.88088,-1.46805 -15.22875,-3.25668 -8.34789,-1.78862 -15.19527,-3.2535 -15.2164,-3.25462 -0.0658,-0.004 -0.51271,-1.93054 -0.63375,-2.73211 -0.5995,-3.96938 -0.0703,-8.07319 1.50097,-11.64111 0.39859,-0.90509 0.94921,-1.95061 1.0478,-1.98847 z m 71.54198,0.30624 h 6.9e-4 c 0.16844,0.009 0.15575,0.0826 0.22933,0.23413 0.0703,0.14477 0.12769,0.27458 0.12769,0.28839 0,0.0322 -0.2054,0.0636 -1.14461,0.17646 -3.4594,0.41538 -20.73522,3.79201 -25.40598,4.9657 -0.86763,0.21803 -0.78669,0.23365 -0.98874,-0.19362 l -0.17303,-0.36598 0.13114,-0.0488 c 1.44957,-0.54286 21.65295,-4.37354 25.9079,-4.91215 0.79819,-0.10098 1.14715,-0.15393 1.31558,-0.14419 z m -87.22596,0.69212 c -0.54449,-0.13666 -1.75924,2.78658 -2.11412,5.08655 -0.40547,2.62779 0.36893,6.83629 1.52088,8.26426 0.0753,0.0932 0.3519,0.0953 0.44425,0.003 0.1249,-0.1249 0.0764,-0.33073 -0.21561,-0.9139 -1.83015,-3.65447 -1.65464,-8.28902 0.44631,-11.77638 0.23529,-0.39047 0.21042,-0.58994 -0.0817,-0.66328 z m 87.85422,0.29044 c 0.0367,0.0225 0.0783,0.0873 0.16685,0.2211 0.20442,0.30889 0.7555,0.16198 -4.58256,1.22494 -9.39814,1.87142 -16.41443,3.38742 -20.8138,4.49742 -0.82623,0.20847 -1.52797,0.37902 -1.55933,0.37902 -0.0654,0 -0.57577,-0.93206 -0.53351,-0.97432 0.0498,-0.0498 1.37919,-0.3592 3.85955,-0.89743 8.79545,-1.90859 19.50502,-3.95414 22.34086,-4.26671 0.4844,-0.0534 0.92717,-0.12052 0.98324,-0.14968 0.0703,-0.0365 0.10204,-0.0569 0.1387,-0.0343 z m 0.13181,1.80103 c 0.0186,0 -0.0736,0.11267 -0.20462,0.24993 -0.13101,0.13724 -0.30942,0.34589 -0.39618,0.46348 -0.12995,0.17621 -0.20663,0.2204 -0.43463,0.25336 -2.02927,0.29304 -17.45257,3.79492 -25.88319,5.87686 -0.84297,0.20817 -1.5526,0.37902 -1.57719,0.37902 -0.0838,0 0.5405,-0.86232 0.78002,-1.07732 0.41059,-0.36853 7.3028,-1.97871 17.36692,-4.0566 2.72586,-0.56278 10.28629,-2.08873 10.34887,-2.08873 z m -1.11921,1.52432 c -0.31156,0.7271 -0.43491,0.94846 -0.54174,0.97158 -0.0664,0.0144 -0.49064,0.0942 -0.94275,0.17783 -3.17068,0.58584 -16.03461,3.51444 -23.86792,5.43331 -3.20357,0.78476 -2.93603,0.72299 -2.93603,0.67701 0,-0.16736 0.43695,-0.86994 0.57402,-0.92283 1.34932,-0.52003 27.81487,-6.57139 27.71442,-6.3369 z m -39.76682,1.12882 c 0.0178,-0.0197 1.08556,0.16816 1.08556,0.19088 0,0.007 -0.14734,0.34111 -0.32752,0.74224 -2.48188,5.52597 -3.13794,10.16843 -2.20134,15.57482 0.0904,0.52179 0.16192,0.9518 0.15793,0.95578 -0.004,0.004 -0.0336,-2.6e-4 -0.0659,-0.009 -0.0323,-0.009 -0.26146,-0.0593 -0.50948,-0.11188 l -0.45112,-0.0962 -0.11945,-0.53969 c -1.0344,-4.65743 -0.56328,-9.91862 1.28126,-14.30387 0.24431,-0.58081 1.07822,-2.3225 1.1501,-2.40182 z m 1.59298,0.31242 0.20119,0.0199 c 0.20737,0.0205 8.12796,1.5782 8.26083,1.62457 0.05,0.0174 0.008,0.1136 -0.13047,0.29456 -2.37846,3.11596 -3.23166,12.74353 -1.52363,17.19457 0.049,0.12769 0.44679,0.20429 -4.66428,-0.89673 l -4.54206,-0.97845 -0.0158,-0.2623 c -0.008,-0.14429 -0.0708,-0.57924 -0.13938,-0.96677 -0.92956,-5.25452 -0.27628,-9.73195 2.23635,-15.32488 z m 37.51537,0.10164 c 0.038,0.038 -0.14419,0.92215 -0.20531,0.9963 -0.0186,0.0224 -0.45625,0.12357 -0.97295,0.22452 -3.28846,0.64274 -12.57785,2.74178 -20.81516,4.70411 -1.50166,0.35773 -3.53992,0.85392 -4.5297,1.10203 l -1.79966,0.45112 0.1751,-0.50193 c 0.0965,-0.27592 0.20628,-0.53243 0.24375,-0.5699 0.32701,-0.32631 27.6996,-6.61059 27.90393,-6.40625 z m -0.31242,1.57169 h 6.8e-4 c 0.0286,0 0.0387,0.0726 0.0219,0.16136 -0.0167,0.0888 -0.0465,0.33542 -0.0666,0.54793 l -0.0371,0.38658 -0.74499,0.13048 c -2.36511,0.41416 -12.62588,2.71705 -20.9724,4.70684 -1.92147,0.45807 -4.20188,1.00966 -5.06802,1.22632 -1.47525,0.36902 -1.57275,0.3866 -1.54285,0.2726 0.0174,-0.067 0.0745,-0.30843 0.12835,-0.53627 l 0.0982,-0.41402 0.71066,-0.18883 c 4.95718,-1.31303 26.69743,-6.29296 27.47204,-6.29296 z m -28.05155,0.10843 0.77794,0.18951 0.77864,0.1895 -0.10297,0.1593 c -0.0566,0.0876 -0.28056,0.39304 -0.49711,0.67907 -2.79166,3.68749 -3.76404,10.33121 -2.33387,15.94629 0.063,0.24726 0.11454,0.4647 0.11467,0.48408 0,0.019 -0.0198,0.0315 -0.044,0.0288 -0.5388,-0.0735 -0.84831,-0.99857 -1.2476,-3.72291 -0.68692,-4.68678 0.46882,-11.67453 2.2542,-13.62615 z m 27.84419,1.54972 c 0.1577,0.0193 0.13389,0.13128 0.13389,0.36116 0,0.57904 0.10802,1.5195 0.26366,2.29403 0.0777,0.38648 0.13575,0.70888 0.12769,0.71685 -0.008,0.008 -0.43545,0.0958 -0.95098,0.19637 -4.31899,0.84277 -25.52254,5.82673 -27.82977,6.54151 -0.16147,0.05 -0.31424,0.0914 -0.33988,0.0921 -0.0254,3.5e-4 -0.0388,-0.18959 -0.0295,-0.42159 l 0.0171,-0.42159 0.49919,-0.13802 c 4.1791,-1.15608 25.62534,-6.04662 28.02409,-6.39045 0.59544,-0.0853 0.50447,-0.53437 -0.0969,-0.4779 -1.51014,0.14183 -16.9439,3.62544 -26.20726,5.91532 -1.16899,0.28897 -2.14027,0.52527 -2.15808,0.52527 -0.0444,0 -0.0294,-0.52439 0.0199,-0.70106 0.0461,-0.16521 -0.148,-0.11028 3.73939,-1.05603 8.50716,-2.06969 20.7498,-4.84056 23.7759,-5.38111 0.96852,-0.1729 1.08707,-0.22891 0.98051,-0.46279 -0.053,-0.11639 -0.11162,-0.149 -0.26572,-0.149 -0.97434,0 -24.76133,5.38293 -27.88128,6.30944 -0.15583,0.0462 -0.28357,0.0601 -0.28357,0.0308 0,-0.0292 0.0295,-0.2498 0.0652,-0.49026 l 0.0652,-0.43738 0.65436,-0.17851 c 3.5925,-0.98002 22.11351,-5.23791 26.45308,-6.08149 0.72656,-0.14124 1.06587,-0.21492 1.22356,-0.19568 z m 0.69144,3.87739 c 0.0452,0.0784 0.36519,1.04024 0.34606,1.04024 -0.75425,0 -18.85596,4.17224 -27.26743,6.28473 -1.14644,0.2879 -2.14444,0.54024 -2.21712,0.56097 -0.12198,0.0351 -0.13128,0.0195 -0.13181,-0.21835 -2.7e-4,-0.141 -0.0171,-0.39201 -0.0371,-0.55754 l -0.0364,-0.30074 0.19843,-0.0288 c 0.10896,-0.0157 0.87182,-0.20318 1.6953,-0.41678 6.82939,-1.77145 27.35439,-6.52961 27.45006,-6.36369 z m 0.58637,1.52226 c 0.008,0.009 0.0676,0.12184 0.13247,0.24993 l 0.11813,0.23345 -1.21122,0.24514 c -3.6481,0.73843 -21.45351,5.23572 -27.88263,7.04275 h -6.9e-4 c -0.39544,0.11121 -0.74367,0.20187 -0.77383,0.20187 -0.0543,0 -0.13494,-0.48492 -0.14557,-0.88026 l -0.005,-0.20598 2.14366,-0.53695 c 9.19485,-2.30575 27.48317,-6.50978 27.62447,-6.34995 z m -0.83768,1.23525 c 0.12184,0.0406 -5.89554,1.74536 -17.98008,5.09341 -4.21429,1.16759 -8.30246,2.30587 -9.0841,2.52955 -1.69787,0.48585 -1.52075,0.4768 -1.6026,0.0824 -0.0914,-0.44024 -0.0886,-0.44396 0.47378,-0.59875 8.41801,-2.31655 27.86059,-7.21741 28.193,-7.10661 z m 1.61152,0.0893 c 0.0365,0.0137 0.0667,0.0486 0.10776,0.11122 0.1249,0.19068 0.24893,0.13458 -1.3252,0.60079 -1.85321,0.54883 -3.59557,1.09705 -9.00926,2.83303 -2.51891,0.80772 -5.18768,1.66326 -5.93042,1.90128 -4.16777,1.33551 -9.30812,2.90461 -11.94116,3.64463 -0.85167,0.23938 -1.58345,0.43463 -1.62664,0.43463 -0.0684,0 -0.12742,-0.15786 -0.3543,-0.95029 -0.0372,-0.12981 -0.38216,-0.0274 6.90544,-2.04958 16.1257,-4.47458 21.26619,-5.92833 23.02748,-6.50995 0.067,-0.0221 0.10975,-0.0295 0.14626,-0.0158 z m -79.08597,0.56718 c 0.42945,-0.0274 44.94714,9.3654 46.22732,9.75356 0.0684,0.0207 0.0199,0.10271 -0.195,0.33164 -1.62754,1.73356 -2.19725,7.33707 -1.01553,9.98565 0.0686,0.15365 -0.008,0.14343 -2.95937,-0.39961 -17.58777,-3.2366 -30.29905,-6.18963 -41.39688,-9.61693 -2.8724,-0.88707 -2.9522,-0.91576 -3.08228,-1.09792 -0.0646,-0.0904 -0.29107,-0.3777 -0.50329,-0.63857 -2.80473,-3.44752 -1.18425,-8.05543 2.92503,-8.31782 z m 79.81998,0.90291 -0.2369,0.4319 c -0.26602,0.48399 -0.20381,0.44893 -1.2119,0.67014 -2.53697,0.55669 -10.73638,3.10605 -24.95416,7.75823 -2.22826,0.72911 -4.08849,1.33963 -4.1342,1.35677 -0.0905,0.0339 -0.08,0.0106 0.15381,-0.33438 0.074,-0.10949 0.13457,-0.28234 0.13457,-0.38452 v -0.18607 l 1.10067,-0.30212 c 3.53217,-0.97036 7.23834,-2.11146 16.54364,-5.09341 7.21231,-2.31124 11.76105,-3.73107 12.40877,-3.87328 z m -88.82993,0.48544 c -0.0623,-0.0186 -0.13727,-0.0154 -0.2204,0.0165 -0.58655,0.22508 -0.90551,3.07668 -0.4058,3.62883 0.18082,0.19983 0.59908,0.0158 0.52733,-0.23208 -0.14372,-0.49674 -0.17446,-0.70117 -0.17578,-1.18581 -0.003,-0.59299 0.14428,-1.21658 0.38795,-1.6534 0.14794,-0.2652 0.0736,-0.51803 -0.11334,-0.57403 z m 12.10596,0.96403 c -0.23632,-0.0226 -0.48644,-0.0237 -0.74911,6.9e-4 -3.88121,0.35889 -3.9424,5.68123 -0.0713,6.19203 0.49766,0.0654 0.54073,0.0655 0.98462,10e-4 3.91062,-0.56549 3.3806,-5.85524 -0.16411,-6.19409 z m 75.90961,0.0302 c 0.0668,0 -0.10058,0.6489 -0.31034,1.20366 -0.0351,0.0926 -0.20496,0.16048 -0.80062,0.31722 -2.22374,0.58516 -10.20285,3.0516 -22.3642,6.91436 -3.00332,0.95393 -5.91821,1.87737 -6.47767,2.05164 -0.55946,0.17428 -1.02876,0.31654 -1.04298,0.31654 -0.0368,0 0.28206,-0.6223 0.52802,-1.03063 l 0.20805,-0.34469 0.95579,-0.30212 c 0.52561,-0.16606 2.48843,-0.80584 4.36146,-1.42132 13.26363,-4.35854 24.09621,-7.70466 24.94249,-7.70466 z m -0.46209,1.88685 c 0.0106,0.012 -0.007,0.19692 -0.0377,0.41129 l -0.057,0.39001 -0.36117,0.0687 c -2.39569,0.45619 -10.76476,3.03792 -25.69779,7.92851 -1.76001,0.5764 -3.5789,1.16901 -4.04218,1.31695 -0.80293,0.25684 -0.94824,0.29496 -0.94824,0.24924 0,-0.0417 0.22372,-0.66105 0.28976,-0.80198 0.0558,-0.11919 0.11506,-0.14927 0.31517,-0.15724 0.1355,-0.005 0.90717,-0.22107 1.71451,-0.47858 16.35508,-5.21682 28.7164,-9.04507 28.8247,-8.92686 z m -0.21629,1.34305 c 0.0529,-3.9e-4 0.0735,0.1373 0.0735,0.49437 v 0.49507 l -0.33783,0.0672 c -2.93785,0.58549 -10.19982,2.81438 -25.43823,7.80697 -6.3465,2.07933 -5.63685,1.91276 -5.51913,1.29224 0.12463,-0.65745 0.17127,-0.7749 0.27053,-0.67565 0.11799,0.11799 -0.332,0.2534 5.57131,-1.67537 15.29648,-4.99778 24.40251,-7.79827 25.37988,-7.80491 z m 0.0384,1.53805 c 0.0991,0.0149 0.0967,0.10244 0.12503,0.31584 l 0.0399,0.29732 -0.43188,0.0763 c -2.2394,0.39634 -9.91423,2.74234 -23.39003,7.15057 -2.32515,0.76059 -4.95157,1.61623 -5.83704,1.90128 -1.72184,0.55431 -1.7278,0.55694 -1.69803,0.75872 0.0514,0.34773 -0.38906,0.46856 6.47834,-1.78113 14.80065,-4.84855 23.86773,-7.6154 24.95555,-7.6154 0.009,0 0.09,0.21835 0.17714,0.48477 0.0872,0.26642 0.25687,0.68478 0.37765,0.92968 0.20528,0.41605 0.21198,0.44337 0.0947,0.42091 -0.6664,-0.12742 -7.9364,2.03083 -19.73372,5.85832 -2.32882,0.75556 -8.84144,2.87599 -11.3905,3.70849 -0.33365,0.10896 -0.35573,0.51703 -0.0282,0.51703 0.0573,0 2.35902,-0.73708 5.1154,-1.6383 15.60032,-5.10069 22.84903,-7.33593 25.533,-7.87426 0.6555,-0.13141 0.68177,-0.14347 0.7134,-0.31517 0.0166,-0.0898 0.0506,-0.068 0.18196,0.11679 l 0.16136,0.22728 -0.19088,0.0672 c -0.10497,0.0369 -0.81142,0.29245 -1.57032,0.56784 -8.67228,3.1469 -18.93017,6.39967 -27.71374,8.78817 l -6.8e-4,-6.9e-4 c -1.08184,0.29419 -2.02436,0.55895 -2.09491,0.58845 -0.16355,0.0683 -0.44557,-0.38021 -0.75186,-1.19612 l -0.13458,-0.3591 0.21354,-0.009 c 0.11759,-0.005 2.43362,-0.73618 5.14629,-1.62388 15.78256,-5.16474 22.73108,-7.30206 25.74654,-7.91889 0.40605,-0.083 0.52008,-0.22753 0.34537,-0.43808 -0.32871,-0.39604 -7.73881,1.8202 -25.36202,7.5852 -2.40805,0.78773 -4.75826,1.55215 -5.22251,1.69872 -0.46426,0.14655 -0.86418,0.29849 -0.88849,0.33782 -0.0674,0.10896 -0.0909,0.0553 -0.19639,-0.45317 -0.13446,-0.64788 -0.19146,-1.78941 -0.0845,-1.68843 0.16476,0.15541 -0.0561,0.22117 6.54289,-1.9404 14.10434,-4.62011 21.75289,-6.9723 24.29501,-7.47191 0.14934,-0.0294 0.25862,-0.0529 0.33919,-0.0652 v 6.9e-4 c 0.0605,-0.009 0.10497,-0.012 0.13801,-0.008 z m -31.2739,2.80763 h 6.8e-4 c 0.17402,10e-4 1.11923,0.20535 1.16453,0.25062 0.0151,0.0151 -0.18736,0.35438 -0.44974,0.75392 -2.10161,3.20009 -2.58086,6.31309 -1.41583,9.19602 0.0858,0.21225 0.10284,0.30605 0.0529,0.30074 -0.78491,-0.0814 -0.84224,-0.14106 -1.18856,-1.23731 -0.99023,-3.13471 0.2276,-9.27744 1.83605,-9.26399 z" /></g></svg>
