<?xml version="1.0" encoding="UTF-8" standalone="no"?>
<!-- Created with Inkscape (http://www.inkscape.org/) -->

<svg
   width="229mm"
   height="189mm"
   viewBox="0 0 229 189"
   version="1.1"
   id="svg784"
   xml:space="preserve"
   inkscape:version="1.2.2 (732a01da63, 2022-12-09)"
   sodipodi:docname="art_entretenimento.svg"
   xmlns:inkscape="http://www.inkscape.org/namespaces/inkscape"
   xmlns:sodipodi="http://sodipodi.sourceforge.net/DTD/sodipodi-0.dtd"
   xmlns="http://www.w3.org/2000/svg"
   xmlns:svg="http://www.w3.org/2000/svg"><sodipodi:namedview
     id="namedview786"
     pagecolor="#ffffff"
     bordercolor="#000000"
     borderopacity="0.25"
     inkscape:showpageshadow="false"
     inkscape:pageopacity="0.0"
     inkscape:pagecheckerboard="0"
     inkscape:deskcolor="#d1d1d1"
     inkscape:document-units="mm"
     showgrid="false"
     showborder="false"
     borderlayer="false"
     shape-rendering="crispEdges"
     inkscape:zoom="0.71624579"
     inkscape:cx="323.91115"
     inkscape:cy="376.26748"
     inkscape:window-width="1920"
     inkscape:window-height="991"
     inkscape:window-x="-9"
     inkscape:window-y="-9"
     inkscape:window-maximized="1"
     inkscape:current-layer="layer1" /><defs
     id="defs781" /><g
     inkscape:label="Camada 1"
     inkscape:groupmode="layer"
     id="layer1"><path
       style="fill:#000000;stroke-width:0.0394523"
       d="m 185.27415,188.15343 c -0.46041,-0.14077 -0.81785,-0.68993 -0.73665,-1.13191 0.0321,-0.1747 0.13589,-0.5682 1.85454,-7.03129 0.72991,-2.74489 1.55827,-5.86064 1.84081,-6.92387 0.28252,-1.06324 0.87484,-3.29131 1.31624,-4.95125 0.44139,-1.65996 1.06912,-4.02119 1.39494,-5.24716 0.32581,-1.22598 0.81654,-3.07234 1.09047,-4.10302 0.27393,-1.0307 0.71978,-2.70841 0.99077,-3.72824 0.44283,-1.66651 0.78354,-2.94735 1.57417,-5.91784 0.13862,-0.52077 0.54671,-2.05646 0.90686,-3.41263 0.7751,-2.91872 1.77722,-6.68743 2.56713,-9.65418 0.31314,-1.17619 0.56937,-2.1548 0.56937,-2.17469 0,-0.0198 -0.0746,-0.0481 -0.16568,-0.0626 -0.4615,-0.0738 -1.01826,-0.50165 -1.24987,-0.96042 -0.23109,-0.45779 -0.24149,-0.55131 -0.24149,-2.16793 v -1.47118 h -2.02985 c -1.31952,0 -2.10301,-0.0144 -2.23891,-0.0433 -0.59718,-0.12363 -1.18875,-0.57871 -1.46477,-1.12684 -0.12724,-0.25282 -0.16531,-0.36797 -0.24197,-0.73344 l -0.0227,-0.10848 h -1.73722 c -1.98716,0 -2.06195,-0.008 -2.67993,-0.30783 -0.31697,-0.15341 -0.43018,-0.23658 -0.73386,-0.53848 -0.40214,-0.39983 -0.62263,-0.74054 -0.79263,-1.22493 l -0.11081,-0.31562 -0.0108,-3.16605 -0.0108,-3.16603 h -1.06343 -1.06344 l -1.26793,1.43013 c -0.69735,0.78658 -1.45419,1.63939 -1.68185,1.89514 l -0.41392,0.46498 -0.36045,-0.0108 -0.36046,-0.0108 -0.0108,-6.95075 -0.01,-6.95074 0.38071,-0.0126 0.3807,-0.0126 1.67353,1.86411 1.67352,1.86413 h 1.06127 1.06127 l 0.0108,-3.16605 0.0108,-3.16605 0.0921,-0.25642 c 0.32422,-0.90335 0.93633,-1.57659 1.73916,-1.9129 0.4839,-0.20271 0.63309,-0.21583 2.5077,-0.22042 l 1.7359,-0.003 -0.43396,-0.0903 c -0.60131,-0.12508 -0.86999,-0.19904 -1.35578,-0.37362 -2.51609,-0.9043 -4.42192,-2.58592 -5.62548,-4.96363 -0.44268,-0.874511 -0.79231,-1.97516 -0.95556,-3.008222 -0.10068,-0.637668 -0.0996,-2.151217 0.002,-2.82083 0.33026,-2.173434 1.27105,-4.068534 2.77821,-5.59627 1.56074,-1.582041 3.52869,-2.572183 5.74831,-2.892208 0.57587,-0.08302 1.94906,-0.09439 2.50522,-0.02057 1.11381,0.147631 2.29716,0.497959 3.21537,0.952116 1.72179,0.851608 3.12913,2.146399 4.16322,3.83023 0.66491,1.082729 1.13921,2.41515 1.3187,3.704617 0.0345,0.248194 0.0687,0.457171 0.076,0.464408 0.007,0.0072 0.025,-0.115867 0.0397,-0.273732 0.10503,-1.134635 0.66428,-2.763004 1.33277,-3.880096 0.80248,-1.341012 2.03582,-2.593896 3.32727,-3.380062 2.93482,-1.786524 6.44552,-1.967057 9.53891,-0.490523 2.17597,1.038655 3.80129,2.730265 4.82111,5.01778 0.11839,0.265556 0.45011,1.209263 0.47845,1.3611 0.0108,0.05433 0.0299,0.134095 0.044,0.177591 0.0144,0.04331 0.0288,0.09674 0.033,0.118393 0.003,0.02165 0.0276,0.137165 0.0523,0.256443 0.15648,0.756387 0.18173,1.050604 0.17904,2.090974 -0.002,0.842529 -0.0162,1.086175 -0.0873,1.499183 -0.26624,1.546794 -0.81102,2.91024 -1.63934,4.103024 -0.38508,0.554468 -0.6455,0.861946 -1.18708,1.401524 -1.4516,1.44619 -3.21528,2.3652 -5.30883,2.76622 -0.10556,0.0203 0.5956,0.0289 1.7359,0.0213 2.07231,-0.0144 2.46128,0.01 2.95484,0.1738 0.73931,0.24633 1.38228,0.80445 1.74063,1.51096 0.24747,0.48792 0.282,0.65989 0.30383,1.51362 l 0.0201,0.77918 h 1.08897 1.08896 l 0.79248,-0.78904 0.79246,-0.78905 h 0.40247 0.40247 l -0.0108,2.63343 -0.0108,2.63345 -0.37479,0.0108 -0.3748,0.0108 -0.16298,-0.14817 c -0.0895,-0.0816 -0.39142,-0.36306 -0.67069,-0.62561 -0.27927,-0.26255 -0.57225,-0.53328 -0.65104,-0.60164 l -0.1433,-0.12436 h -1.08961 -1.08958 v 7.53281 c 0,8.50544 0.026,7.81735 -0.32185,8.52426 -0.17795,0.36177 -0.24926,0.45921 -0.56238,0.76932 -0.38946,0.38572 -0.70477,0.58468 -1.20675,0.7614 -0.28744,0.1012 -0.32695,0.1047 -1.38619,0.1184 l -1.09029,0.0144 -0.0469,0.24337 c -0.1543,0.79939 -0.83839,1.51666 -1.62267,1.70151 -0.18031,0.0427 -0.47705,0.0597 -1.03536,0.0602 l -0.78258,6e-4 0.32888,0.38429 c 0.42511,0.49671 0.98512,1.15816 2.6307,3.10723 0.1832,0.21699 0.39349,0.46202 0.46731,0.54455 l 0.13427,0.14997 0.23864,-0.15936 c 0.13121,-0.0877 0.30698,-0.17777 0.39049,-0.20024 0.10057,-0.0271 1.2242,-0.0372 3.32014,-0.0301 3.13046,0.0108 3.17042,0.0126 3.34583,0.094 0.28291,0.13283 0.53456,0.38377 0.6791,0.67741 0.11587,0.23529 0.12959,0.29925 0.12959,0.59957 0,0.51226 -0.19203,0.89194 -0.58833,1.16319 -0.38664,0.26465 -0.33963,0.26151 -3.73721,0.24922 l -3.05204,-0.0108 -0.22011,-0.0891 c -0.37849,-0.15322 -0.66808,-0.46462 -0.80656,-0.86744 -0.0299,-0.087 -0.92979,-1.18157 -2.36462,-2.8763 l -2.31635,-2.73597 h -0.54895 -0.54893 v 1.4578 c 0,0.93281 -0.0162,1.53309 -0.0446,1.66685 -0.13988,0.65702 -0.62145,1.20158 -1.25965,1.42459 l -0.25516,0.0891 0.4818,1.81343 c 0.78796,2.96557 0.84564,3.1821 0.92474,3.47041 0.0417,0.15196 0.20977,0.78214 0.37355,1.40057 0.47932,1.80974 0.80463,3.03667 0.8865,3.34357 0.16279,0.61053 0.23354,0.87756 0.37308,1.41042 0.14078,0.53748 0.84754,3.19199 1.08193,4.06358 0.13627,0.50682 1.29272,4.86116 1.85981,7.00277 0.21545,0.81371 0.43525,1.63924 0.48842,1.83454 0.0533,0.19529 0.2232,0.83441 0.37778,1.42027 0.64278,2.436 0.86809,3.28613 0.92538,3.49152 0.0332,0.11931 0.13824,0.50993 0.23328,0.86797 0.46168,1.73925 1.64434,6.19417 1.93758,7.29865 0.18149,0.68351 0.55185,2.07716 0.82305,3.097 0.27116,1.01985 0.60826,2.28922 0.74909,2.82085 0.14078,0.53161 0.42591,1.6057 0.63355,2.38684 0.20762,0.78118 0.47635,1.79312 0.59717,2.24879 0.37028,1.39666 0.45618,1.71822 0.59009,2.20933 0.7362,2.69964 0.76684,2.87537 0.56996,3.26877 -0.17886,0.35731 -0.48761,0.53612 -0.92812,0.5375 -0.33877,0.001 -0.624,-0.12364 -0.8046,-0.35163 -0.17579,-0.22201 0.037,0.53159 -1.77809,-6.29521 -0.32307,-1.21513 -0.95092,-3.57635 -1.39523,-5.24715 -0.44428,-1.67081 -1.34319,-5.05285 -1.99757,-7.51565 -0.65438,-2.46281 -1.3313,-5.01043 -1.50427,-5.6614 -0.1729,-0.65095 -0.4844,-1.82269 -0.69208,-2.60385 -0.56171,-2.11282 -1.00264,-3.77285 -1.33082,-5.01043 -0.16117,-0.60756 -0.7391,-2.78237 -1.2844,-4.8329 -0.5453,-2.05053 -1.30244,-4.89998 -1.68251,-6.33209 -0.38009,-1.4321 -0.78615,-2.95892 -0.90239,-3.39288 -0.11623,-0.43398 -0.53395,-2.00518 -0.92828,-3.49152 -0.39433,-1.48638 -0.74809,-2.81789 -0.78614,-2.95894 l -0.0692,-0.25643 -0.91314,-0.0108 -0.91311,-0.0108 -0.01,26.20688 -0.0108,26.20688 -0.0872,0.16316 c -0.25714,0.48072 -0.75017,0.69517 -1.25861,0.54746 -0.31608,-0.0919 -0.61038,-0.38058 -0.70142,-0.68815 -0.0579,-0.19591 -0.0633,-2.45365 -0.0633,-26.32527 V 133.8721 l -0.85399,0.0108 -0.85397,0.0108 -0.0499,0.17759 c -0.0275,0.0976 -0.11353,0.41722 -0.1913,0.71015 -0.0778,0.29294 -0.24073,0.90543 -0.36203,1.3611 -0.12129,0.45567 -0.40359,1.5209 -0.62734,2.36714 -0.67191,2.5414 -2.53327,9.54573 -2.99845,11.28334 -0.0754,0.28209 -0.26156,0.98335 -0.41341,1.55837 -0.15178,0.57501 -0.31237,1.17863 -0.35672,1.34137 -0.0445,0.16279 -0.3462,1.29898 -0.6708,2.52495 -0.32459,1.22597 -0.60839,2.29118 -0.63067,2.36713 -0.0222,0.076 -0.28955,1.07902 -0.59391,2.22905 -0.30436,1.15003 -0.64095,2.41942 -0.74799,2.82083 -0.10703,0.40144 -0.28365,1.06719 -0.39246,1.47946 -0.10882,0.41229 -0.23339,0.88276 -0.27687,1.0455 -0.0435,0.16279 -0.15954,0.59768 -0.25793,0.96657 -0.0983,0.36888 -0.25014,0.93699 -0.33725,1.26247 -0.0872,0.32549 -0.39614,1.48833 -0.68669,2.58412 -0.29055,1.09578 -0.56645,2.13436 -0.61312,2.30797 -0.0468,0.17362 -0.24193,0.91035 -0.43394,1.63727 -0.65965,2.49741 -1.89906,7.16087 -1.9922,7.49592 -0.0512,0.18444 -0.15558,0.57502 -0.23168,0.86795 -0.0762,0.29292 -0.30669,1.16285 -0.51231,1.93314 -0.20562,0.77032 -0.47473,1.78227 -0.59801,2.2488 -0.27884,1.05511 -0.31758,1.16946 -0.45501,1.34339 -0.23596,0.29856 -0.7681,0.46225 -1.1366,0.34964 z M 28.459868,181.15177 c -1.488463,-0.25244 -2.769214,-1.19903 -3.405672,-2.51705 -0.106302,-0.22005 -0.364711,-0.90609 -0.574337,-1.5245 -0.588398,-1.73586 -2.991293,-8.84107 -4.089417,-12.09212 -0.542356,-1.6057 -1.151184,-3.40769 -1.352923,-4.00441 -0.201757,-0.59672 -0.654453,-1.9371 -1.005988,-2.97864 -0.351537,-1.04154 -0.857944,-2.5417 -1.125323,-3.33372 -0.267379,-0.79199 -0.707802,-2.09688 -0.978737,-2.89973 -1.117849,-3.31272 -1.075725,-3.1968 -1.156471,-3.18229 -0.04079,0.007 -0.207443,0.0144 -0.370199,0.0162 -0.248176,0.003 -0.330871,-0.0144 -0.512867,-0.10481 -0.119296,-0.0595 -0.276204,-0.16495 -0.348576,-0.2339 -0.264853,-0.25261 -0.194088,-0.0623 -1.785189,-4.80057 -0.369783,-1.10125 -0.445873,-1.2933 -0.53909,-1.36082 -0.05974,-0.0433 -0.78317,-0.75935 -1.607723,-1.59135 -0.9747663,-0.9836 -1.5336369,-1.57711 -1.5976711,-1.69676 -0.1303059,-0.24342 -0.1570165,-0.69601 -0.059016,-0.99995 0.064787,-0.20079 0.3681767,-0.50923 7.0758701,-7.19325 29.213892,-29.11081 35.102519,-34.963992 35.302725,-35.090219 0.194448,-0.122546 0.249692,-0.137525 0.562463,-0.152505 0.606282,-0.02906 0.564718,-0.05974 2.378169,1.760716 1.469242,1.474927 1.564625,1.57928 1.647212,1.802279 0.122906,0.332009 0.100348,0.747296 -0.05631,1.035229 -0.129042,0.2372 -1.725035,1.83273 -25.029148,25.02299 -3.216277,3.20055 -7.766238,7.72987 -10.111019,10.06513 l -4.263235,4.24592 0.326432,0.96177 c 0.179576,0.52898 0.332189,0.96899 0.33921,0.97782 0.01263,0.0162 2.929027,-0.95271 5.596089,-1.86002 2.490066,-0.8471 6.53799,-2.21577 10.415379,-3.52164 4.174096,-1.40579 10.133995,-3.42026 19.509148,-6.5941 1.508063,-0.51054 3.842647,-1.29702 5.187973,-1.74775 1.345306,-0.45072 2.872122,-0.96555 3.392893,-1.14406 1.126783,-0.38627 2.32372,-0.79233 5.937556,-2.01426 2.626977,-0.88826 2.709655,-0.91332 2.959545,-0.89682 0.141496,0.01 0.338867,0.053 0.438816,0.0973 0.2095,0.0927 0.470527,0.31616 0.584355,0.50034 0.09114,0.14727 1.368914,3.89577 1.423076,4.17441 0.04277,0.21995 -0.01083,0.5683 -0.121462,0.78437 -0.07923,0.1554 -0.275159,0.3753 -0.425859,0.47802 -0.09096,0.0618 -0.0915,0.0669 -0.03357,0.25398 0.06118,0.19745 0.453382,1.36017 1.980269,5.87191 0.492003,1.45383 1.113211,3.29131 1.380465,4.08331 0.953613,2.82601 1.464676,4.33866 4.005565,11.8554 1.415621,4.18786 2.598191,7.70306 2.62797,7.81154 0.139149,0.50742 0.191705,1.19385 0.129764,1.69645 -0.130125,1.05455 -0.659361,2.12517 -1.386619,2.80497 -0.664378,0.62104 -1.159161,0.87606 -2.712976,1.3984 -2.965555,0.99689 -6.020972,2.02777 -9.350175,3.15469 -1.42127,0.48111 -2.841549,0.96026 -3.156178,1.0648 -0.314628,0.1045 -1.495248,0.50302 -2.623584,0.88553 -1.128318,0.38253 -2.468717,0.83535 -2.978641,1.00626 -0.509907,0.17092 -1.983462,0.66873 -3.274536,1.10621 -1.291073,0.4375 -2.604832,0.88149 -2.919461,0.98666 -0.31463,0.10523 -1.282195,0.431 -2.150154,0.72409 -6.292736,2.12501 -7.490756,2.53009 -8.06798,2.72806 -0.358034,0.12272 -0.757488,0.25547 -0.887668,0.2948 -0.130124,0.0394 -0.449752,0.14565 -0.710148,0.23609 -0.59446,0.20657 -0.840724,0.29018 -3.78742,1.28571 -1.323614,0.44718 -2.877049,0.97244 -3.452073,1.16724 -0.575006,0.19478 -1.072099,0.36104 -1.104657,0.36945 -0.03248,0.01 -0.529651,0.17632 -1.104657,0.37316 -0.575024,0.19681 -1.178634,0.38604 -1.341372,0.4205 -0.399887,0.0847 -1.238428,0.10142 -1.642935,0.0329 z m 98.261482,-1.07053 c -5.51703,-0.32399 -10.87708,-2.58473 -14.91295,-6.28992 -3.17681,-2.91653 -5.4815,-6.48853 -6.786,-10.51749 -0.5376,-1.66031 -0.90725,-3.49116 -1.06174,-5.2585 -0.0963,-1.10254 -0.0897,-3.53096 0.0126,-4.537 0.50513,-4.97142 2.38588,-9.43727 5.59923,-13.29541 0.59004,-0.70845 2.15927,-2.28649 2.85122,-2.86721 2.26594,-1.90178 4.63791,-3.29112 7.31461,-4.28443 2.14749,-0.79692 4.29804,-1.26041 6.72248,-1.44886 0.66165,-0.0515 2.7301,-0.0505 3.43648,10e-4 2.07321,0.15269 4.19313,0.57415 6.02635,1.19831 l 0.38469,0.13103 0.52272,-0.53792 c 2.20288,-2.2669 3.93918,-4.85624 5.22752,-7.79568 0.3337,-0.76134 0.79732,-2.01286 1.07407,-2.89932 0.20907,-0.66975 0.59266,-2.06654 0.59266,-2.15814 0,-0.0684 0.0885,-0.0651 0.26757,0.01 0.28288,0.1184 1.48509,0.4526 2.11577,0.58824 1.25691,0.27032 2.4379,0.42752 3.60355,0.47969 0.33088,0.0144 0.60164,0.0309 0.60164,0.0357 0,0.0463 -0.41119,1.18905 -0.6143,1.70735 -1.35393,3.45506 -3.4777,6.9645 -5.88492,9.72467 -0.53319,0.61137 -2.03686,2.10811 -2.58422,2.57233 -0.23028,0.1953 -0.42,0.36861 -0.42163,0.38514 -0.002,0.0162 0.0991,0.0945 0.22393,0.17344 1.6227,1.02579 2.8826,2.02862 4.23414,3.37019 1.67212,1.65981 2.92078,3.28855 4.08068,5.32272 1.72441,3.02418 2.74109,6.3742 3.06515,10.09977 0.0651,0.74917 0.0644,3.05001 -0.001,3.78742 -0.0986,1.10706 -0.27318,2.27372 -0.4844,3.23509 -1.57223,7.15624 -6.33208,13.26628 -12.89114,16.54788 -2.87715,1.43947 -5.99229,2.28129 -9.27678,2.50693 -0.51906,0.0357 -2.50571,0.044 -3.03783,0.0126 z m -5.51546,-7.01461 c 0.52268,-0.0692 1.03038,-0.19943 1.5341,-0.39396 0.45419,-0.17543 1.02198,-0.48237 0.94261,-0.50957 -0.0321,-0.0108 -0.3423,-0.1119 -0.6895,-0.2241 -3.51384,-1.13626 -6.48936,-3.32982 -8.67776,-6.39727 l -0.33009,-0.46269 -0.0726,0.38378 c -0.0989,0.52306 -0.10142,1.76599 -0.005,2.27748 0.51212,2.70968 2.60509,4.80461 5.27807,5.28302 0.18444,0.033 0.39747,0.0666 0.47342,0.0749 0.35376,0.0379 1.14302,0.0219 1.54648,-0.0316 z m 16.11565,-0.0767 c 2.26853,-0.47513 4.10517,-2.10086 4.85091,-4.29383 0.2441,-0.7178 0.38738,-1.67823 0.34717,-2.32715 -0.0263,-0.42587 -0.13247,-1.18464 -0.17128,-1.22404 -0.0162,-0.0162 -0.0983,0.0716 -0.1815,0.19725 -0.99441,1.50203 -2.65398,3.19163 -4.22138,4.29772 -0.97446,0.68765 -2.3278,1.4313 -3.3929,1.86438 -0.46766,0.19015 -1.63635,0.59549 -1.71695,0.59549 -0.0183,0 -0.083,0.0188 -0.14329,0.0417 l -0.10992,0.0417 0.21578,0.1184 c 0.58054,0.31869 1.31818,0.58329 1.95847,0.70253 0.61172,0.11388 0.63268,0.11551 1.39375,0.10015 0.54919,-0.0108 0.78873,-0.0345 1.17111,-0.11442 z M 111.34872,153.9123 c 0.32029,-2.71593 1.23419,-5.20775 2.742,-7.47621 0.1875,-0.28208 0.46927,-0.6771 0.62615,-0.87781 0.15684,-0.2007 0.27237,-0.3646 0.25663,-0.3642 -0.0162,3.9e-4 -0.20696,0.0262 -0.42488,0.0571 -0.96362,0.13698 -1.87417,0.49574 -2.74399,1.08103 -2.37115,1.59553 -3.41267,4.69517 -2.49373,7.42146 0.34223,1.01526 0.81152,1.77985 1.56883,2.5559 l 0.35661,0.36545 0.0247,-1.11504 c 0.0144,-0.61328 0.053,-1.35472 0.0875,-1.64764 z m 34.35709,2.15014 c 0.77444,-0.87771 1.28515,-1.89668 1.53746,-3.06745 0.0736,-0.3417 0.0875,-0.53267 0.0895,-1.23283 0.002,-0.918 -0.0554,-1.32624 -0.29403,-2.07126 -0.16279,-0.50788 -0.56865,-1.32392 -0.8733,-1.75562 -0.32826,-0.46515 -1.1012,-1.23613 -1.57223,-1.56827 -0.50867,-0.35867 -1.45843,-0.82561 -1.86191,-0.91539 -0.05,-0.0108 -0.18328,-0.046 -0.29607,-0.0772 -0.1128,-0.0314 -0.27023,-0.0675 -0.34982,-0.0801 -0.0796,-0.0126 -0.15594,-0.0296 -0.16966,-0.0378 -0.0144,-0.007 -0.14763,-0.0271 -0.29734,-0.042 l -0.27238,-0.0273 0.14493,0.19047 c 1.29476,1.70149 2.16073,3.32493 2.76659,5.18663 0.56519,1.73669 0.81549,3.28783 0.82413,5.10729 l 0.005,0.98996 0.15304,-0.122 c 0.0841,-0.0671 0.29406,-0.2818 0.46636,-0.47709 z m -21.6566,-16.64735 c 0.3956,-0.0975 0.99443,-0.22304 1.33077,-0.27911 0.69615,-0.11605 1.22936,-0.27189 2.18959,-0.63992 1.129,-0.43272 2.20532,-0.94001 3.31048,-1.56035 l 0.35155,-0.19732 -0.25292,-0.13012 c -0.13914,-0.0715 -0.27295,-0.13103 -0.29743,-0.13193 -0.0245,-0.001 -0.11316,-0.0317 -0.19725,-0.068 -0.0839,-0.0365 -0.17056,-0.0708 -0.19222,-0.0764 -0.0216,-0.005 -0.1637,-0.0469 -0.31562,-0.0921 -0.9473,-0.28048 -2.15132,-0.32658 -3.13645,-0.12003 -1.95825,0.41056 -3.56989,1.64325 -4.49358,3.43701 l -0.23632,0.45889 0.61008,-0.21176 c 0.33554,-0.11641 0.93373,-0.29148 1.32932,-0.38891 z m -21.53248,-14.08686 c -0.9231,-0.20287 -1.70147,-0.8199 -2.13888,-1.69553 -0.0649,-0.13013 -0.983482,-3.00627 -2.040981,-6.39128 -1.057519,-3.38498 -1.974421,-6.31674 -2.037571,-6.51499 l -0.114784,-0.36045 -0.325061,-0.0464 c -2.568466,-0.36642 -4.881393,-1.66815 -6.255504,-3.52066 -0.864296,-1.16519 -1.370611,-2.36701 -1.569751,-3.72595 -0.07652,-0.52202 -0.08573,-1.65111 -0.01823,-2.20425 0.15828,-1.294494 0.661707,-2.508972 1.507107,-3.635864 1.350559,-1.800295 3.561118,-3.42704 7.076448,-5.207591 2.280424,-1.155064 4.699957,-2.569946 8.028527,-4.694886 0.83017,-0.529975 2.38584,-1.5606 3.70851,-2.456894 1.44155,-0.976842 3.96002,-2.727937 4.05477,-2.819277 0.0276,-0.02671 0.12092,-0.319015 0.20717,-0.649581 0.53876,-2.064948 1.35585,-3.87562 2.44495,-5.41801 1.5803,-2.238027 3.73285,-3.711547 6.12373,-4.191964 3.63119,-0.72964 7.49729,0.760881 10.92867,4.213369 6.04599,6.083202 9.23082,16.902619 7.54517,25.632228 -1.00931,5.22698 -3.70451,9.09496 -7.33723,10.52992 -1.68593,0.66596 -3.52289,0.81459 -5.37091,0.43453 -2.27143,-0.46713 -4.73077,-1.86387 -6.7335,-3.8242 -0.29683,-0.29055 -0.54921,-0.50503 -0.61149,-0.51966 -0.28724,-0.0675 -4.31262,-0.0162 -6.51706,0.0839 -2.47963,0.11208 -5.16956,0.31606 -7.61429,0.57757 -0.53161,0.0569 -0.97076,0.10684 -0.97588,0.111 -0.005,0.003 0.12994,0.35253 0.30006,0.77414 0.21959,0.54408 0.32535,0.762 0.36439,0.75083 0.16496,-0.0473 0.27337,-0.0446 0.37526,0.01 0.16279,0.0859 1.5331,2.22409 1.59109,2.48284 0.0751,0.33488 -0.0512,0.6602 -0.34278,0.88251 -0.0899,0.0685 -0.18523,0.13193 -0.21167,0.14077 -0.0355,0.0126 -0.0237,0.10248 0.0456,0.34923 0.0778,0.27613 0.0939,0.42446 0.0937,0.86583 -4e-4,0.73498 -0.0484,0.90456 -0.59051,2.08141 l -0.15016,0.32579 0.58876,1.88354 0.58875,1.88353 -6.2e-4,0.53261 c -7e-4,0.60513 -0.0551,0.86617 -0.27904,1.34137 -0.30886,0.6552 -0.87274,1.2164 -1.5154,1.50816 -0.24674,0.11208 -1.11754,0.3918 -1.49995,0.48193 -0.31129,0.0733 -0.99067,0.0739 -1.32156,0.001 z M 26.690182,87.161164 c -0.554629,-0.07345 -1.261546,-0.307645 -1.74523,-0.577967 -0.528442,-0.295335 -1.136854,-0.865576 -1.489023,-1.395587 -0.227493,-0.342423 -0.455419,-0.835149 -0.849062,-1.835651 -0.179215,-0.455673 -0.431308,-1.094803 -0.560044,-1.420278 -0.128682,-0.325494 -0.350382,-0.893606 -0.492563,-1.262486 -0.142217,-0.368881 -0.289596,-0.741696 -0.327587,-0.828488 -0.03809,-0.08681 -0.144564,-0.353107 -0.236752,-0.59179 -0.177049,-0.458235 -0.783008,-2.002954 -1.880445,-4.793445 -0.183474,-0.46652 -0.437752,-1.114529 -0.565044,-1.440005 -0.127236,-0.325475 -0.367906,-0.937985 -0.534703,-1.3611 -0.166763,-0.423132 -0.397325,-1.009002 -0.512254,-1.30192 -0.428493,-1.092094 -0.9016,-2.295564 -1.248552,-3.175922 C 15.885997,66.255596 15.597466,65.521553 15.109144,64.276791 14.71496,63.27201 13.862559,61.102673 13.388406,59.897598 12.810981,58.429998 12.511333,57.666951 11.916582,56.149629 11.631661,55.422715 11.196002,54.313131 10.94844,53.683856 10.700877,53.054599 10.283141,51.989394 10.020111,51.316731 9.7570992,50.644068 9.4117344,49.765263 9.2526248,49.363842 9.0934421,48.962422 8.8212626,48.270032 8.6476053,47.825206 8.4739851,47.380379 8.1600783,46.581473 7.9501275,46.049854 7.7401756,45.518235 7.4916027,44.887986 7.3977357,44.649302 7.0511255,43.76779 6.4619893,42.267685 6.2744356,41.789019 6.168133,41.517778 5.8759381,40.775919 5.6250907,40.140454 5.3742252,39.504969 5.1689846,38.970518 5.1689846,38.952759 c 0,-0.01805 -0.1730791,-0.04205 -0.3846552,-0.05415 C 4.2891144,38.870456 3.9241139,38.751341 3.6115057,38.515455 3.416354,38.368184 3.3457148,38.280742 3.2160953,38.025761 l -0.1577389,-0.310422 4.328e-4,-0.47827 c 3.979e-4,-0.436325 0.00902,-0.498247 0.1068436,-0.706321 0.1469107,-0.314756 0.4864449,-0.660067 0.8016872,-0.815259 0.1402325,-0.06895 0.2548544,-0.137706 0.2548544,-0.152686 0,-0.01444 -0.026352,-0.151422 -0.058475,-0.303276 -0.073996,-0.349209 -0.074176,-0.675118 -9.388e-4,-1.021186 0.1030531,-0.486445 0.3422426,-0.858863 0.7573979,-1.179302 0.1833123,-0.141496 0.2430691,-0.216648 0.2986747,-0.375595 0.038266,-0.10937 0.1321104,-0.291744 0.2086152,-0.405446 0.076521,-0.113702 0.1478123,-0.220671 0.15828,-0.237727 0.010832,-0.01624 -0.046922,-0.06226 -0.1277789,-0.100708 -0.4084962,-0.193852 -0.6578998,-0.631008 -0.660553,-1.15788 -0.0018,-0.360163 0.096561,-0.605416 0.3482885,-0.86794 0.169469,-0.176689 0.1703718,-0.179397 0.2138315,-0.591791 0.060639,-0.5758 0.1700111,-0.877145 0.4030996,-1.110197 0.124349,-0.12435 0.2433576,-0.201685 0.3585026,-0.23289 0.2052044,-0.05559 0.5996589,-0.02689 0.8043584,0.05866 0.1279592,0.05342 0.1823194,0.05397 0.4665015,0.0054 0.2285225,-0.03971 0.377941,-0.0453 0.5156825,-0.01931 0.1066622,0.02003 0.2010713,0.02942 0.2097705,0.02076 0.00902,-0.009 0.039708,-0.129764 0.068766,-0.269076 0.072914,-0.348721 0.1952238,-0.591411 0.424125,-0.841843 0.21412,-0.234298 0.5677861,-0.432987 0.858917,-0.482546 0.1604452,-0.02725 0.1856038,-0.0471 0.2624162,-0.206667 0.046742,-0.0971 0.1577379,-0.246624 0.2466602,-0.332406 0.114604,-0.110633 0.161709,-0.188511 0.161709,-0.267975 0,-0.184468 0.114604,-0.682011 0.203995,-0.885212 0.193329,-0.439737 0.613268,-0.950095 0.941035,-1.143713 0.08049,-0.04764 0.120018,-0.108649 0.137705,-0.213182 0.06877,-0.40707 0.493845,-0.978249 0.935043,-1.256421 l 0.214174,-0.134998 0.0036,-0.417286 c 0.009,-1.097797 0.546671,-1.655568 1.616676,-1.676179 l 0.284218,-0.0054 0.143301,-0.286601 c 0.195692,-0.391152 0.509816,-0.722185 0.839298,-0.88449 0.53243,-0.26229 1.196142,-0.179758 1.753677,0.218109 0.240307,0.171455 0.426435,0.356193 0.607004,0.602383 0.07959,0.108468 0.08663,0.110814 0.11298,0.03682 0.170914,-0.479642 0.441054,-0.838 0.737238,-0.978287 0.36334,-0.171996 0.872525,-0.167303 1.344026,0.01263 0.197497,0.07526 0.218362,0.07598 0.491678,0.01624 0.409994,-0.09078 0.960076,-0.06552 1.188905,0.05469 0.09475,0.04981 0.175967,0.08537 0.180298,0.07887 0.0036,-0.0072 0.03068,-0.0915 0.05848,-0.18925 0.06208,-0.217531 0.329229,-0.489008 0.543747,-0.552519 0.0823,-0.02437 0.261622,-0.05451 0.398424,-0.06714 l 0.248737,-0.02274 0.09276,-0.181815 c 0.136442,-0.26738 0.430479,-0.542068 0.662737,-0.619222 0.528298,-0.175426 1.241045,0.169108 1.516402,0.733285 0.07508,0.153949 0.114604,0.187264 0.295894,0.250613 0.251029,0.08771 0.564303,0.261153 0.809357,0.448219 l 0.179758,0.137164 0.103233,-0.08176 c 0.261244,-0.207045 0.655608,-0.452606 0.881387,-0.5488 0.215275,-0.09168 0.301688,-0.105578 0.661852,-0.106122 0.46531,-7.4e-4 0.604856,0.04873 0.951358,0.336792 l 0.182049,0.151421 0.212478,-0.05812 c 0.688309,-0.188528 1.498263,-0.0823 2.21785,0.290932 0.26783,0.138969 0.272234,0.13969 0.729856,0.131028 0.680713,-0.01263 1.087025,0.136261 1.449246,0.532105 l 0.12092,0.132111 0.194719,-0.1997 c 0.291455,-0.298928 0.538548,-0.428565 0.817677,-0.429016 0.27662,-4.52e-4 0.456323,0.08375 0.686343,0.321847 0.185677,0.192156 0.44941,0.624421 0.547663,0.89763 l 0.06515,0.181327 0.163693,-0.163693 c 0.159183,-0.159183 0.464427,-0.290698 0.674758,-0.290698 0.137343,0 0.530155,0.113521 0.739908,0.213957 0.182573,0.08735 0.206486,0.09006 0.332965,0.03718 0.145105,-0.06064 0.495903,-0.0796 0.649977,-0.03501 0.322046,0.09294 0.566234,0.316018 0.684123,0.624709 0.09493,0.248447 0.06822,0.588036 -0.06677,0.848016 l -0.102513,0.197444 0.115145,0.110272 c 0.153949,0.147452 0.214987,0.377671 0.15413,0.580944 -0.06714,0.224082 -0.01805,0.535173 0.09204,0.576611 0.505431,0.1912 0.676741,0.269293 0.915569,0.417376 0.649525,0.402721 1.014923,0.977275 1.070114,1.682713 l 0.02365,0.302987 0.260666,-0.02183 c 0.487906,-0.04079 1.018676,0.145466 1.34195,0.47123 0.225309,0.227006 0.432211,0.656618 0.487148,1.011584 0.109371,0.706538 -0.27218,1.415748 -0.937948,1.743515 l -0.263427,0.129584 0.02527,0.160446 c 0.01444,0.08825 1.799212,10.359738 3.967286,22.825663 4.808733,27.649051 4.379012,25.127743 4.379012,25.69322 0,1.516202 -0.748951,2.91984 -2.017681,3.78141 -0.410734,0.27893 -2.092851,1.109241 -3.484432,1.719946 -4.265763,1.872071 -8.74476,3.150745 -13.44284,3.837665 -2.003009,0.292881 -4.931566,0.522649 -5.574631,0.437391 z M 210.20231,75.891794 c -1.19408,-0.07869 -1.57628,-0.10937 -2.18862,-0.176147 -1.95703,-0.213055 -4.68315,-0.768768 -5.34677,-1.08993 -0.43739,-0.211665 -0.89415,-0.677247 -1.10103,-1.122289 -0.0844,-0.181616 -0.17362,-0.427843 -0.19822,-0.547195 -0.0245,-0.119296 -0.24858,-2.15212 -0.49774,-4.517276 -0.24919,-2.365175 -0.63,-5.96026 -0.84627,-7.989095 -0.21625,-2.028816 -0.56201,-5.286585 -0.76833,-7.239474 -0.20633,-1.95289 -0.45618,-4.314113 -0.55525,-5.247152 -0.0991,-0.933039 -0.25922,-2.442095 -0.3559,-3.353441 -0.24396,-2.299354 -0.38552,-3.629448 -0.53324,-5.010435 -0.0697,-0.650969 -0.14348,-1.194607 -0.16424,-1.208107 -0.0208,-0.01263 -0.19854,-0.04656 -0.39519,-0.07345 -0.59172,-0.08085 -0.93917,-0.238069 -1.23587,-0.559141 -0.32854,-0.355543 -0.46031,-0.692858 -0.46,-1.177462 4e-4,-0.300605 0.0288,-0.43138 0.27721,-1.262485 0.15232,-0.509907 0.4048,-1.362074 0.56098,-1.893693 0.15612,-0.531618 0.34174,-1.161868 0.41231,-1.40057 0.0705,-0.238683 0.19757,-0.671255 0.28221,-0.961284 0.11894,-0.407178 0.17182,-0.534091 0.23282,-0.557083 0.0435,-0.01624 0.53162,-0.113883 1.08494,-0.216719 0.55333,-0.102873 1.02677,-0.19277 1.05212,-0.199882 0.0252,-0.0072 0.40361,-1.095939 0.84061,-2.419589 l 0.79456,-2.406666 0.18513,-0.05938 c 0.52119,-0.166944 1.97083,-0.296635 4.72214,-0.422357 0.49906,-0.02275 2.53301,-0.05143 4.51986,-0.06353 l 3.61246,-0.02202 0.14421,-1.014724 c 0.0794,-0.558095 0.21478,-1.456825 0.301,-1.997178 0.0862,-0.540354 0.22039,-1.40853 0.2982,-1.929301 0.0778,-0.520773 0.18382,-1.222041 0.23565,-1.558363 0.0518,-0.336341 0.14926,-0.975471 0.2164,-1.420278 0.0671,-0.444826 0.16622,-1.083956 0.2201,-1.420297 0.0538,-0.336322 0.1081,-0.700275 0.12055,-0.808761 0.0126,-0.108468 0.0746,-0.525699 0.13788,-0.927139 0.0633,-0.40142 0.19522,-1.271112 0.29307,-1.932657 0.0978,-0.661545 0.2387,-1.575851 0.31299,-2.0317946 0.0744,-0.4559426 0.14619,-0.9177519 0.15972,-1.0262558 0.0453,-0.3619865 0.25926,-1.7745047 0.27797,-1.8351993 0.0108,-0.032845 0.0812,-0.5033732 0.15793,-1.0454777 0.0767,-0.5421057 0.18307,-1.2519468 0.2365,-1.577422 0.0535,-0.3254756 0.14058,-0.87137 0.19383,-1.2130885 0.0533,-0.3417007 0.10612,-0.636603 0.11767,-0.6553007 0.0724,-0.1169502 0.96673,-0.063709 1.59231,0.094932 0.34318,0.086991 0.62345,0.2254181 0.58439,0.2886217 -0.008,0.016243 -0.0463,0.252905 -0.0818,0.5278466 -0.0354,0.2749234 -0.10757,0.7536435 -0.16044,1.063814 -0.0527,0.3101714 -0.13338,0.821359 -0.17923,1.1359882 -0.0458,0.3146472 -0.14473,0.9715179 -0.21965,1.4597493 -0.0751,0.4882133 -0.18093,1.180602 -0.23542,1.5386368 -0.21995,1.4455453 -0.38168,2.489344 -0.45235,2.919461 -0.041,0.24953 -0.0841,0.551345 -0.0958,0.670677 -0.0108,0.119297 -0.0481,0.385647 -0.0807,0.591791 -0.0327,0.206142 -0.0662,0.41918 -0.0746,0.473432 -0.053,0.345635 -0.072,0.462639 -0.0861,0.532593 -0.035,0.17344 -0.2108,1.345758 -0.31064,2.071247 -0.0582,0.423132 -0.12868,0.875846 -0.15684,1.006043 -0.028,0.130126 -0.0888,0.503013 -0.13517,0.828488 -0.15306,1.073524 -0.31835,2.161469 -0.41451,2.726963 -0.0522,0.306399 -0.10545,0.670353 -0.11857,0.80878 -0.0126,0.138427 -0.0752,0.571234 -0.13807,0.961807 -0.27525,1.711752 -0.31274,1.954984 -0.36013,2.337725 -0.0276,0.222513 -0.0428,0.41104 -0.034,0.418982 0.01,0.0072 0.36246,0.02617 0.7856,0.04079 1.60188,0.05469 3.34378,0.190441 4.09375,0.318888 0.5685,0.09746 0.43102,-0.163875 1.32927,2.525928 0.43488,1.302245 0.80362,2.387302 0.81942,2.411251 0.0162,0.02401 0.11695,0.05523 0.22489,0.06967 0.27988,0.03718 1.98124,0.371534 2.00349,0.393805 0.0162,0.01624 0.3334,1.070365 0.82552,2.746762 0.25658,0.874113 0.33582,1.142953 0.60455,2.051502 0.28872,0.976174 0.32581,1.180548 0.27385,1.509056 -0.12903,0.815639 -0.70381,1.340904 -1.61732,1.477923 -0.2258,0.03393 -0.42266,0.07255 -0.4375,0.08573 -0.0219,0.01967 -0.14077,1.161183 -0.29039,2.785889 -0.0126,0.130126 -0.0288,0.298855 -0.0373,0.3748 -0.01,0.07598 -0.0262,0.253483 -0.0394,0.394528 -0.0435,0.467765 -0.0617,0.649561 -0.0788,0.789035 -0.01,0.07598 -0.0278,0.280103 -0.0408,0.453705 -0.0126,0.173621 -0.0306,0.360002 -0.0388,0.414254 -0.0126,0.08519 -0.0805,0.759761 -0.11877,1.183562 -0.0126,0.142037 -0.0512,0.507758 -0.0785,0.746893 -0.008,0.07436 -0.0269,0.278623 -0.0407,0.453706 -0.0144,0.175064 -0.0324,0.36269 -0.0407,0.416942 -0.01,0.05433 -0.0249,0.24065 -0.0365,0.414253 -0.0208,0.313329 -0.0479,0.604532 -0.0841,0.907394 -0.0361,0.301363 -0.0525,0.475147 -0.0747,0.789053 -0.0126,0.17362 -0.0306,0.360001 -0.0409,0.414235 -0.0108,0.05433 -0.0285,0.222909 -0.0406,0.374801 -0.0126,0.151963 -0.0283,0.329428 -0.036,0.394526 -0.007,0.06515 -0.0247,0.278136 -0.0384,0.473432 -0.0126,0.195278 -0.033,0.394274 -0.043,0.44221 -0.0108,0.048 -0.0271,0.216574 -0.0379,0.3748 -0.0108,0.15828 -0.0309,0.367545 -0.0446,0.465184 -0.0144,0.09764 -0.0296,0.26016 -0.0352,0.361175 -0.005,0.101069 -0.0213,0.251894 -0.0347,0.335347 -0.0126,0.08338 -0.034,0.267091 -0.0453,0.408135 -0.0108,0.140954 -0.0278,0.318581 -0.0363,0.394527 -0.01,0.07598 -0.0265,0.297862 -0.0401,0.493158 -0.0144,0.195278 -0.0317,0.381695 -0.0406,0.414235 -0.008,0.03248 -0.0263,0.183457 -0.0386,0.335348 -0.0126,0.151963 -0.0306,0.347187 -0.0402,0.43398 -0.01,0.08681 -0.0268,0.273208 -0.0379,0.414252 -0.0108,0.141134 -0.0294,0.32849 -0.0412,0.416545 -0.0108,0.08807 -0.0285,0.268228 -0.0378,0.400356 -0.01,0.132111 -0.043,0.503934 -0.0752,0.826197 -0.0323,0.322281 -0.0705,0.719099 -0.0854,0.881837 -0.0144,0.162792 -0.0324,0.325981 -0.0391,0.362745 -0.007,0.03682 -0.0238,0.22318 -0.0376,0.414253 -0.0144,0.191072 -0.0329,0.375053 -0.0424,0.408874 -0.01,0.03375 -0.0265,0.184721 -0.0378,0.335348 -0.0108,0.150699 -0.028,0.335998 -0.0371,0.411943 -0.01,0.07598 -0.0263,0.271242 -0.0383,0.43398 -0.0126,0.162792 -0.0309,0.375775 -0.042,0.473414 -0.0108,0.09764 -0.0278,0.240813 -0.0368,0.31813 -0.01,0.07724 -0.0269,0.254853 -0.0399,0.394509 -0.0126,0.13969 -0.0332,0.35159 -0.045,0.470941 -0.0126,0.119296 -0.0283,0.305749 -0.0368,0.414252 -0.008,0.108468 -0.0255,0.277144 -0.0378,0.374783 -0.0267,0.214084 -0.053,0.483918 -0.0805,0.828506 -0.0108,0.140954 -0.0281,0.318581 -0.0373,0.394527 -0.01,0.07598 -0.0271,0.253464 -0.0396,0.394508 -0.0126,0.140954 -0.0319,0.336341 -0.0433,0.43398 -0.0108,0.09764 -0.0281,0.266297 -0.0371,0.374801 -0.01,0.108467 -0.0249,0.286022 -0.0352,0.394526 -0.0348,0.36935 -0.0713,0.749312 -0.0834,0.867941 -0.007,0.06515 -0.0229,0.251515 -0.0365,0.414253 -0.0126,0.162791 -0.0512,0.553312 -0.0843,0.86794 -0.0329,0.31463 -0.085,0.84724 -0.11587,1.183581 -0.0307,0.336322 -0.0649,0.691396 -0.0762,0.789036 -0.0381,0.33403 -0.0618,0.572316 -0.10142,1.025768 -0.0219,0.249531 -0.0464,0.506948 -0.0546,0.572047 -0.01,0.06515 -0.0285,0.278135 -0.0453,0.473431 -0.0162,0.195279 -0.0343,0.381696 -0.0391,0.414254 -0.005,0.03248 -0.0204,0.201197 -0.0343,0.374783 -0.0718,0.888207 -0.19458,1.273025 -0.5539,1.735591 -0.42238,0.543747 -0.82947,0.767992 -1.85623,1.022486 -1.82219,0.451648 -3.29548,0.691775 -5.36551,0.87451 -0.62698,0.05541 -3.51682,0.107024 -4.04384,0.07219 z M 106.68062,65.619174 c -0.0428,-0.04278 -0.0888,-0.120921 -0.10195,-0.173621 -0.0209,-0.0832 0.0684,-1.170352 0.12363,-1.504146 0.0108,-0.06515 0.0301,-0.517812 0.0432,-1.006025 0.0407,-1.530479 -0.1083,-2.457888 -0.54352,-3.378799 -0.24222,-0.512596 -2.14423,-3.297764 -3.52557,-5.162615 -0.11244,-0.151964 -0.42431,-0.577966 -0.69287,-0.946847 -0.70689,-0.970939 -2.653218,-3.609594 -3.608491,-4.892076 -1.02389,-1.374618 -4.981123,-6.653082 -5.266298,-7.024615 -0.115687,-0.1507 -0.214247,-0.279256 -0.218993,-0.285608 -0.0054,-0.0072 -0.894092,-0.224318 -1.976279,-0.48437 -2.356061,-0.56618 -3.885511,-0.935729 -8.161651,-1.972092 -1.258532,-0.305028 -2.80307,-0.678871 -3.432346,-0.83078 -2.841766,-0.686018 -4.923553,-1.223105 -5.113092,-1.319174 -0.40716,-0.206324 -0.729044,-0.658675 -0.823651,-1.157483 -0.04295,-0.226393 -0.04584,-1.053978 -0.0054,-1.54295 0.02202,-0.266278 0.0054,-0.526799 -0.05451,-0.868211 -0.09204,-0.521945 -0.590706,-1.196971 -0.961681,-1.30156 -0.552446,-0.155753 -1.391203,-0.149617 -2.027861,0.01444 -0.994059,0.256641 -1.955993,0.913259 -2.556464,1.745031 -0.127959,0.177231 -0.333199,0.4142 -0.456052,0.526475 -0.431543,0.394401 -1.087818,0.627652 -1.6366,0.58163 l -0.261352,-0.02183 0.3345,0.737022 c 1.122272,2.472812 2.634811,5.943745 3.501687,8.035676 2.101784,5.071906 3.189403,8.258043 3.373384,9.882082 0.131027,1.156833 -0.385774,2.940938 -1.16575,4.024226 -0.635195,0.882199 -1.454388,1.426018 -1.838483,1.220453 -0.116229,-0.06226 -0.193763,-0.279021 -0.170914,-0.4778 0.01083,-0.09348 0.0592,-0.489549 0.107565,-0.880141 0.118575,-0.95809 0.127238,-2.667063 0.01624,-3.274536 -0.209354,-1.149073 -0.565439,-1.812982 -1.795981,-3.348442 -0.644543,-0.804268 -1.626438,-2.007899 -1.776741,-2.177964 -0.07814,-0.08844 -0.257597,-0.301473 -0.398641,-0.473288 -0.140954,-0.171816 -0.550046,-0.658639 -0.908874,-1.081845 -0.358864,-0.423186 -0.758318,-0.894994 -0.887686,-1.048437 -0.522774,-0.620053 -2.292135,-2.691716 -2.441968,-2.859236 -0.08825,-0.09854 -0.204772,-0.232131 -0.259023,-0.296707 -0.112077,-0.133554 -0.788205,-0.921291 -0.848214,-0.988374 -0.188998,-0.211233 -0.896349,-1.022648 -1.543618,-1.770696 -0.43185,-0.499079 -0.953578,-1.100759 -1.159414,-1.337078 -0.205836,-0.236318 -0.507398,-0.58383 -0.670136,-0.772269 -0.301761,-0.349407 -1.222492,-1.409701 -1.438795,-1.656904 -0.0657,-0.07508 -0.200585,-0.226067 -0.299578,-0.335348 -0.09908,-0.109189 -0.603538,-0.68692 -1.12117,-1.283637 -0.517649,-0.596717 -1.022503,-1.174322 -1.121928,-1.283566 -0.188258,-0.206883 -0.341123,-0.380665 -1.143658,-1.300349 -0.264998,-0.303675 -0.57396,-0.624909 -0.686579,-0.713866 -0.51366,-0.405735 -0.951718,-1.047283 -1.055078,-1.545188 -0.07201,-0.347223 -0.03248,-0.85408 0.08952,-1.148152 0.134095,-0.323076 4.770182,-8.053886 4.82983,-8.053886 0.02473,0 2.625661,0.51653 5.779817,1.147864 3.154138,0.631314 13.004871,2.601818 21.890494,4.378903 8.885641,1.777085 16.235716,3.249684 16.333518,3.272442 l 0.17777,0.04133 0.144385,0.402739 c 0.07935,0.221519 0.48101,1.325923 0.89243,2.454259 3.57919,9.816136 6.64565,18.892398 8.0175,23.73053 0.74231,2.617936 1.05669,4.036788 1.09269,4.931531 0.0509,1.266491 -0.37222,2.775059 -1.07347,3.826873 -0.55349,0.830166 -1.24609,1.298652 -1.51798,1.026761 z m 26.20803,-3.078283 c -0.39257,-1.643332 -1.99406,-2.76333 -3.8828,-2.715412 l -0.50938,0.01263 -0.0204,-0.118395 c -0.0108,-0.06515 -0.11695,-0.872885 -0.23519,-1.795078 -0.11821,-0.922193 -0.35898,-2.791647 -0.5352,-4.154352 l -0.32036,-2.477613 -2.84319,-3.874196 c -1.56376,-2.130805 -3.05354,-4.16121 -3.31063,-4.512024 -0.44678,-0.609622 -0.51428,-0.723269 -0.42967,-0.723269 0.0208,0 0.19966,-0.154309 0.3975,-0.343 1.36065,-1.297516 1.69255,-3.214581 0.81021,-4.679834 l -0.13175,-0.218921 1.36646,-1.00108 c 0.75156,-0.550605 2.32516,-1.703233 3.49689,-2.56141 1.17174,-0.858176 2.94709,-2.160458 3.94522,-2.893978 0.99814,-0.73352 4.70863,-3.455394 8.24552,-6.048639 3.53691,-2.593229 6.5905,-4.832953 6.78579,-4.977156 0.91809,-0.677968 1.58341,-1.166868 5.38341,-3.955879 1.48538,-1.090183 3.27102,-2.399357 3.96809,-2.909282 0.69707,-0.509926 1.89271,-1.388713 2.65697,-1.95289 0.76423,-0.564159 1.41631,-1.0435105 1.44905,-1.0652042 0.0442,-0.029238 0.0744,-0.019128 0.11713,0.039528 0.12939,0.17705 0.52324,0.5504972 0.72673,0.6891942 0.28216,0.192354 0.48043,0.291726 0.79186,0.396909 0.42444,0.143301 0.50415,0.156476 1.10604,0.182844 0.88555,0.03881 1.6915,-0.183764 2.4722,-0.682463 0.11443,-0.07309 0.21496,-0.132832 0.22359,-0.132832 0.018,0 -0.0322,-0.06786 2.72407,3.688771 1.14623,1.562314 2.17592,2.964852 2.28821,3.116742 0.46248,0.625648 2.99797,4.081168 3.98033,5.424671 0.32524,0.444826 0.73907,1.008642 0.91956,1.252938 0.1805,0.244278 0.32818,0.458109 0.32818,0.475183 0,0.01624 -0.0861,0.09656 -0.19112,0.176868 -0.58623,0.447065 -1.11099,1.210617 -1.36159,1.981154 -0.32663,1.004346 -0.21193,2.106259 0.30306,2.911321 l 0.14204,0.222152 -1.52234,1.116009 c -0.83727,0.613808 -1.70484,1.249166 -1.92791,1.411922 -1.5055,1.09834 -2.25352,1.648727 -2.34244,1.723573 l -0.10248,0.08627 0.13807,-0.01823 c 0.076,-0.01083 0.25349,-0.03555 0.39453,-0.05649 0.14095,-0.02111 0.70027,-0.09186 1.24274,-0.157377 0.54246,-0.06551 1.04843,-0.127058 1.12438,-0.136803 0.076,-0.009 0.21798,-0.02797 0.31562,-0.04043 0.0976,-0.01263 0.24855,-0.03176 0.33534,-0.04295 0.0868,-0.01083 0.33536,-0.04656 0.55235,-0.07887 0.86573,-0.128681 3.74939,-0.490018 3.78906,-0.474786 0.0232,0.009 0.0724,0.155753 0.10901,0.326144 0.087,0.404814 0.39462,1.025517 0.67686,1.365882 0.73149,0.88209 1.95154,1.396075 3.23504,1.362832 l 0.47179,-0.01264 0.0285,0.138066 c 0.0162,0.07598 0.0397,0.235724 0.0533,0.355075 0.0144,0.119296 0.0408,0.332387 0.0603,0.473431 0.0195,0.140955 0.0989,0.753535 0.17633,1.3611 0.0774,0.607563 0.18582,1.450851 0.2409,1.873984 0.0551,0.423114 0.18674,1.443939 0.29258,2.268492 0.10577,0.824553 0.23864,1.854258 0.29517,2.288237 0.0564,0.43398 0.13698,1.055351 0.17868,1.380826 0.0417,0.325494 0.11226,0.875845 0.15684,1.223015 0.0445,0.347186 0.11567,0.897539 0.15809,1.223032 0.0424,0.325476 0.14041,1.088884 0.21783,1.696447 0.0774,0.607564 0.19319,1.501368 0.25737,1.986242 0.0643,0.484874 0.10684,0.897648 0.0945,0.917265 -0.0126,0.01967 -0.0636,0.03574 -0.11407,0.03574 -0.18403,0 -0.87515,0.205151 -1.19314,0.354171 -1.38281,0.647991 -2.22884,1.892123 -2.23408,3.285293 -8.6e-4,0.233269 -0.008,0.424125 -0.0193,0.424125 -0.0211,0 -2.85106,0.361806 -6.04374,0.772702 -1.26939,0.163334 -2.84944,0.366697 -3.51125,0.451828 -0.66182,0.08519 -1.81578,0.23428 -2.5644,0.331414 -1.85243,0.240398 -10.43221,1.345524 -12.74309,1.641383 -1.03068,0.13193 -2.53972,0.326937 -3.35343,0.433257 -0.81369,0.106303 -2.86424,0.371895 -4.55674,0.590148 -1.69249,0.218253 -3.61876,0.467043 -4.28055,0.552861 -2.27804,0.295407 -5.23033,0.675749 -6.60826,0.851319 -0.75946,0.09674 -1.5723,0.202281 -1.8063,0.234441 -0.23401,0.03212 -0.42954,0.05848 -0.4345,0.05848 -0.005,0 -0.0473,-0.159724 -0.0939,-0.355074 z M 2.7568491,21.411425 C 2.4269699,21.305847 2.0522593,20.816657 2.0522593,20.49147 c 0,-0.168207 0.1301255,-0.466664 0.2996125,-0.687642 l 0.1743427,-0.227259 -0.079226,-0.235056 c -0.1292227,-0.383355 -0.094025,-0.626369 0.1286816,-0.890392 0.1131601,-0.134276 0.4479119,-0.3123 0.6627363,-0.352584 0.1340953,-0.02509 0.1429387,-0.03681 0.1872832,-0.250198 0.1671234,-0.802264 1.0604933,-1.13828 1.9347686,-0.727672 0.4353511,0.204465 0.6730776,0.530536 0.6028723,0.826864 -0.019668,0.08266 -0.047463,0.178674 -0.061902,0.21338 -0.018406,0.0444 0.024368,0.101791 0.1452854,0.194664 0.2346766,0.180118 0.3131673,0.294848 0.3351316,0.489693 0.044037,0.390846 -0.4294315,0.854279 -1.1796823,1.154614 -0.24657,0.09873 -0.3045031,0.144563 -0.5586,0.442642 -0.3295355,0.386531 -0.7867247,0.764996 -1.0828905,0.89642 -0.2711514,0.12038 -0.5700967,0.147272 -0.8039797,0.07255 z M 23.356467,15.999009 c -0.108467,-0.03935 -0.305893,-0.253501 -0.375088,-0.406943 -0.06172,-0.136984 -0.0776,-0.147993 -0.164778,-0.114966 -0.05307,0.02021 -0.172718,0.03664 -0.265881,0.03664 -0.141856,0 -0.198978,-0.02599 -0.351771,-0.160446 -0.361482,-0.318202 -0.529056,-0.887974 -0.370776,-1.260789 0.06696,-0.157739 0.288153,-0.395177 0.465292,-0.499385 0.07219,-0.04259 0.172719,-0.167484 0.247202,-0.307247 0.162612,-0.305262 0.576486,-0.715978 0.890212,-0.883191 0.441722,-0.235434 0.797897,-0.212044 1.123444,0.07381 0.307519,0.269996 0.439539,0.669323 0.345185,1.044052 -0.04295,0.170552 -0.03791,0.197335 0.08916,0.465761 0.395644,0.836736 0.228756,1.386854 -0.469986,1.549285 -0.15088,0.03501 -0.267975,0.09565 -0.379041,0.195946 -0.262778,0.237402 -0.573382,0.343505 -0.783062,0.267487 z M 8.0600933,8.8895327 C 7.5547522,8.7594072 7.0246132,8.2912455 6.7458638,7.7287107 6.6052707,7.4450706 6.5744088,7.3401397 6.5585085,7.092162 6.5301726,6.6513972 6.5942493,6.469673 6.8780283,6.1849307 l 0.23437,-0.2351274 0.032304,-0.4158237 C 7.2333173,4.3932812 7.670636,3.7806998 8.4994126,3.6363709 c 0.306471,-0.053421 0.7283406,-0.022379 1.0487812,0.077065 l 0.2169897,0.067319 0.5128665,-0.258572 c 1.088324,-0.5486736 2.041107,-0.7469478 2.671899,-0.5560011 0.662248,0.2004759 1.017088,1.2485349 0.701106,2.0708327 -0.136442,0.3551641 -0.552356,0.7543119 -1.015951,0.975056 l -0.35363,0.1683859 -0.04837,0.3155139 C 12.061472,7.6165447 11.355907,8.1352952 10.275382,7.9351256 10.042275,7.8919905 10.04094,7.8921709 9.9630993,8.0040717 9.9201446,8.0659735 9.7603126,8.2409145 9.6080244,8.3929852 9.2316726,8.768797 8.9719818,8.8924608 8.5235819,8.9094262 8.338482,8.9166401 8.1298849,8.9076227 8.0600402,8.8895773 Z"
       id="path917" /></g></svg>
