<?xml version="1.0" encoding="UTF-8" standalone="no"?>
<!-- Created with Inkscape (http://www.inkscape.org/) -->

<svg
   width="196mm"
   height="189mm"
   viewBox="0 0 196 189"
   version="1.1"
   id="svg2393"
   xml:space="preserve"
   inkscape:version="1.2.2 (732a01da63, 2022-12-09)"
   sodipodi:docname="empregos_art.svg"
   xmlns:inkscape="http://www.inkscape.org/namespaces/inkscape"
   xmlns:sodipodi="http://sodipodi.sourceforge.net/DTD/sodipodi-0.dtd"
   xmlns="http://www.w3.org/2000/svg"
   xmlns:svg="http://www.w3.org/2000/svg"><sodipodi:namedview
     id="namedview2395"
     pagecolor="#ffffff"
     bordercolor="#000000"
     borderopacity="0.25"
     inkscape:showpageshadow="false"
     inkscape:pageopacity="0.0"
     inkscape:pagecheckerboard="0"
     inkscape:deskcolor="#d1d1d1"
     inkscape:document-units="mm"
     showgrid="false"
     showguides="false"
     inkscape:zoom="0.71624579"
     inkscape:cx="303.66671"
     inkscape:cy="430.71806"
     inkscape:window-width="1920"
     inkscape:window-height="991"
     inkscape:window-x="-9"
     inkscape:window-y="-9"
     inkscape:window-maximized="1"
     inkscape:current-layer="layer5"
     borderlayer="false"
     showborder="false"
     shape-rendering="crispEdges" /><defs
     id="defs2390" /><g
     inkscape:groupmode="layer"
     id="layer4"
     inkscape:label="icon_trade"
     transform="translate(-6.7913913,-8.097428)"><path
       id="path2889-4"
       style="fill:#141414;stroke-width:0.115821;fill-opacity:1"
       d="m 162.75742,73.358844 c -4.50517,0.231855 -7.05521,5.443168 -4.41794,9.029312 0.34985,0.475724 0.35021,0.47551 -0.73463,1.528637 -1.69159,1.642107 -2.61217,3.999102 -2.61446,6.693084 -0.001,1.956414 2.1562,3.119164 6.48611,3.498398 3.7515,0.328574 8.12865,-0.638796 9.18201,-2.030842 1.3465,-1.779419 -0.0441,-6.504313 -2.51604,-8.549161 l -0.73635,-0.60908 0.44622,-0.634531 c 2.71213,-3.871743 -0.31315,-9.172053 -5.09492,-8.925817 z m 0.23584,2.285323 c 0.83355,-0.01938 1.70097,0.261994 2.44988,0.919558 1.75484,1.540769 1.2804,4.577123 -0.87883,5.61914 -2.22053,1.07161 -4.73973,-0.379472 -4.91505,-2.831627 -0.15494,-2.164735 1.51021,-3.664653 3.344,-3.707071 z m 11.07882,2.266659 c -1.14114,0.01354 -2.28358,0.145823 -2.52795,0.390216 -0.3723,0.372014 -0.53238,4.090793 -0.20697,4.804775 0.47628,1.045215 2.0174,0.651913 2.15299,-0.549698 0.0624,-0.554191 0.0631,-0.554831 2.86558,2.232725 3.15576,3.138851 3.38361,3.274288 4.138,2.468557 0.77216,-0.824721 0.65702,-1.015155 -2.5466,-4.226234 -2.71929,-2.7245 -2.74026,-2.751887 -2.32773,-2.751887 1.16633,0 1.76169,-1.246374 0.97215,-2.035921 -0.23871,-0.238649 -1.3783,-0.345879 -2.51946,-0.332533 z m -8.67305,6.528519 c 0.37662,0.06354 0.85957,0.494517 1.7051,1.335228 1.05916,1.053113 1.35919,1.820107 1.71019,4.377244 0.0971,0.707218 -0.54684,1.058315 -2.58055,1.406456 v 0.0016 c -0.60045,0.10277 -1.34951,0.186482 -1.66437,0.186482 -0.64129,0 -0.69323,0.157258 0.45129,-1.364041 0.37192,-0.494403 0.37192,-0.4947 -0.36985,-2.344719 -0.87486,-2.181851 -0.84693,-1.929471 -0.31556,-2.729828 0.41679,-0.627722 0.68715,-0.932195 1.06374,-0.868661 z m -4.66734,0.164584 c 0.41272,0.0056 0.78295,0.239113 1.08921,0.709181 l 0.47675,0.731235 -0.77195,1.925643 -0.77025,1.927335 0.64979,0.861887 c 0.35717,0.474739 0.64979,0.890808 0.64979,0.924624 0,0.399491 -4.24231,-0.452052 -4.64021,-0.931421 -0.35247,-0.424737 0.30718,-3.292868 0.98914,-4.300886 0.83278,-1.231012 1.63988,-1.856786 2.32773,-1.847598 z m 22.87358,4.96935 c -4.43323,0.228178 -6.9496,5.157589 -4.51974,8.852875 l 0.43772,0.666737 -1.08412,1.046819 c -1.64858,1.59124 -2.5976,4.02679 -2.60091,6.68461 -0.003,1.95153 2.16559,3.12167 6.48614,3.50008 3.75151,0.32854 8.12864,-0.64048 9.18199,-2.03251 1.33968,-1.77033 -0.0511,-6.51633 -2.50079,-8.537319 l -0.75161,-0.62094 0.44623,-0.634525 c 2.71213,-3.871754 -0.31316,-9.172075 -5.09491,-8.925827 z m 0.55989,2.30229 c 1.13344,0.0545 2.2462,0.652881 2.86726,1.922236 0.84387,1.724822 0.0422,3.882525 -1.73394,4.667354 -2.17705,0.961952 -4.62998,-0.525201 -4.80138,-2.911374 -0.16868,-2.348517 1.77902,-3.768896 3.66806,-3.678216 z m -19.16821,4.107449 c -0.30186,-0.05647 -0.50195,0.133942 -0.811,0.44283 -0.8105,0.810536 -0.77461,0.866578 2.66201,4.324622 2.67612,2.69286 2.67547,2.6942 2.11736,2.6942 -1.27958,0 -1.73176,1.57965 -0.6108,2.13265 1.16719,0.5758 4.77248,0.16449 5.05419,-0.57684 0.19238,-0.50632 0.14239,-4.05702 -0.0627,-4.45359 -0.56609,-1.094789 -2.1411,-0.613389 -2.1411,0.65488 0,0.55597 -4.7e-4,0.5561 -2.87233,-2.307379 -2.0467,-2.040687 -2.83244,-2.81718 -3.33553,-2.911373 z m 21.41452,4.813252 c 1.34806,0.0824 2.89918,2.42272 3.24727,5.51568 0.0872,0.77381 -0.49594,1.1062 -2.57714,1.46248 -0.60043,0.10277 -1.3495,0.18648 -1.66435,0.18648 -0.64127,0 -0.69323,0.15726 0.4513,-1.36408 0.3719,-0.49441 0.3719,-0.49466 -0.36986,-2.34471 -0.87487,-2.18186 -0.84692,-1.92946 -0.31558,-2.72982 0.35199,-0.53009 0.77898,-0.75364 1.22835,-0.72616 z m -4.81326,0.023 c 0.40576,0.0132 0.76964,0.24722 1.07054,0.70919 l 0.47674,0.73122 -0.77195,1.92565 -0.77026,1.92732 0.6498,0.86189 c 0.35751,0.47474 0.64981,0.89085 0.64981,0.92467 0,0.43944 -4.35456,-0.49064 -4.67074,-0.99762 -0.30799,-0.49395 0.40872,-3.34915 1.08921,-4.33823 0.80794,-1.17427 1.60056,-1.76632 2.27685,-1.74409 z" /><circle
       style="fill:#000000;fill-opacity:0;stroke:#141414;stroke-width:1.83877;stroke-dasharray:none;stroke-opacity:1"
       id="path3363-7"
       cx="174.08244"
       cy="91.953789"
       r="26.988237" /></g><g
     inkscape:groupmode="layer"
     id="layer5"
     inkscape:label="icon_hands"><path
       id="path2889-67"
       style="fill:#141414;stroke-width:0.134852;fill-opacity:1"
       d="m 19.383219,68.419842 v 0.0019 c -1.132536,-0.02673 -2.498731,1.581847 -6.412037,5.487556 -6.9849652,6.971545 -6.6575783,5.904555 -2.957122,9.63386 3.22903,3.254232 3.416435,3.337703 4.711262,2.082041 l 0.641984,-0.622237 1.064732,1.058806 c 1.064319,1.058093 1.06427,1.058002 1.122009,2.085978 0.189204,3.372026 5.334731,9.219686 9.461994,10.753915 2.234396,0.8306 2.734816,0.58725 6.417962,-3.109257 2.738066,-2.748104 2.925521,-2.90774 3.399604,-2.90774 2.635972,0 4.554928,-3.186183 3.405528,-5.655445 -0.341198,-0.73306 -0.341709,-0.732291 0.63804,-1.718596 l 0.979799,-0.985681 0.881007,0.861218 c 1.561389,1.530677 1.624374,1.507516 4.954212,-1.841025 3.67506,-3.695617 3.984377,-2.672914 -2.90181,-9.572616 -6.996398,-7.010087 -5.917377,-6.699115 -9.782021,-2.816877 -3.232396,3.247111 -3.223568,3.223107 -1.817325,4.687561 l 0.835578,0.869148 -0.973858,0.979787 -0.97386,0.979768 -0.914602,-0.454309 c -1.468388,-0.730113 -2.958689,-0.735112 -4.707285,-0.01908 -1.131513,0.463794 -2.560529,-1.691554 -1.718565,-2.591698 1.134764,-1.213131 1.092455,-1.301159 -2.046478,-4.454437 -1.688614,-1.696296 -2.427874,-2.709735 -3.308748,-2.731906 z m 19.042518,3.091431 4.347805,4.345795 4.34777,4.347789 -1.412382,1.418316 c -0.776718,0.779344 -1.444526,1.416337 -1.483503,1.416337 -0.03878,0 -2.012815,-1.942784 -4.385327,-4.31617 l -4.31221,-4.314192 1.447942,-1.449935 z M 19.420759,71.81364 c 0.38331,0.05932 0.683387,0.521119 1.339298,1.179298 l 1.412382,1.418278 -4.312227,4.31423 c -2.372083,2.372855 -4.344339,4.314194 -4.383314,4.314194 -0.03878,0 -0.721472,-0.653783 -1.5171,-1.451895 l -1.447942,-1.449934 4.28259,-4.280633 c 3.11994,-3.118786 3.987465,-4.142367 4.626313,-4.043538 z m 2.68848,6.441658 1.443981,1.441989 c 1.443521,1.443875 1.442217,1.444057 1.153625,1.752155 -1.553204,1.657957 0.280308,4.236583 2.323024,3.267269 0.244484,-0.11627 1.190374,-0.972703 2.101791,-1.902268 l 1.657328,-1.688953 3.547753,3.563575 c 4.016523,4.032624 4.096686,4.162291 3.154659,5.104361 -0.834308,0.834308 -1.236677,0.661985 -3.375892,-1.428183 -2.117286,-2.068899 -2.409591,-2.19761 -3.257379,-1.44009 -0.878053,0.784544 -0.6953,1.263701 1.2109,3.174405 l 1.635595,1.641579 -0.973859,0.973832 -0.973859,0.971877 -1.633615,-1.615834 c -1.888395,-1.866892 -2.347694,-2.043462 -3.170466,-1.220817 -0.787296,0.787346 -0.636671,1.156979 1.250404,3.065782 1.644836,1.663785 1.644836,1.665158 1.187206,2.137351 -1.888281,1.948211 -10.087957,-5.931738 -8.96618,-8.616521 0.311116,-0.744521 0.172653,-0.991615 -1.493388,-2.65294 -1.882207,-1.876837 -1.980918,-1.376736 0.81779,-4.171953 z m -8.093094,0.811879 c -1.218689,0 -1.796714,1.529944 -0.877046,2.321023 0.235276,0.202218 0.527663,0.302367 0.877046,0.302367 1.177468,0 1.757722,-1.291637 0.973859,-2.168952 -0.339053,-0.379208 -0.500288,-0.454309 -0.973859,-0.454309 z m 29.668023,0 c -1.21869,0 -1.796715,1.529944 -0.877062,2.321023 0.235292,0.202218 0.527679,0.302367 0.877062,0.302367 1.177468,0 1.757721,-1.291637 0.973859,-2.168952 -0.339054,-0.379208 -0.500272,-0.454309 -0.973859,-0.454309 z" /><circle
       style="fill:#000000;fill-opacity:0;stroke:#141414;stroke-width:1.83877;stroke-dasharray:none;stroke-opacity:1"
       id="path3363-0"
       cx="28.954987"
       cy="83.856361"
       r="26.988237" /><rect
       style="fill:#141414;fill-opacity:1;stroke:#000000;stroke-width:1.95764;stroke-dasharray:none;stroke-opacity:0"
       id="rect4813-4"
       width="2.3277371"
       x="70.074448"
       y="-95.226364"
       height="18.527536"
       transform="rotate(105.7242)" /><rect
       style="fill:#141414;fill-opacity:1;stroke:#000000;stroke-width:1.95764;stroke-dasharray:none;stroke-opacity:0"
       id="rect4813"
       width="2.3277371"
       x="96.460793"
       y="56.249298"
       height="18.527536" /><rect
       style="fill:#141414;fill-opacity:1;stroke:#000000;stroke-width:1.95764;stroke-dasharray:none;stroke-opacity:0"
       id="rect4813-4-8"
       width="2.3277371"
       x="122.99791"
       y="92.05304"
       height="18.527536"
       transform="matrix(0.27100703,0.96257737,0.96257737,-0.27100703,0,0)" /><rect
       style="fill:#141414;fill-opacity:1;stroke:#000000;stroke-width:1.95764;stroke-dasharray:none;stroke-opacity:0"
       id="rect4813-4-8-2"
       width="2.3277371"
       x="-4.109652"
       y="167.44434"
       height="18.527536"
       transform="matrix(-0.7519333,0.65923919,0.65923919,0.7519333,0,0)" /><rect
       style="fill:#141414;fill-opacity:1;stroke:#000000;stroke-width:1.95764;stroke-dasharray:none;stroke-opacity:0"
       id="rect4813-4-8-2-5"
       width="2.3277371"
       x="142.20709"
       y="40.070621"
       height="18.527536"
       transform="rotate(41.241875)" /></g><g
     inkscape:groupmode="layer"
     id="layer6"
     inkscape:label="icon_rise"><path
       id="path2889-6-0"
       style="fill:#141414;stroke-width:0.120682;fill-opacity:1"
       d="m 109.41704,10.693189 c -0.31433,-0.0035 -0.63614,0.01711 -0.96522,0.06363 -4.30263,0.603207 -6.58241,5.655404 -4.17024,9.243829 l 0.472,0.703578 -0.81495,0.844997 c -3.39682,3.519667 -4.220943,11.708797 -1.29933,12.912031 0.27635,0.113582 0.5806,0.246989 0.67707,0.295224 0.11715,0.0585 0.36176,1.0026 0.73894,2.853238 0.92048,4.516793 1.83319,6.008615 4.09423,6.696421 3.17497,0.965756 5.30936,-1.239531 6.39944,-6.611583 0.6278,-3.093968 0.56984,-2.950495 1.27988,-3.151984 3.02834,-0.85988 2.35834,-9.259739 -1.02356,-12.832462 -0.95285,-1.006773 -0.95343,-1.0065 -0.65408,-1.428398 2.90311,-4.089794 -0.0191,-9.532384 -4.73418,-9.588555 z m -0.0724,2.423675 c 0.20037,0.0035 0.40488,0.02394 0.61519,0.06363 3.62213,0.655856 3.98589,5.76997 0.49498,6.959828 -1.21297,0.413452 -3.04537,-0.0568 -3.8273,-0.982893 -2.09181,-2.47735 -0.28883,-6.099506 2.71713,-6.040566 z m -10.665159,0.06363 c -1.357094,0.06705 -5.718378,3.350844 -5.731204,4.426581 -0.007,0.676141 0.57501,1.151954 1.322306,1.080115 0.693305,-0.0667 0.73304,-0.201832 -0.57807,2.017068 -4.307408,7.289775 -9.114732,11.646264 -12.848388,11.646264 -1.474889,0 -2.239748,1.195092 -1.339973,2.094857 0.784098,0.784107 4.044245,0.137176 6.388824,-1.269291 3.567443,-2.139775 6.960423,-6.114114 10.4813,-12.277385 0.85478,-1.496132 0.854582,-1.495893 0.929861,-1.032393 0.160067,0.984398 1.193047,1.339385 1.94458,0.668238 0.900013,-0.803777 0.61633,-6.924628 -0.33943,-7.323982 -0.06168,-0.02736 -0.139269,-0.03421 -0.229806,-0.0308 z m 8.253869,9.118317 c 0.35594,-0.02394 0.65348,0.267856 1.04831,0.86094 0.55763,0.837436 0.57588,0.667143 -0.3076,2.847901 -0.89048,2.197965 -0.94374,1.747398 0.42956,3.585108 1.38448,1.852487 1.02468,1.847731 2.39713,0.02396 1.36334,-1.812737 1.31997,-1.373664 0.38008,-3.717704 l -0.77075,-1.919845 0.49851,-0.760124 c 1.73714,-2.646001 4.68878,1.958946 4.70588,7.341671 0.005,1.572075 -0.0809,1.791355 -0.69298,1.792554 -1.43472,0.0027 -1.48206,0.08862 -2.29637,4.136625 -0.77797,3.867401 -1.09661,4.677299 -2.07539,5.282219 -0.77041,0.476151 -1.93295,0.190542 -2.57745,-0.634648 -0.50239,-0.64313 -0.74634,-1.465208 -1.39128,-4.677606 -0.80796,-4.024525 -0.85338,-4.10837 -2.22563,-4.10837 -1.67744,0 -0.54681,-6.909848 1.47787,-9.031699 0.62971,-0.659994 1.04414,-0.996748 1.40011,-1.020012 z m -10.723472,5.14432 c -1.136506,0.01711 -2.179705,0.231937 -2.411291,0.664682 -0.335241,0.626502 -0.159241,15.644818 0.187394,15.991528 0.819073,0.819101 5.335616,0.414784 5.589793,-0.500307 0.214503,-0.77203 0.169083,-14.776869 -0.04946,-15.300301 -0.213279,-0.510432 -1.512669,-0.806546 -2.824942,-0.850301 -0.164024,-0.007 -0.329084,-0.007 -0.49142,-0.007 z m -0.127386,2.478443 0.572764,0.03901 0.574543,0.03729 0.03014,6.003447 0.03189,6.003447 h -0.604583 -0.60456 v -6.040563 z m -7.113623,4.762446 c -1.136494,0.01711 -2.179716,0.23194 -2.411279,0.664716 -0.327699,0.612274 -0.160882,8.402288 0.187394,8.750605 0.395203,0.395457 4.672281,0.504104 5.202633,0.132737 0.534343,-0.374315 0.813323,-7.553766 0.337638,-8.692276 -0.213279,-0.510434 -1.51268,-0.806581 -2.82493,-0.850334 -0.164024,-0.007 -0.329108,-0.007 -0.491456,-0.007 z m -7.240903,2.413072 c -1.136506,0.01711 -2.179705,0.231938 -2.411292,0.66468 -0.32139,0.600576 -0.162208,5.987988 0.187406,6.337569 0.395262,0.395457 4.672316,0.504104 5.202621,0.132737 0.528524,-0.370211 0.788358,-5.200596 0.337638,-6.27924 -0.213279,-0.510434 -1.51268,-0.806545 -2.82493,-0.850301 -0.164024,-0.007 -0.329084,-0.007 -0.491443,-0.007 z m 7.497234,0.09545 c 0.05493,-0.0012 0.117492,0.0024 0.18914,0.007 0.571739,0.03694 0.572146,0.0366 0.606352,2.420119 l 0.03189,2.383 h -0.606305 -0.604595 v -2.420118 c 0,-2.117881 -3.26e-4,-2.381839 0.383623,-2.390082 z m -7.05529,2.200906 c 0.288302,0.01024 0.583948,0.489431 0.611671,1.433702 0.03468,1.176622 0.03515,1.175595 -0.572786,1.175595 -0.607784,0 -0.608098,7.17e-4 -0.608098,-1.212713 0,-0.943313 0.280864,-1.405579 0.569213,-1.396584 z" /><circle
       style="fill:#000000;fill-opacity:0;stroke:#141414;stroke-width:1.83877;stroke-dasharray:none;stroke-opacity:1"
       id="path3363-4"
       cx="98.196983"
       cy="28.90613"
       r="26.988237" /></g><g
     inkscape:groupmode="layer"
     id="layer7"
     inkscape:label="icon_table"><path
       id="path2889-1"
       style="fill:#141414;stroke-width:0.12154;fill-opacity:1"
       d="m 50.330064,139.41778 c -0.963905,0.0592 -1.964285,0.3173 -2.969646,0.81361 -4.185702,2.06686 -5.44329,7.89954 -2.439108,11.31248 0.606958,0.68952 0.701103,0.4396 -0.697902,1.86226 -1.742908,1.77231 -2.455914,3.25927 -2.882424,6.01408 -0.108577,0.70175 -0.221019,1.39536 -0.249269,1.54005 -0.05016,0.2584 -0.09752,0.26322 -2.633167,0.30455 -2.36611,0.0386 -2.624026,0.0652 -3.069364,0.30457 -2.333188,1.25486 -2.187877,4.64765 0.238593,5.57434 0.551723,0.2105 0.551921,0.2105 0.551921,5.66336 v 5.45325 h 1.2142 1.216001 v -5.46931 -5.4693 h 12.154579 12.152825 v 5.4693 5.46931 h 1.215975 1.215998 v -5.46038 c 0,-5.45979 2.56e-4,-5.46065 0.441537,-5.60637 2.002491,-0.66091 2.613837,-3.50712 1.082465,-5.03849 -0.793235,-0.79315 -1.326249,-0.91153 -4.139355,-0.91153 h -2.326957 l -0.149499,-1.1519 c -0.427349,-3.26643 -1.385073,-5.28765 -3.348881,-7.06627 l -0.902638,-0.81722 0.526988,-0.67832 c 3.97716,-5.1245 0.155272,-11.7103 -5.252097,-12.1065 -0.311951,-0.0241 -0.629408,-0.0241 -0.950706,-0.007 z m 0.135311,2.43553 c 1.013776,-0.0554 2.062631,0.20085 3.003491,0.83321 3.536298,2.37712 2.714689,7.81355 -1.360202,9.00511 -3.475358,1.01627 -6.941382,-2.03217 -6.352348,-5.5868 0.412824,-2.49139 2.478796,-4.12908 4.709059,-4.25152 z m 0.389908,1.23381 c -1.042897,0.0311 -1.052405,0.95415 0.27238,1.24624 1.224471,0.27009 2.188073,1.32837 2.188073,2.40352 0,0.27011 0.08578,0.4544 0.270622,0.58392 0.334182,0.23395 0.342038,0.23326 0.690791,-0.009 1.195887,-0.83764 -0.861612,-3.78778 -2.912697,-4.17675 -0.190374,-0.0361 -0.360194,-0.051 -0.509181,-0.0462 z m -3.245611,10.62165 c 0.241398,0 2.026924,2.36784 1.960176,2.59936 -0.0213,0.0744 -0.47977,1.14727 -1.018362,2.38393 -0.538603,1.23665 -0.98014,2.31657 -0.98277,2.39995 -0.0035,0.11534 -0.49433,0.15132 -2.031393,0.15132 H 43.51126 l 0.09963,-0.75844 c 0.371391,-2.82133 0.898868,-3.97016 2.563723,-5.59214 0.669004,-0.65178 1.314369,-1.18396 1.434992,-1.18396 z m 6.154735,0.0443 c 0.258495,-0.0475 0.536381,0.226 1.159015,0.76022 1.855265,1.59167 2.597743,3.10949 2.953643,6.03191 0.08519,0.69887 0.08578,0.69789 -0.578617,0.69789 -0.664476,0 -0.664116,1.2e-4 -0.737078,-0.94182 -0.173301,-2.23685 -1.470839,-4.4064 -2.634952,-4.4064 -0.836962,0 -0.793898,0.59194 0.105097,1.44744 0.844899,0.80405 1.21402,1.64719 1.319268,3.0195 0.06762,0.88115 0.06611,0.88128 -0.721063,0.88128 -0.580025,0 -0.786915,-0.0427 -0.786915,-0.16369 0,-0.0903 -0.44575,-1.1845 -0.991662,-2.43198 -1.188927,-2.71684 -1.174984,-2.28309 -0.126408,-3.72988 0.54227,-0.74824 0.781247,-1.11688 1.039742,-1.16439 z m -2.903771,9.9042 c 7.102252,0.0171 14.179295,0.0912 14.296369,0.20845 0.226651,0.22669 0.250802,0.67308 0.04632,0.87774 -0.252886,0.25286 -28.853349,0.20739 -28.950608,-0.0462 -0.143562,-0.37402 -0.07112,-0.7726 0.162043,-0.8973 0.217322,-0.11616 7.343669,-0.15842 14.445921,-0.14225 z m -11.034738,4.87824 v 0.60886 0.60712 H 50.1556 60.487098 v 4.25332 4.25505 h 0.607097 0.60889 v -4.86217 -4.86218 H 50.764478 Z" /><circle
       style="fill:#000000;fill-opacity:0;stroke:#141414;stroke-width:1.83877;stroke-dasharray:none;stroke-opacity:1"
       id="path3363-2"
       cx="50.855282"
       cy="159.27504"
       r="26.988237" /></g><g
     inkscape:groupmode="layer"
     id="layer2"
     inkscape:label="icon_men"
     transform="translate(-24.553491,-19.851759)"><path
       id="path2889-7"
       style="fill:#141414;stroke-width:0.12154;fill-opacity:1"
       d="m 177.50495,159.84847 -7.47934,0.0356 c -7.46491,0.0371 -7.48312,0.0392 -8.33213,0.32224 -3.27327,1.09136 -4.46897,2.80946 -4.19456,6.0319 0.0228,0.26739 -0.0548,0.89625 -0.1727,1.3976 -0.62622,2.66468 0.13366,5.72704 2.00293,8.07932 0.41116,0.51743 0.70099,0.9834 0.6445,1.03439 -0.0565,0.0511 -1.30676,0.93072 -2.77739,1.95662 -4.40551,3.07327 -4.80472,3.60414 -6.44495,8.5262 -1.13479,3.40534 -1.16268,3.59468 -0.64627,4.4349 0.60377,0.98238 2.81945,2.32535 4.87287,2.95185 0.88798,0.27094 0.94182,0.30653 0.94182,0.63382 0,1.79954 2.64049,2.94353 7.7909,3.37558 7.59701,0.63731 14.05765,-0.95464 14.08453,-3.46994 10e-4,-0.2021 0.16964,-0.30321 0.88308,-0.53233 5.13793,-1.64997 5.80463,-2.82687 4.22835,-7.4651 -1.6764,-4.93287 -1.99376,-5.34342 -6.62833,-8.57781 -1.4706,-1.02637 -2.69564,-1.88611 -2.72217,-1.90678 -0.0265,-0.0223 0.1663,-0.27521 0.42907,-0.56082 1.71222,-1.86024 2.52395,-4.01261 2.52102,-6.69597 -0.001,-1.55982 -0.001,-1.56115 0.35963,-1.94595 1.14232,-1.21608 1.51195,-4.11339 0.85992,-6.74048 z m -1.89431,2.4302 -10e-4,1.19107 c -7.4e-4,1.32568 -0.14225,2.00102 -0.49314,2.35188 -0.30583,0.30583 -0.20385,0.3271 -1.8142,-0.38813 -5.54853,-2.4643 -7.80844,-2.53012 -12.40027,-0.35786 -1.06608,0.50446 -1.13696,0.495 -1.06288,-0.16201 0.10556,-0.93743 0.89181,-1.73159 2.26284,-2.28599 0.67994,-0.27492 0.74441,-0.27822 7.09835,-0.31334 z m -9.08346,3.66579 c 0.15791,-0.003 0.31604,-0.001 0.47536,0.007 1.27457,0.0678 2.63358,0.53846 4.71798,1.44387 1.03612,0.45004 1.97478,0.84763 2.08482,0.88484 0.25412,0.086 0.3989,1.06179 0.28839,1.93883 -0.37551,2.98443 -2.23195,5.30952 -4.97789,6.23128 -4.71387,1.58242 -9.53917,-1.93195 -9.54813,-6.95412 -0.001,-1.11959 0.41308,-1.4512 3.22247,-2.57798 1.52975,-0.61354 2.63156,-0.94595 3.737,-0.97386 z m -4.11799,12.36824 c 0.19219,0.0205 0.41834,0.10742 0.78157,0.24747 0.53274,0.2054 1.19453,0.40811 1.4706,0.45221 0.73774,0.11797 0.72754,0.1577 -0.47359,1.74833 -1.31208,1.73762 -0.90198,1.72118 -2.51923,0.0925 l -1.35664,-1.36733 0.95429,-0.64982 c 0.4777,-0.32527 0.71733,-0.48704 0.95784,-0.52166 0.0601,-0.008 0.12111,-0.008 0.18516,-0.002 z m 8.74339,0.002 c 0.55454,0.0328 2.65043,1.26104 2.62783,1.57563 -0.003,0.0451 -0.67955,0.61586 -1.50442,1.26762 -0.82487,0.65173 -1.52687,1.18573 -1.5596,1.18573 -0.0327,0 -0.4595,-0.534 -0.94716,-1.18573 -0.48766,-0.65176 -1.019,-1.36099 -1.18037,-1.57562 -0.29341,-0.38996 -0.29323,-0.38992 0.0517,-0.46469 0.39952,-0.0866 1.87404,-0.56831 2.42307,-0.79225 0.0221,-0.009 0.052,-0.0129 0.0892,-0.0105 z m -12.99314,2.84503 c 0.32693,0.0441 0.79944,0.51149 2.17205,1.87474 2.50074,2.48357 2.63322,2.56937 3.38449,2.17739 0.31097,-0.16228 0.34603,-0.1429 1.06465,0.58218 0.9068,0.91489 0.95884,0.43966 -0.43262,3.92393 l -1.17505,2.94296 1.24093,1.65218 c 0.68286,0.90954 1.27314,1.73342 1.31034,1.83022 0.0754,0.19673 0.17411,0.19501 -1.8053,0.0427 -1.68549,-0.12971 -3.37179,-0.40403 -4.35833,-0.70858 -1.32981,-0.41075 -1.28119,-0.12029 -0.59287,-3.5287 0.66617,-3.29802 0.66484,-3.60574 -0.0132,-3.95599 -1.20675,-0.62404 -1.65755,-0.10335 -2.17559,2.51211 l -0.4005,2.02425 -0.84568,-0.28842 c -1.07507,-0.36568 -2.48436,-1.0498 -2.95542,-1.43498 -0.36462,-0.29812 -0.36526,-0.29874 0.51987,-2.96788 1.30435,-3.93339 1.62531,-4.38596 4.55952,-6.4663 0.14554,-0.10324 0.25399,-0.18094 0.36854,-0.20653 0.0429,-0.009 0.0868,-0.0118 0.13349,-0.006 z m 17.72893,0.26707 c 0.23451,-0.0874 2.20622,1.44528 2.75959,2.14534 1.08421,1.37164 2.97801,6.73632 2.52634,7.15708 -0.66706,0.62145 -3.82403,1.96525 -3.92215,1.66999 -0.0276,-0.083 -0.19211,-0.88861 -0.36676,-1.79105 -0.49331,-2.54906 -0.63817,-2.79518 -1.6433,-2.79518 -1.19208,0 -1.27195,0.62895 -0.543,4.25331 0.3008,1.49564 0.54657,2.78693 0.54657,2.86995 0,0.33608 -2.15951,0.90144 -4.31562,1.13053 -1.53021,0.16156 -3.09785,0.25793 -3.09785,0.18695 0,-0.0327 0.59595,-0.85358 1.32459,-1.8231 l 1.3246,-1.76257 -1.22133,-3.04621 -1.22133,-3.048 0.79226,-0.79227 c 0.79172,-0.79171 0.79147,-0.79089 1.11274,-0.5804 0.5665,0.3712 0.93357,0.17582 3.43788,-1.83021 1.2972,-1.03912 2.42573,-1.91316 2.50677,-1.94416 z" /><circle
       style="fill:#000000;fill-opacity:0;stroke:#141414;stroke-width:1.83877;stroke-dasharray:none;stroke-opacity:1"
       id="path3363-74"
       cx="166.49092"
       cy="179.14008"
       r="26.988237" /></g><g
     inkscape:groupmode="layer"
     id="layer3"
     inkscape:label="icon_woman 1"
     transform="translate(4.3707428,6.8914108)"><path
       id="path2889-2-7"
       style="fill:#141414;stroke-width:0.123192;fill-opacity:1"
       d="m 92.724796,75.50568 c -4.122784,0.125547 -8.156275,2.228634 -9.926938,6.133739 -0.746075,1.645454 -0.763661,1.822176 -0.824682,8.107928 l -0.05598,5.756575 -0.831898,0.615361 c -2.168741,1.607745 -2.875477,2.774208 -4.338204,7.149697 -1.512726,4.52507 -0.798111,5.76986 4.219094,7.35543 1.096364,0.34663 1.095933,0.34656 1.097179,0.77777 0.0035,1.8276 2.920099,2.96633 8.624033,3.36733 7.239263,0.50889 13.42645,-1.03671 13.4278,-3.3547 2.4e-4,-0.44334 2.9e-4,-0.44364 1.09716,-0.7904 5.01722,-1.58557 5.73181,-2.83036 4.2191,-7.35543 -1.474,-4.409299 -2.10553,-5.447016 -4.36165,-7.165945 l -0.95461,-0.727243 -0.001,-5.691609 c -10e-4,-6.920677 -0.0912,-7.440356 -1.64935,-9.623773 -2.10681,-2.95242 -5.492261,-4.437726 -8.91457,-4.552926 -0.275011,-0.0093 -0.549835,-0.01047 -0.824706,-0.0023 z m 0.411462,2.515574 c 3.589022,-0.0058 7.158292,1.78989 8.270342,5.390248 0.2385,0.772122 0.39882,10.497175 0.17323,10.497175 -0.97701,0 -1.16035,-0.693153 -1.16035,-4.35984 0,-5.513443 0.7473,-4.885804 -8.624022,-7.238122 -4.919393,-1.234818 -6.0726,0.03422 -6.13915,6.752696 -0.04155,4.215253 -0.04213,4.215043 -0.339256,4.406755 v 0.0023 c -0.163361,0.105679 -0.43992,0.28353 -0.615361,0.397007 -0.45349,0.293132 -0.413197,-9.043503 0.04516,-10.430404 1.191057,-3.604664 4.800411,-5.411418 8.389467,-5.417319 z m -3.906897,6.429676 c 0.9572,-0.05703 2.755843,0.457772 6.139151,1.313728 1.050228,0.265572 2.062002,0.516059 2.248489,0.557621 0.664197,0.148591 0.503036,4.382559 -0.185893,4.890378 -0.770248,0.567735 -1.908326,1.074798 -2.874674,1.279441 -2.058942,0.436195 -4.446153,-0.131622 -6.003793,-1.427415 -0.470424,-0.391363 -0.470552,-0.391235 -0.431318,-3.076792 0.03585,-2.446777 -0.122765,-3.463649 1.108015,-3.536961 z m -0.797611,9.623773 c 0.219157,0.01629 0.603594,0.15867 1.376868,0.443923 2.13201,0.786903 4.43427,0.785262 6.572238,-0.0035 1.534095,-0.566303 1.524913,-0.565593 1.752239,-0.126314 0.124918,0.241723 0.668317,0.697727 1.486982,1.246957 1.575323,1.056944 1.727183,0.762857 -1.142302,2.19977 -2.958775,1.481652 -2.578213,1.016685 -4.033212,4.942711 -1.314578,3.54708 -1.354231,3.63227 -1.517638,3.19228 -2.835999,-7.632666 -2.166495,-6.532579 -5.040168,-8.259502 -2.651793,-1.593592 -2.493682,-1.292325 -1.144106,-2.19977 0.67189,-0.451767 1.18341,-0.893083 1.302916,-1.12425 0.113477,-0.219413 0.167096,-0.328467 0.386183,-0.312197 z m -5.498546,3.83291 c 0.05331,-0.0047 0.109287,-0.0035 0.167842,0.0035 0.469295,0.05633 1.150321,0.502326 2.667156,1.412988 l 2.640085,1.584409 1.786515,4.78211 c 2.818435,7.54468 2.969564,7.54623 5.781843,0.029 l 1.777495,-4.75504 2.91618,-1.452669 c 2.91612,-1.454026 2.91585,-1.455178 3.4287,-1.043052 1.2566,1.009872 1.83577,2.076601 2.97754,5.493111 0.9996,2.99114 1.0507,2.88731 -2.03375,4.11262 -1.44267,0.57308 -1.32638,0.68159 -1.79194,-1.66562 -0.52211,-2.63249 -1.18194,-3.29185 -2.32971,-2.3261 -0.51472,0.43319 -0.50075,0.7525 0.17507,4.11263 0.37976,1.88741 0.51434,2.79798 0.42948,2.89995 -0.34338,0.41374 -2.948645,0.95691 -5.590557,1.16573 v 0.001 c -3.684424,0.29109 -7.988666,-0.0256 -10.329357,-0.75791 -1.181664,-0.36985 -1.151811,-0.18466 -0.523322,-3.3096 0.675823,-3.36011 0.689801,-3.67942 0.175057,-4.11261 -1.147795,-0.96576 -1.809385,-0.30633 -2.331508,2.3261 -0.465536,2.34722 -0.347461,2.2387 -1.790123,1.66561 -3.1135,-1.23681 -3.048986,-1.09143 -1.957964,-4.33096 1.018839,-3.02517 1.454149,-3.872289 2.524582,-4.90663 0.586939,-0.567141 0.85769,-0.894316 1.230721,-0.929349 z"
       inkscape:transform-center-x="0.029097919"
       inkscape:transform-center-y="0.097493108" /><circle
       style="fill:#141414;fill-opacity:0;stroke:#141414;stroke-width:1.83877;stroke-dasharray:none;stroke-opacity:1"
       id="path3363-5"
       cx="92.96637"
       cy="95.237686"
       r="26.988237"
       inkscape:transform-center-x="0.15200383"
       inkscape:transform-center-y="0.15200522" /></g></svg>
