<?xml version="1.0" encoding="UTF-8" standalone="no"?>
<!-- Created with Inkscape (http://www.inkscape.org/) -->

<svg
   width="254mm"
   height="189mm"
   viewBox="0 0 254 189"
   version="1.1"
   id="svg5"
   xml:space="preserve"
   inkscape:version="1.2.2 (732a01da63, 2022-12-09)"
   sodipodi:docname="art_esportes.svg"
   xmlns:inkscape="http://www.inkscape.org/namespaces/inkscape"
   xmlns:sodipodi="http://sodipodi.sourceforge.net/DTD/sodipodi-0.dtd"
   xmlns="http://www.w3.org/2000/svg"
   xmlns:svg="http://www.w3.org/2000/svg"><sodipodi:namedview
     id="namedview7"
     pagecolor="#ffffff"
     bordercolor="#000000"
     borderopacity="0.25"
     inkscape:showpageshadow="false"
     inkscape:pageopacity="0.0"
     inkscape:pagecheckerboard="0"
     inkscape:deskcolor="#d1d1d1"
     inkscape:document-units="mm"
     showgrid="false"
     inkscape:zoom="0.71624579"
     inkscape:cx="383.24833"
     inkscape:cy="326.00541"
     inkscape:window-width="1920"
     inkscape:window-height="991"
     inkscape:window-x="-9"
     inkscape:window-y="-9"
     inkscape:window-maximized="1"
     inkscape:current-layer="layer1"
     showborder="false"
     borderlayer="false"
     shape-rendering="crispEdges" /><defs
     id="defs2" /><g
     inkscape:label="Camada 1"
     inkscape:groupmode="layer"
     id="layer1"><path
       id="path438"
       style="fill:#141414;stroke-width:0.161316;fill-opacity:1"
       d="m 223.61788,1.16427 c -1.23944,0.03057 -2.53294,0.3531502 -3.82458,1.0381795 -7.61913,4.040926 -4.51137,15.7651995 4.18424,15.7855995 0.89612,0.0018 1.0084,0.0365 0.9307,0.284737 -1.8507,5.910395 -3.21939,9.181798 -4.87258,11.648385 -1.17253,1.749403 -1.13417,1.714228 -1.6371,1.506368 -0.24255,-0.10024 -1.13281,-0.473997 -1.97818,-0.830957 -2.89973,-1.224459 -4.16255,-1.52041 -6.63112,-1.55391 -2.19926,-0.02981 -2.19887,-0.02962 -3.23288,-0.682646 -3.04035,-1.920158 -5.58883,-2.811608 -8.19846,-2.867008 -1.69381,-0.03591 -1.6937,-0.03572 -2.78795,-0.779798 -0.60183,-0.409209 -1.40044,-0.826238 -1.77456,-0.926558 -1.34468,-0.36055 -1.30739,-0.316666 -1.88309,-2.189014 -0.74766,-2.431587 -0.76146,-2.766407 -0.19172,-4.597135 2.05295,-6.596834 0.42065,-10.0397582 -5.30976,-11.200867 -5.21908,-1.0575289 -8.70191,1.8529731 -8.51989,7.119462 0.0399,1.153399 -0.008,1.412078 -0.40618,2.226738 -0.49451,1.010779 -0.4726,1.340902 0.0935,1.421101 0.34672,0.04914 0.36882,0.116036 0.31832,0.957565 -0.0427,0.711729 7.4e-4,0.925839 0.20206,1.003039 0.14856,0.057 0.25596,0.286277 0.25631,0.546737 6.1e-4,0.482689 0.52087,1.451784 0.94723,1.764233 0.2388,0.17503 0.23333,0.230863 -0.0656,0.632003 -0.83822,1.124649 -1.84039,1.25323 -4.70048,0.603581 -4.05338,-0.920709 -7.52536,-0.589257 -9.31468,0.889351 -0.7248,0.59895 -0.72464,0.599265 -3.75688,0.976685 -10.71647,1.333838 -20.75478,3.58225 -25.70282,5.757788 -2.55033,1.121309 -2.80835,1.141211 -9.10901,0.713651 -5.39038,-0.365779 -5.67638,-0.373497 -5.80533,-0.164847 -0.15887,0.257029 0.0684,0.396566 1.36943,0.842325 l 1.04851,0.359152 -1.12447,0.130224 c -2.66768,0.309225 -1.0753,1.055074 2.33422,1.093474 l 1.04851,0.01188 -0.88728,0.37052 c -2.17595,0.909129 -2.77825,1.362076 -2.4076,1.808675 0.30184,0.3637 2.02382,0.120721 3.59151,-0.506429 0.16322,-0.06531 -0.11244,0.268241 -0.61237,0.74104 -1.7469,1.652159 -1.08942,1.945214 2.03244,0.906405 3.3395,-1.111219 3.15377,-1.134108 2.28616,0.285771 -2.06523,3.379876 -0.5947,3.546191 2.70423,0.305924 l 1.22215,-1.20096 4.74958,-0.632003 c 7.69386,-1.024319 13.3119,-1.944365 17.24546,-2.824634 6.47262,-1.448453 14.41838,-2.235797 15.54427,-1.539957 1.93767,1.197558 2.84533,3.112287 2.84633,6.005834 0.002,5.154605 1.72271,19.896301 2.91404,24.969536 0.48512,2.065958 -0.44507,15.66394 -1.53996,22.514388 -1.37682,8.614411 0.0487,15.022804 3.94136,17.718297 2.74708,1.90221 9.63544,-1.19627 20.66954,-9.296589 1.23358,-0.905589 2.4065,-1.743132 2.60656,-1.861902 0.33144,-0.19681 0.67912,-0.07331 3.91294,1.39268 8.55128,3.876566 13.45753,4.451642 24.53907,2.877344 l 2.43861,-0.346232 0.33642,0.584977 c 0.57078,0.991759 1.12345,1.543326 1.92288,1.918746 2.00312,0.940679 5.8696,4.394466 8.16229,7.291546 2.0202,2.55272 3.72947,3.47807 5.19606,2.81326 3.14391,-1.42516 1.98705,-7.236578 -2.38125,-11.961024 -0.83666,-0.904899 -1.20031,-1.479471 -1.82934,-2.89233 -1.77551,-3.988056 -3.47809,-6.061128 -4.97851,-6.061128 -1.1225,0 -4.30121,1.784179 -4.57853,2.569869 -0.026,0.07375 -0.69886,-0.07556 -1.49552,-0.331763 -5.33295,-1.714968 -9.30893,-2.441299 -13.48031,-2.462899 l -3.24683,-0.01705 -1.09141,-2.382284 c -2.37387,-5.183639 -5.54842,-10.520727 -7.36337,-12.378055 -0.79116,-0.80966 -0.89328,-0.999976 -1.16531,-2.177645 -0.36283,-1.570809 -0.86375,-2.847255 -1.59938,-4.075204 -0.305,-0.509129 -0.93266,-1.646712 -1.39527,-2.528011 -1.52711,-2.909177 -2.84555,-4.639268 -3.98373,-5.227588 -0.38204,-0.197479 -0.68399,-0.597611 -1.14774,-1.521871 l -0.6289,-1.254187 0.30438,-1.488281 c 0.18147,-0.885629 0.3625,-2.741858 0.447,-4.584216 0.24671,-5.381305 0.71763,-7.89444 1.72599,-9.215458 0.31685,-0.41511 0.90566,-1.322325 1.30896,-2.016415 0.52645,-0.906069 0.80524,-1.23924 0.98754,-1.18184 0.13965,0.04396 0.94358,0.347045 1.78646,0.673344 7.21109,2.791597 16.96641,3.653869 18.82314,1.663981 1.69136,-1.812608 5.37383,-16.31289 5.37383,-21.160465 0,-0.912989 0.0311,-0.983898 0.79478,-1.819527 5.29962,-5.7985947 0.18584,-14.15076978 -6.50709,-13.98571 z M 115.26945,24.710636 c -0.0583,0.06379 -0.14069,0.156593 -0.20309,0.224793 0.12027,0.05353 0.23963,0.109065 0.35605,0.168465 -0.0505,-0.13181 -0.0989,-0.266648 -0.15296,-0.393258 z m 40.67245,23.166545 c 0.0223,0.16957 0.0771,0.333183 0.15348,0.489893 h 0.0129 c -0.0558,-0.16284 -0.114,-0.324073 -0.1664,-0.489893 z m 2.12184,0.448035 c -0.0717,0.0017 -0.16628,0.009 -0.21188,0.02274 -0.0188,0.0057 -0.0349,0.01312 -0.0532,0.01912 h 0.0512 c 0.0959,-0.0098 0.19353,-0.0094 0.28783,-0.02946 0.0466,-0.0103 -0.002,-0.0144 -0.0739,-0.0124 z" /><path
       id="path364"
       style="fill:#141414;stroke-width:0.0828676;fill-opacity:1"
       d="m 26.127152,71.860246 v 1.7e-4 c -0.17458,0.002 -0.36674,0.0418 -0.58554,0.11566 -0.31088,0.10498 -0.72655,0.17432 -1.04444,0.17432 -0.60474,0 -0.7405,0.0575 -1.28418,0.54389 -0.26072,0.23323 -0.53452,0.38859 -0.80824,0.45875 -1.15963,0.29719 -1.48868,1.14585 -0.94952,2.44831 0.38291,0.92504 0.43303,1.31772 0.24681,1.93278 -0.32546,1.07495 0.84105,1.903137 1.98807,1.41147 0.98476,-0.42212 1.19583,-0.28674 1.61597,1.035847 0.37312,1.17447 1.33172,2.13263 2.90018,2.89898 l 0.45588,0.2227 0.006,0.71805 c 0.007,0.76559 0.14971,1.37368 0.50764,2.15581 l 0.21429,0.46803 0.15897,-0.70439 c 0.54899,-2.43272 1.01382,-3.70286 1.59205,-4.35041 l 0.29588,-0.33146 -0.28593,0.48657 c -0.35352,0.60135 -0.57928,1.28618 -1.12335,3.40813 -0.23372,0.91154 -0.53412,2.03583 -0.66747,2.4984 -0.31007,1.07559 -0.32097,0.98219 0.22221,1.90512 2.25961,3.83939 2.91637,6.7482 2.14739,9.5111 -0.16381,0.58853 -0.26852,1.0947 -0.23266,1.12485 0.0359,0.0301 0.45681,0.196777 0.93536,0.370387 2.09252,0.75913 2.87272,1.15166 5.15258,2.59164 1.34607,0.8502 2.00911,1.12291 4.79145,1.9707 3.04676,0.92836 6.14737,2.04178 6.02541,2.16374 -0.017,0.017 -0.25174,-0.0587 -0.52147,-0.16809 -1.0117,-0.4104 -2.3053,-0.82732 -4.79955,-1.54703 -3.81158,-1.0998 -4.30839,-1.30389 -6.29784,-2.58623 -1.55055,-0.99944 -2.30226,-1.36525 -5.13775,-2.49992 -1.32173,-0.528907 -3.07448,-1.292737 -3.89487,-1.697397 -5.1951,-2.56251 -5.0984,-2.53462 -5.97904,-1.72741 -2.487171,2.27977 -3.673808,4.303637 -2.57511,4.391707 0.153157,0.0123 0.215624,0.0553 0.187305,0.12913 -0.134745,0.35116 0.400309,0.96676 0.829665,0.95459 0.15731,-0.004 0.26546,0.025 0.24041,0.0656 -0.25741,0.41651 1.25274,1.55857 2.06966,1.56523 0.48405,0.004 0.73094,-0.56696 0.40226,-0.93014 -0.13619,-0.15049 -0.1334,-0.16529 0.0621,-0.31746 0.35957,-0.27995 0.5014,-0.26654 1.34454,0.12746 1.91885,0.89667 3.3165,1.14175 4.26293,0.74755 0.22635,-0.0943 1.473,0.37382 1.73617,0.65195 0.007,0.007 -0.0955,0.53465 -0.22692,1.17273 -0.31861,1.54731 -0.5222,2.91938 -0.78076,5.26218 -0.33691,3.05273 -0.38424,3.20465 -1.50302,4.82281 -0.9797,1.41699 -1.06267,1.69256 -0.80285,2.66767 0.1775,0.66613 0.13311,0.81127 -0.45571,1.49223 -0.71153,0.82288 -1.30238,5.53914 -0.93065,7.42861 0.0855,0.43434 0.0745,0.59171 -0.0936,1.34218 -0.17127,0.7646 -0.19014,1.05886 -0.18883,2.92191 0.005,6.41246 2.1943,9.73041 7.16645,10.86068 1.35616,0.30829 1.26824,0.24178 1.03331,0.78229 -0.3731,0.85846 -0.26974,1.18956 0.54389,1.74208 0.5048,0.3428 0.66022,0.53318 0.66022,0.80909 0,0.1551 -0.0903,0.29806 -0.64235,1.01747 -0.35115,0.45764 -0.34851,0.73211 0.0199,2.10776 0.15866,0.5925 0.32903,1.4874 0.37865,1.98874 0.0833,0.84155 0.22212,1.71848 0.89827,5.67641 0.35854,2.09865 0.44539,3.11437 0.41037,4.80072 l -0.031,1.49729 h 0.60171 0.60188 v 0.35219 c 5e-5,0.19371 -0.0589,1.14625 -0.13101,2.11688 -0.0984,1.32538 -0.1107,1.95476 -0.0492,2.52756 0.0451,0.41948 0.0708,0.77418 0.0573,0.78818 -0.0135,0.0139 -0.78398,-0.18106 -1.7119,-0.43329 -3.27634,-0.89056 -4.2107,-0.79626 -7.48172,0.75463 -2.70252,1.28135 -4.32647,1.33858 -10.28174,0.36198 -1.87057,-0.30676 -2.993878,-0.45537 -3.991808,-0.52788 -0.387881,-0.0282 -0.478537,-0.0765 -0.953061,-0.50914 -2.304765,-2.10119 -5.1171928,-2.87993 -5.4093538,-1.4978 l -0.08699,0.41137 -0.652626,0.18124 c -0.96035,0.26677 -1.397287,0.92084 -0.756153,1.13177 0.834044,0.27442 0.720971,1.6347 -0.135885,1.6347 -0.686536,0 -0.792649,0.47406 -0.319824,1.42866 0.486598,0.98241 0.397773,1.28826 -1.302396,4.4885 -0.532148,1.00166 -1.079629,2.09381 -1.216746,2.42691 l -0.249345,0.60559 h -0.437166 c -0.91371701,0 -1.10912301,1.1974 -0.246488,1.51044 0.197515,0.0717 0.228183,0.12051 0.190004,0.30263 -0.504493,2.40665 -0.168342,5.80823 0.612839,6.20124 v 1.7e-4 c 0.742001,0.37331 1.924781,-0.84616 3.570329,-3.68059 2.0697279,-3.56509 3.0275419,-4.28896 5.6853348,-4.29747 1.841406,-0.006 1.887423,-0.0219 1.887423,-0.65533 0,-0.42847 -0.26948,-0.76666 -0.816338,-1.02404 l -0.336348,-0.15831 0.27397,-0.14161 c 2.367841,-1.22448 4.347127,-1.36559 9.919588,-0.70727 1.14398,0.13515 2.7661,0.30263 3.60473,0.37209 0.83861,0.0694 2.88596,0.27314 4.54952,0.45268 5.32845,0.57504 5.82789,0.611 8.53526,0.61622 5.68875,0.0108 6.93102,-1.32007 7.99744,-8.56916 0.16428,-1.11663 0.46367,-2.78219 0.66528,-3.70132 1.21248,-5.5275 1.72287,-10.17229 1.98773,-18.08783 0.1303,-3.89388 0.10205,-3.70684 0.5653,-3.74751 l 0.31881,-0.028 0.26891,0.74586 c 1.43953,3.99187 4.20537,7.05415 8.05982,8.92403 2.02007,0.97997 2.65302,1.34668 3.72711,2.15886 0.44776,0.33856 1.70905,1.24306 2.80289,2.00998 2.5457,1.78484 3.65486,2.63001 4.88924,3.7256 0.54689,0.48539 1.19038,1.0131 1.42985,1.17274 l 0.43531,0.29032 -0.35253,0.26638 c -0.74543,0.56315 -0.7829,1.17202 -0.0927,1.50589 l 0.34259,0.1659 -0.0437,1.08322 c -0.0799,1.98237 0.40269,3.02568 1.66453,3.59848 0.43674,0.19825 0.5115,0.26752 0.62835,0.58384 0.23241,0.62924 0.90394,0.63084 1.02961,0.002 0.0432,-0.21601 0.0845,-0.23874 0.52754,-0.29133 0.26431,-0.0314 0.62223,-0.0939 0.79542,-0.13876 0.29283,-0.0759 0.33144,-0.0639 0.55113,0.1713 0.27759,0.29716 0.21039,0.28552 0.6936,0.12088 0.38778,-0.13208 0.38781,-0.13217 0.38911,-0.60087 0.002,-0.49325 0.39321,-0.97729 0.61301,-0.7575 0.31629,0.3163 0.99554,-0.2057 0.99909,-0.76777 0.007,-1.07812 3.6761,-3.87787 4.03885,-3.08174 0.18148,0.39832 0.89423,0.10071 0.89423,-0.37343 0,-0.44705 1.31933,-1.16331 1.54617,-0.83944 0.27634,0.39452 1.18843,-0.14182 1.18843,-0.69883 0,-0.22038 0.0557,-0.31631 0.26924,-0.46295 0.14813,-0.10172 0.48563,-0.36933 0.74992,-0.5948 0.46167,-0.39391 0.48674,-0.40443 0.63947,-0.26621 0.54193,0.49044 1.15422,-0.13389 0.85781,-0.87467 -0.13193,-0.32973 -0.12995,-0.34897 0.0799,-0.77756 0.57295,-1.17012 0.50515,-2.65854 -0.15106,-3.31473 -0.57387,-0.5739 -1.41145,-0.57528 -3.32603,-0.005 -2.4363,0.72561 -3.41643,0.70025 -5.62515,-0.14533 -0.40978,-0.15688 -0.92556,-0.35144 -1.14611,-0.43244 l -0.40092,-0.14735 0.46533,-0.25964 c 1.36619,-0.7624 1.93119,-1.66105 1.38668,-2.20555 -0.68934,-0.68936 -1.8043,-0.28535 -2.39606,0.86809 -0.15357,0.29934 -0.15367,0.29948 -0.11903,-0.49247 0.049,-1.1202 -0.2143,-1.61985 -0.85359,-1.61985 -0.77966,0 -0.77358,1.31436 0.0155,3.37071 0.026,0.068 -0.02,0.10942 -0.12139,0.10942 -1.11687,0 -2.13121,1.22373 -2.76596,3.33682 -0.38534,1.2828 -0.84844,2.28871 -1.268,2.75416 l -0.29875,0.33145 0.26335,-0.40395 c 0.35356,-0.54255 0.65844,-1.35097 1.064,-2.82041 0.45959,-1.66521 0.78793,-2.23907 1.55208,-2.71134 l 0.29117,-0.17989 -0.44409,-0.18174 c -1.59177,-0.6515 -2.30833,-1.19652 -6.03771,-4.59319 -2.54513,-2.31808 -3.04027,-2.75391 -4.43336,-3.90212 -3.2099,-2.64569 -6.02718,-5.83995 -8.29265,-9.40235 -1.65268,-2.59878 -2.54853,-3.39312 -4.61663,-4.09313 -0.537,-0.18177 -1.2739,-0.49182 -1.63755,-0.68888 l -0.66123,-0.35809 -0.0366,-0.78734 c -0.021,-0.45158 -0.13176,-1.17571 -0.25981,-1.69859 -0.28644,-1.1696 -0.34308,-2.23401 -0.16151,-3.03233 0.28985,-1.27441 0.30287,-1.69602 0.0749,-2.41782 -0.32734,-1.03621 -0.25145,-1.24276 0.94666,-2.57713 0.49236,-0.54837 0.71437,-0.90678 1.39697,-2.25613 l 0.81161,-1.60435 0.67185,-0.41053 c 3.94496,-2.4107 5.96186,-4.73765 7.33319,-8.46023 0.19308,-0.52414 0.66841,-1.71733 1.05624,-2.65166 3.07298,-7.403047 2.94792,-9.254437 -0.80032,-11.850487 -0.85847,-0.59458 -2.36967,-2.04179 -2.33537,-2.23657 0.012,-0.0682 -0.14424,0.0993 -0.34714,0.37259 -0.4536,0.61102 -0.88147,1.05742 -1.83194,1.91018 -0.40377,0.36225 -1.11231,1.08622 -1.57451,1.60906 -2.45799,2.7806 -4.41451,3.968277 -5.21142,3.16317 -0.0837,-0.0845 -0.0585,-0.088 0.12948,-0.017 1.02429,0.38674 2.22292,-0.39264 4.45528,-2.89679 0.63827,-0.71598 1.68475,-1.76362 2.32559,-2.32812 1.80493,-1.58991 2.27218,-2.2692 2.50397,-3.64063 0.14539,-0.8602 0.18668,-1.0036 0.75092,-2.60647 0.20857,-0.5925 0.37929,-1.15887 0.37934,-1.25873 1e-4,-0.26773 0.082,-0.28299 0.7553,-0.14043 0.60697,0.12837 1.90947,0.12939 2.03746,8.2e-4 0.0332,-0.0332 -0.11639,-0.21151 -0.33246,-0.3962 -0.21608,-0.18469 -0.44772,-0.4418 -0.51472,-0.57137 l -0.12173,-0.23553 0.43464,0.19895 c 1.83257,0.83857 4.34001,0.29696 4.90188,-1.05878 0.20347,-0.49093 0.1779,-0.51213 -0.32674,-0.27194 -0.22623,0.10768 -0.57438,0.21898 -0.77367,0.24733 l -0.36232,0.0515 0.54507,-0.58873 c 0.63791,-0.68901 0.92289,-1.31388 0.85983,-1.88573 -0.0464,-0.42042 -0.12306,-0.52651 -0.23553,-0.32556 -0.2343,0.41869 -1.07657,0.93482 -1.65542,1.01444 -1.25196,0.17218 -2.27133,-0.647 -4.98079,-4.002777 -3.41042,-4.22392 -4.901,-5.31965 -7.25175,-5.33045 -1.83043,-0.008 -3.18238,0.85163 -4.04812,2.57529 -0.20963,0.41736 -0.2095,0.41744 -0.64336,0.41744 -1.10595,0 -1.4808,0.48928 -2.00796,2.62215 -0.69804,2.824277 -0.77104,4.395137 -0.21361,4.592677 0.62429,0.22123 0.96016,0.64604 1.04579,1.3228 l 0.0469,0.37057 -0.11297,-0.33804 c -0.59394,-1.77809 -2.22135,-1.27402 -2.83036,0.87669 l -0.12897,0.45571 0.0423,-0.46515 0.0424,-0.46533 -1.71882,-0.76946 c -2.44629,-1.09515 -2.52848,-1.12647 -3.90633,-1.48819 -1.53735,-0.40356 -1.72182,-0.49699 -2.61372,-1.32328 -0.54788,-0.50759 -0.81295,-0.69207 -1.12925,-0.78599 -0.22732,-0.0675 -0.62674,-0.29031 -0.88764,-0.49516 -0.74833,-0.58758 -1.38423,-0.76796 -1.94963,-0.553 -0.23695,0.0901 -2.1429,-1.778947 -3.10399,-3.043967 -0.50286,-0.66188 -0.54447,-0.69481 -1.36731,-1.08238 -1.15207,-0.54264 -1.26117,-0.63855 -1.1461,-1.00751 l 0.0897,-0.2878 -0.0391,0.27026 c -0.0368,0.25343 0.43679,0.76559 0.70792,0.76559 0.30196,0 0.10187,-1.05571 -0.31813,-1.67887 -0.13022,-0.1932 -0.3594,-0.57507 -0.50933,-0.84853 -0.45077,-0.82226 -0.8161,-1.16485 -1.33981,-1.1601 z m 11.68596,52.772234 c 2.25493,0.0207 4.15791,0.63568 5.90451,1.89787 0.65887,0.47613 1.22777,0.94144 3.91224,3.20043 0.5063,0.42606 1.41451,1.14918 2.01841,1.60704 0.6039,0.45787 1.09806,0.84581 1.09806,0.86203 0,0.0514 -0.0162,0.0413 -1.37118,-0.86388 -1.48389,-0.99121 -1.82982,-1.2516 -3.43511,-2.5854 -3.84973,-3.19862 -5.21095,-3.81193 -8.8062,-3.96754 l -1.34504,-0.0581 1.03584,-0.0651 c 0.33707,-0.0211 0.66634,-0.0303 0.98847,-0.0273 z m 55.0717,8.44372 c -2.22361,0.067 -4.46081,0.9614 -6.23614,2.83036 -5.00105,5.26481 -2.0934,13.89228 5.11701,15.18278 5.93201,1.06169 11.421788,-4.41644 10.397888,-10.37598 -0.83803,-4.87773 -5.033678,-7.76509 -9.278758,-7.63716 z" /><path
       style="fill:#141414;stroke-width:0.0188317;fill-opacity:1"
       d="m 107.20983,116.01666 v -0.84717 l 0.61674,-0.005 0.61673,-0.005 0.005,-5.62596 0.005,-5.62595 h 0.94156 0.94155 v -0.33552 -0.33552 l 0.28718,-0.16464 c 1.24644,-0.71459 2.64939,-1.24361 4.06869,-1.53424 l 0.34263,-0.0702 0.0102,-0.53601 0.0102,-0.53602 0.1073,-0.26087 c 0.71662,-1.742277 0.97449,-3.988867 0.68632,-5.979347 l -0.0419,-0.28943 -0.1151,-0.0415 c -0.76104,-0.27454 -0.88513,-1.07372 -0.26334,-1.69608 0.51791,-0.51839 0.82441,-1.17876 0.79848,-1.7204 l -0.006,-0.11987 -0.096,-0.0358 -0.096,-0.0358 -0.0117,-0.17756 c -0.0433,-0.6597 -0.32851,-1.28997 -0.81192,-1.79445 -0.19893,-0.20759 -0.25474,-0.252 -0.80158,-0.63775 -1.14067,-0.80465 -2.35786,-1.91184 -3.28613,-2.98917 l -0.0942,-0.10927 -10e-4,0.30738 c -0.009,2.36462 -2.98749,3.67352 -4.62202,2.03107 -0.86805,-0.87227 0.31785,-2.16065 1.30877,-1.42187 0.71264,0.5313 1.61443,-0.1076 1.32976,-0.94209 -0.25113,-0.73619 0.155,-0.31829 -5.14314,-5.292311 -5.279698,-4.95669 -5.204088,-4.88145 -5.988658,-5.95915 -2.58886,-3.55606 -2.69079,-7.47075 -0.24583,-9.44154 2.32974,-1.87792 5.773358,-0.94992 6.819338,1.83772 0.034,0.0906 0.0634,0.16262 0.0653,0.16007 0.002,-0.002 -0.008,-0.16989 -0.0209,-0.37186 -0.0446,-0.67079 -0.0652,-1.18816 -0.0773,-1.94437 l -0.012,-0.74856 h 13.01841 13.0184 l -0.0128,0.62616 c -0.0175,0.85768 -0.0539,1.71385 -0.0974,2.29275 l -0.0106,0.14124 0.0963,-0.2354 c 1.18775,-2.90436 4.82471,-3.66933 7.08494,-1.49019 2.34318,2.25911 1.84823,6.42767 -1.18626,9.99092 -0.49699,0.5836 -0.75593,0.83294 -5.14516,4.95448 -5.41585,5.085561 -4.93793,4.614621 -5.18766,5.111911 -0.53584,1.06706 0.28291,1.97433 1.17891,1.30638 1.00174,-0.74678 2.18779,0.59264 1.28167,1.44742 -1.69773,1.60157 -4.59396,0.30099 -4.60601,-2.06837 l -0.002,-0.2853 -0.0661,0.0781 c -0.93911,1.10957 -2.2331,2.27227 -3.52171,3.16441 -0.88438,0.61228 -1.30502,1.30741 -1.40771,2.32634 l -0.0141,0.13967 -0.0942,0.0313 c -0.11547,0.0384 -0.12272,0.0771 -0.0754,0.40225 0.08,0.55026 0.30538,0.97897 0.76393,1.45323 0.63182,0.65348 0.52499,1.4422 -0.23108,1.70607 -0.14524,0.0507 -0.13047,0.0189 -0.18257,0.39314 -0.2791,2.00486 -0.0212,4.14368 0.72455,6.008787 l 0.10225,0.25574 v 0.49878 0.49879 l 0.18361,0.0343 c 1.41889,0.26546 2.89175,0.8106 4.20888,1.55781 l 0.2966,0.16827 v 0.33771 0.3377 l 0.94629,0.005 0.94629,0.005 0.005,5.62596 0.005,5.62596 h 0.62141 0.62142 v 0.84743 0.84742 h -10.24459 -10.24442 z m 10.63988,-34.783147 c 5.14759,-0.36367 7.53995,-6.576051 3.95465,-10.269251 -3.17278,-3.26827 -8.68454,-2.01238 -10.11287,2.30429 -1.35135,4.084 1.88281,8.267011 6.15822,7.964961 z m -0.97924,-5.149631 v -3.64392 h -0.65911 -0.65911 v -0.80977 -0.80976 h 1.56303 1.56303 v 4.45369 4.453681 h -0.90392 -0.90392 z m -8.40728,4.486641 c -1.81457,-3.736481 -3.10004,-8.077321 -3.6717,-12.398801 -0.0542,-0.40957 -0.0636,-0.45618 -0.0758,-0.37377 -0.16453,1.11645 -0.90057,2.37969 -1.50913,2.59006 -0.94388,0.32629 -1.6887,-0.82089 -1.02324,-1.576 1.89213,-2.14703 -0.74305,-5.21759 -3.127618,-3.64437 -2.07127,1.36652 -1.47197,4.95916 1.341248,8.04043 0.19611,0.21479 8.24182,7.800291 8.27354,7.800291 0.003,0 -0.0904,-0.19703 -0.20732,-0.43784 z m 21.87191,-3.416791 c 2.09738,-1.96759 3.89816,-3.66589 4.00173,-3.77402 2.99795,-3.12971 3.6339,-6.92379 1.38896,-8.28641 -2.33275,-1.41592 -4.80463,1.54339 -3.05877,3.66192 0.59696,0.72437 0.21715,1.68802 -0.66531,1.68802 -0.72196,0 -1.57625,-1.20726 -1.80525,-2.55113 -0.0307,-0.18062 -0.0231,-0.21253 -0.11568,0.48021 -0.55571,4.15828 -1.86569,8.54672 -3.63642,12.182011 -0.11801,0.24227 -0.21456,0.44545 -0.21456,0.45152 0,0.006 0.0657,-0.0533 0.14595,-0.13183 0.0803,-0.0786 1.86198,-1.752711 3.95935,-3.720291 z m -22.3606,-0.8081 c -0.80659,-3.8926 -0.0628,-8.74076 1.87859,-12.24568 0.048,-0.0867 0.0873,-0.1651 0.0873,-0.17419 0,-0.009 -0.94249,-0.0166 -2.18447,-0.0166 h -2.18447 v 0.46609 c 4.4e-4,3.7685 0.83223,8.05838 2.28238,11.76979 0.14533,0.37195 0.16179,0.39932 0.1206,0.20053 z m -11.392828,-7.1683 c 0.0219,-3.61401 3.23823,-6.15036 6.329248,-4.99116 0.11183,0.0419 -0.41282,-0.34977 -0.65382,-0.48815 -3.056418,-1.75492 -6.503548,1.04529 -5.916448,4.80612 0.0486,0.31093 0.21507,1.05485 0.23606,1.05453 0.001,0 0.004,-0.17163 0.005,-0.38134 z"
       id="path5048" /></g></svg>
